<svg width="225" height="32" viewBox="0 0 225 32" fill="none" xmlns="http://www.w3.org/2000/svg">
<path d="M106.042 28.9319C102.494 28.9319 99.6114 27.8114 97.4055 25.5705C95.1996 23.3296 94.0908 20.3534 94.0908 16.6303V15.9416C94.0908 13.4556 94.5693 11.2264 95.5381 9.26563C96.4951 7.30484 97.849 5.7759 99.588 4.69046C101.327 3.59335 103.265 3.05647 105.4 3.05647C108.797 3.05647 111.423 4.14191 113.279 6.31278C115.134 8.48365 116.056 11.5532 116.056 15.5215V17.7857H99.7514C99.9148 19.8516 100.603 21.4739 101.817 22.676C103.019 23.8782 104.548 24.4734 106.369 24.4734C108.937 24.4734 111.026 23.4347 112.648 21.3572L115.671 24.24C114.667 25.7339 113.337 26.8894 111.668 27.7064C109.999 28.5234 108.12 28.9319 106.042 28.9319ZM105.377 7.54994C103.836 7.54994 102.599 8.08683 101.654 9.16059C100.708 10.2344 100.102 11.74 99.8448 13.6541H110.524V13.2339C110.396 11.3548 109.906 9.94257 109.03 8.97385C108.143 8.04014 106.929 7.54994 105.377 7.54994ZM133.47 8.63538C132.735 8.50699 131.976 8.44864 131.182 8.44864C128.615 8.44864 126.887 9.42903 125.989 11.4015V28.4767H120.386V3.51165H125.744L125.884 6.30111C127.237 4.13024 129.117 3.0448 131.509 3.0448C132.303 3.0448 132.968 3.14984 133.493 3.3716L133.47 8.63538ZM151.467 28.4767C151.222 27.9982 151 27.2278 150.825 26.1424C149.04 27.9982 146.857 28.9319 144.278 28.9319C141.768 28.9319 139.726 28.2199 138.139 26.7843C136.551 25.3488 135.758 23.5864 135.758 21.4739C135.758 18.8128 136.75 16.7703 138.722 15.3464C140.695 13.9225 143.519 13.2105 147.195 13.2105H150.627V11.5766C150.627 10.281 150.265 9.25396 149.541 8.47198C148.818 7.69 147.721 7.30484 146.238 7.30484C144.966 7.30484 143.916 7.61997 143.099 8.2619C142.282 8.90382 141.873 9.70914 141.873 10.7012H136.271C136.271 9.33566 136.726 8.05181 137.637 6.86133C138.547 5.67085 139.772 4.73715 141.336 4.06021C142.9 3.38327 144.639 3.0448 146.565 3.0448C149.483 3.0448 151.817 3.7801 153.556 5.25069C155.295 6.72128 156.182 8.78711 156.229 11.4482V22.6994C156.229 24.9403 156.544 26.7376 157.174 28.0799V28.4767H151.467ZM145.316 24.4384C146.425 24.4384 147.464 24.17 148.444 23.6331C149.425 23.0962 150.16 22.3726 150.65 21.4622V16.7586H147.627C145.55 16.7586 143.986 17.1205 142.947 17.8441C141.897 18.5677 141.383 19.5948 141.383 20.9136C141.383 21.9874 141.745 22.8511 142.457 23.4813C143.157 24.1233 144.114 24.4384 145.316 24.4384ZM176.105 21.6956C176.105 20.6919 175.697 19.9333 174.868 19.408C174.04 18.8828 172.686 18.4276 170.772 18.0191C168.869 17.6223 167.27 17.1088 165.998 16.5019C163.197 15.148 161.796 13.1872 161.796 10.6195C161.796 8.47198 162.707 6.66292 164.516 5.22734C166.325 3.7801 168.636 3.05647 171.437 3.05647C174.425 3.05647 176.829 3.79177 178.673 5.27403C180.506 6.74462 181.428 8.67039 181.428 11.0163H175.825C175.825 9.94257 175.428 9.04388 174.623 8.33192C173.818 7.61997 172.767 7.25816 171.437 7.25816C170.211 7.25816 169.208 7.53827 168.426 8.11017C167.644 8.68206 167.259 9.4407 167.259 10.3978C167.259 11.2614 167.62 11.9267 168.344 12.4052C169.068 12.8838 170.527 13.3623 172.732 13.8525C174.927 14.3427 176.654 14.9146 177.914 15.5798C179.163 16.2451 180.097 17.0504 180.704 17.9958C181.311 18.9295 181.614 20.0733 181.614 21.4155C181.614 23.6564 180.681 25.4771 178.825 26.866C176.969 28.2549 174.53 28.9552 171.507 28.9552C169.464 28.9552 167.644 28.5817 166.045 27.8464C164.446 27.1111 163.197 26.0957 162.31 24.8002C161.423 23.5047 160.968 22.1158 160.968 20.6219H166.407C166.488 21.9407 166.978 22.9678 167.9 23.6798C168.822 24.3917 170.048 24.7535 171.565 24.7535C173.036 24.7535 174.168 24.4734 174.938 23.9132C175.72 23.3413 176.105 22.606 176.105 21.6956ZM197.487 28.9319C193.939 28.9319 191.056 27.8114 188.851 25.5705C186.645 23.3296 185.536 20.3534 185.536 16.6303V15.9416C185.536 13.4556 186.014 11.2264 186.983 9.26563C187.94 7.30484 189.294 5.7759 191.033 4.69046C192.772 3.59335 194.71 3.05647 196.845 3.05647C200.242 3.05647 202.868 4.14191 204.724 6.31278C206.579 8.48365 207.501 11.5532 207.501 15.5215V17.7857H191.196C191.36 19.8516 192.048 21.4739 193.262 22.676C194.464 23.8782 195.993 24.4734 197.814 24.4734C200.382 24.4734 202.471 23.4347 204.093 21.3572L207.116 24.24C206.112 25.7339 204.782 26.8894 203.113 27.7064C201.444 28.5234 199.565 28.9319 197.487 28.9319ZM196.822 7.54994C195.281 7.54994 194.044 8.08683 193.099 9.16059C192.154 10.2344 191.547 11.74 191.29 13.6541H201.969V13.2339C201.841 11.3548 201.351 9.94257 200.475 8.97385C199.588 8.04014 198.374 7.54994 196.822 7.54994ZM224.915 8.63538C224.18 8.50699 223.421 8.44864 222.627 8.44864C220.06 8.44864 218.332 9.42903 217.434 11.4015V28.4767H211.831V3.51165H217.189L217.329 6.30111C218.683 4.13024 220.562 3.0448 222.954 3.0448C223.748 3.0448 224.413 3.14984 224.938 3.3716L224.915 8.63538Z" fill="#231F1F"/>
<path d="M39.4979 32H2.92476C1.04653 32 -0.12008 29.3285 0.848203 27.2402L12.7592 1.51659C13.1909 0.571637 13.9842 0 14.8358 0H39.5095V32H39.4979Z" fill="#EC2C40"/>
<path d="M43.6976 0H80.2824C82.1606 0 83.3272 2.67153 82.359 4.75975L70.4479 30.4834C70.0163 31.4284 69.223 32 68.3713 32H43.6976V0Z" fill="#00A9E5"/>
</svg>
