<svg height="32" viewBox="0 0 123 32" fill="none" xmlns="http://www.w3.org/2000/svg">
<path d="M52.4055 23.924V17.1658C52.4055 15.51 51.5269 13.9895 49.8036 13.9895C48.114 13.9895 47.1003 15.51 47.1003 17.1658V23.924H43.9578V11.2524H46.8638L47.1003 12.8068C47.7761 11.5227 49.2291 11.0496 50.4456 11.0496C51.9662 11.0496 53.4868 11.6579 54.1964 13.415C55.3115 11.6241 56.7983 11.1172 58.4203 11.1172C62.0021 11.1172 63.793 13.3136 63.793 17.132V23.9578H60.6505V17.0982C60.6505 15.4425 59.9747 14.0232 58.2513 14.0232C56.5618 14.0232 55.5143 15.4763 55.5143 17.1658V23.924H52.4055ZM75.9578 11.2862H78.9652V23.924H76.0253L75.8564 22.0655C75.1468 23.5523 73.1531 24.2619 71.7677 24.2957C68.0169 24.3295 65.246 21.9979 65.246 17.5713C65.246 13.2582 68.0912 10.9631 71.7192 10.948L71.8353 10.9483C73.5248 10.9483 75.1468 11.7593 75.8564 13.0095L75.9578 11.2862ZM68.3886 17.5713C68.3886 19.9705 70.0443 21.4235 72.1394 21.4235C77.0729 21.4235 77.0729 13.7529 72.1394 13.7529C70.0443 13.7529 68.3886 15.1721 68.3886 17.5713ZM84.1014 11.2862V17.9092C84.1014 19.8353 85.1489 21.2883 87.1425 21.2883C89.0686 21.2883 90.3865 19.6663 90.3865 17.7403V11.2862H93.4952V23.9578H90.6906L90.4879 22.2344C89.17 23.5185 87.9873 24.1267 86.1964 24.1267C83.1552 24.1267 80.9588 21.829 80.9588 17.9092V11.2862H84.1014ZM100.659 7.70435V11.2862H104.139V13.9895H100.625V19.4636C100.625 20.6801 101.301 21.2545 102.281 21.2545C102.754 21.2545 103.328 21.0856 103.801 20.8828L104.68 23.5523C103.768 23.924 103.024 24.0592 102.078 24.0929C99.3411 24.1943 97.5502 22.6399 97.5502 19.4636V13.9895H95.1848V11.2862H97.5502V8.04226L100.659 7.70435ZM109.884 7.70435C109.884 10.1373 106.201 10.1373 106.201 7.70435C106.201 5.2714 109.884 5.2714 109.884 7.70435ZM106.471 11.2186V23.924H109.614V11.2186H106.471ZM122.86 22.302C121.407 23.7212 119.852 24.2957 117.994 24.2957C114.31 24.2957 111.269 22.0993 111.269 17.6051C111.269 13.1109 114.31 10.9145 117.994 10.9145C119.785 10.9145 121.17 11.4213 122.555 12.773L120.596 14.8342C119.852 14.1584 118.94 13.8205 118.061 13.8205C115.966 13.8205 114.412 15.3749 114.412 17.5713C114.412 19.9705 116.068 21.2545 117.994 21.2545C119.007 21.2545 119.987 20.9842 120.765 20.207L122.86 22.302Z" fill="#3B3A3A"/>
<path d="M16.283 32C7.46358 32 0.266113 24.8025 0.266113 15.9831C0.266113 7.16367 7.46358 0 16.283 0C18.4118 0 20.4731 0.405491 22.433 1.21647C22.9736 1.45301 23.2439 2.09504 23.0074 2.63569C22.7709 3.17635 22.1288 3.44667 21.5882 3.21014C19.8986 2.50053 18.1077 2.16262 16.2492 2.16262C8.61247 2.16262 2.39494 8.38015 2.39494 16.0169C2.39494 23.6536 8.61247 29.8712 16.2492 29.8712C23.886 29.8712 30.1035 23.6536 30.1035 16.0169C30.1035 14.3949 29.8332 12.773 29.2587 11.2524C29.056 10.6779 29.3263 10.0697 29.9007 9.86695C30.4752 9.6642 31.0834 9.93453 31.2862 10.509C31.9282 12.2661 32.2662 14.1246 32.2662 16.0169C32.2999 24.8363 25.1024 32 16.283 32Z" fill="#3B3A3A"/>
<path d="M23.2777 14.3612L25.3052 22.7413H22.1964L20.811 16.9631L23.2777 14.3612ZM27.0623 5.74451L26.1838 10.6104L25.339 9.76563L16.283 19.6326L12.0592 15.0032L10.2007 22.7413H7.05811L10.4372 8.78569L16.283 14.8343L23.1426 7.56922L22.264 6.72444L27.0623 5.74451Z" fill="#3B3A3A"/>
</svg>
