<svg height="32" viewBox="0 0 115 32" fill="none" xmlns="http://www.w3.org/2000/svg">
<path d="M0.859375 5.51733C0.859375 2.47019 3.32957 0 6.37671 0H27.342C30.3892 0 32.8594 2.47019 32.8594 5.51733V23.3484C32.8594 26.5004 28.87 27.8684 26.9358 25.3804L20.8869 17.5991V27.0347C20.8869 29.7769 18.6639 32 15.9216 32H6.37671C3.32957 32 0.859375 29.5298 0.859375 26.4827V5.51733ZM6.37671 4.41422C5.76693 4.41422 5.2736 4.90756 5.2736 5.51644V26.4827C5.2736 27.0924 5.76693 27.5867 6.37582 27.5867H16.0869C16.3918 27.5867 16.4727 27.3396 16.4727 27.0347V14.3822C16.4727 11.2293 20.462 9.86133 22.3972 12.3502L28.446 20.1307V5.51733C28.446 4.90756 28.5029 4.41422 27.894 4.41422H6.37671Z" fill="#3B3A3A"/>
<path d="M0.859375 5.51733C0.859375 2.47019 3.32957 0 6.37671 0H27.342C30.3892 0 32.8594 2.47019 32.8594 5.51733V23.3484C32.8594 26.5004 28.87 27.8684 26.9358 25.3804L20.8869 17.5991V27.0347C20.8869 29.7769 18.6639 32 15.9216 32H6.37671C3.32957 32 0.859375 29.5298 0.859375 26.4827V5.51733ZM6.37671 4.41422C5.76693 4.41422 5.2736 4.90756 5.2736 5.51644V26.4827C5.2736 27.0924 5.76693 27.5867 6.37582 27.5867H16.0869C16.3918 27.5867 16.4727 27.3396 16.4727 27.0347V14.3822C16.4727 11.2293 20.462 9.86133 22.3972 12.3502L28.446 20.1307V5.51733C28.446 4.90756 28.5029 4.41422 27.894 4.41422H6.37671Z" fill="url(#paint0_linear_61_621)"/>
<path d="M0.859375 5.51733C0.859375 2.47019 3.32957 0 6.37671 0H27.342C30.3892 0 32.8594 2.47019 32.8594 5.51733V23.3484C32.8594 26.5004 28.87 27.8684 26.9358 25.3804L20.8869 17.5991V27.0347C20.8869 29.7769 18.6639 32 15.9216 32H6.37671C3.32957 32 0.859375 29.5298 0.859375 26.4827V5.51733ZM6.37671 4.41422C5.76693 4.41422 5.2736 4.90756 5.2736 5.51644V26.4827C5.2736 27.0924 5.76693 27.5867 6.37582 27.5867H16.0869C16.3918 27.5867 16.4727 27.3396 16.4727 27.0347V14.3822C16.4727 11.2293 20.462 9.86133 22.3972 12.3502L28.446 20.1307V5.51733C28.446 4.90756 28.5029 4.41422 27.894 4.41422H6.37671Z" fill="url(#paint1_linear_61_621)" fill-opacity="0.4"/>
<path d="M27.3421 0C30.3892 0 32.8594 2.47019 32.8594 5.51733V23.3484C32.8594 26.5004 28.8701 27.8684 26.9359 25.3804L20.887 17.5991V27.0347C20.887 29.7769 18.6639 32 15.9216 32C16.0678 32 16.208 31.9419 16.3113 31.8386C16.4147 31.7352 16.4727 31.5951 16.4727 31.4489V14.3822C16.4727 11.2293 20.4621 9.86133 22.3972 12.3502L28.4461 20.1307V1.10311C28.4461 0.494222 27.9519 0 27.3421 0Z" fill="#3B3A3A"/>
<path d="M54.8024 9.42219V17.792L46.6869 9.42219H42.4629V23.1111H46.3153V14.1155L55.1544 23.1111H58.6549V9.42219H54.8024ZM65.7962 20.0604V17.6355H74.4202V14.7217H65.7962V12.4729H76.2584V9.42219H61.8656V23.1111H76.4736V20.0604H65.7962ZM86.7109 23.5609C92.1278 23.5609 95.6478 20.9013 95.6478 16.2666C95.6478 11.632 92.1278 8.97241 86.7109 8.97241C81.294 8.97241 77.7936 11.632 77.7936 16.2666C77.7936 20.9013 81.294 23.5609 86.7109 23.5609ZM86.7109 20.3146C83.6993 20.3146 81.8416 18.848 81.8416 16.2666C81.8416 13.6853 83.7189 12.2186 86.7109 12.2186C89.7224 12.2186 91.5802 13.6853 91.5802 16.2666C91.5802 18.848 89.7224 20.3146 86.7109 20.3146ZM110.414 9.42219V17.792L102.298 9.42219H98.0745V23.1111H101.927V14.1155L110.766 23.1111H114.266V9.42219H110.414Z" fill="#3B3A3A"/>
<defs>
<linearGradient id="paint0_linear_61_621" x1="3200.86" y1="3200" x2="387.081" y2="-0.000105073" gradientUnits="userSpaceOnUse">
<stop stop-color="#62F755"/>
<stop offset="1" stop-color="#8FF986" stop-opacity="0"/>
</linearGradient>
<linearGradient id="paint1_linear_61_621" x1="3200.86" y1="3200" x2="1300.15" y2="2460.71" gradientUnits="userSpaceOnUse">
<stop stop-opacity="0.9"/>
<stop offset="1" stop-color="#1A1A1A" stop-opacity="0"/>
</linearGradient>
</defs>
</svg>
