<svg width="183" height="32" viewBox="0 0 183 32" fill="none" xmlns="http://www.w3.org/2000/svg">
<path d="M9.72016 20.0897L10.2594 19.9312C11.4842 19.5823 13.0683 19.227 14.8449 19.4491C16.2316 19.5854 17.536 20.1701 18.5604 21.1146C19.8415 22.1396 20.8665 23.677 21.8914 26.2394C21.319 27.3111 20.9703 28.488 20.8665 29.6986C20.6103 31.236 19.201 32.3891 17.6635 31.8766C14.6185 30.7793 11.4182 30.1739 8.18274 30.0829H7.9265C10.2326 26.4956 10.4889 23.0364 9.72016 20.0897ZM4.33917 13.2994V13.1713L4.70301 13.5911C5.61035 14.6526 6.88554 16.2781 7.67026 18.296C9.35419 21.9261 8.963 26.1802 6.64531 29.4423L1.13621 23.8051C0.495611 23.1645 0.367493 22.2677 0.62373 21.3709L4.21106 13.6837L4.33917 13.2994ZM16.7667 2.40928L21.1227 7.91839C21.5071 8.30274 21.5071 8.6871 21.5071 9.19958C21.6272 10.5208 21.6347 12.9681 22.3741 14.7468L22.532 15.093C23.2156 16.679 24.0751 18.1831 25.0944 19.5772C25.3507 19.9616 25.3507 20.3459 25.3507 20.8584L22.7883 24.702H22.6602C21.7633 22.6521 20.7384 21.1146 19.4572 20.0897C17.9198 18.8085 16.3823 18.296 14.973 18.0398H14.4606C13.3075 15.6055 13.3075 13.6837 13.3075 12.0182C13.5193 10.3153 14.0403 8.66538 14.8449 7.14968L15.8699 5.09978L16.7667 3.17799V2.40928ZM12.4107 0.4875C13.0513 0.103143 13.6918 -0.153094 14.4606 0.103143C14.973 0.615619 15.2293 0.999975 15.3574 1.51245V2.79364C15.0101 3.78997 14.6254 4.7729 14.2043 5.74037L13.6918 6.6372C11.7442 10.0935 11.5077 14.257 13.0513 17.9117C11.8291 18.0238 10.6247 18.2819 9.46393 18.6804H9.33581C8.31684 15.9991 6.69491 13.5882 4.59541 11.6338L5.10789 7.79027C5.23601 7.2778 5.49224 6.76532 5.8766 6.50908L12.4107 0.4875Z" fill="#8060D3"/>
<path d="M51.4869 5.74036C43.7998 5.74036 38.2906 10.4808 38.2906 17.1429C38.2906 23.677 43.7998 28.5455 51.4869 28.5455C59.0459 28.5455 64.555 23.677 64.555 17.0148C64.555 10.6089 59.0459 5.74036 51.4869 5.74036ZM51.4869 10.2245C55.971 10.2245 59.3021 12.915 59.3021 17.1429C59.3021 21.2427 55.971 24.0613 51.4869 24.0613C46.8746 24.0613 43.5435 21.2427 43.5435 17.1429C43.5435 12.915 46.8746 10.2245 51.4869 10.2245ZM71.6015 26.3675C72.6265 27.5205 74.8045 28.5455 77.495 28.5455C83.0041 28.5455 86.2071 24.7019 86.2071 20.0897C86.3352 15.3493 83.0041 11.5057 77.495 11.5057C74.8045 11.5057 72.6265 12.5307 71.6015 13.6837V5.99659H66.6049V28.1611H71.6015V26.3675ZM71.4734 19.9615C71.4734 17.3992 73.6514 15.6055 76.47 15.6055C79.0324 15.6055 81.4667 17.1429 81.4667 20.0897C81.4667 22.9083 79.1605 24.5738 76.3419 24.5738C73.6514 24.5738 71.4734 22.7802 71.4734 20.2178V19.9615ZM86.7196 25.5988C89.3498 27.6398 92.6177 28.6837 95.9441 28.5455C101.069 28.5455 104.912 26.6237 104.912 22.9083C104.912 19.0647 101.197 18.4241 97.0972 18.0398C93.5098 17.5273 92.4849 17.5273 92.4849 16.6305C92.4849 15.7336 93.638 15.3493 95.6879 15.3493C98.2502 15.3493 100.428 15.9899 101.838 17.3992L104.4 14.4524C102.045 12.4536 99.031 11.4031 95.9441 11.5057C90.8194 11.5057 87.6164 13.6837 87.6164 17.0148C87.6164 20.474 90.8194 21.2427 94.791 21.7552C98.3784 22.1396 99.9158 22.1396 99.9158 23.2926C99.9158 24.3176 98.6346 24.7019 96.3285 24.7019C93.5098 24.7019 91.0756 23.8051 89.0257 22.1396L86.7196 25.3425V25.5988ZM106.578 10.2245H111.703V6.25283H106.578V10.2245ZM111.575 12.0182H106.706V28.1611H111.575V12.0182ZM128.358 26.3675V28.1611H133.355V6.12471H128.358V13.8118C127.333 12.5307 125.283 11.5057 122.465 11.5057C116.956 11.5057 113.753 15.3493 113.753 19.9615C113.753 24.5738 116.956 28.4174 122.465 28.4174C125.283 28.4174 127.333 27.3924 128.358 26.2394V26.3675ZM128.486 19.9615V20.2178C128.486 22.7802 126.308 24.5738 123.49 24.5738C120.927 24.5738 118.493 22.9083 118.493 20.0897C118.493 17.1429 120.799 15.6055 123.618 15.6055C126.308 15.6055 128.486 17.3992 128.486 19.9615ZM136.302 10.2245H141.426V6.25283H136.302V10.2245ZM141.298 12.0182H136.302V28.1611H141.298V12.0182ZM150.266 28.5455C152.674 28.625 155.033 27.8538 156.929 26.3675C157.697 27.9049 159.747 28.9299 163.335 28.1611V24.5738C161.541 24.9582 161.157 24.5738 161.157 23.677V17.7835C161.157 13.6837 158.21 11.6338 152.957 11.6338C148.473 11.6338 145.014 13.5556 143.989 16.5023L148.345 17.7835C148.857 16.5023 150.523 15.4774 152.829 15.4774C155.391 15.4774 156.416 16.5023 156.416 17.6554V17.7835L150.01 18.4241C146.167 18.8085 143.348 20.3459 143.348 23.5489C143.348 26.6237 146.167 28.5455 150.266 28.5455ZM156.416 22.0114C156.416 23.8051 153.598 24.9582 151.163 24.9582C149.242 24.9582 148.088 24.3176 148.088 23.2926C148.088 22.2677 148.985 21.8833 150.651 21.6271L156.416 21.1146V22.0114ZM165 28.1611H169.869V20.474C169.869 17.6554 171.406 15.9899 174.097 15.9899C176.659 15.9899 177.94 17.6554 177.94 20.3459V28.1611H182.809V18.9366C182.809 14.4524 179.99 11.6338 175.762 11.6338C173.2 11.6338 171.15 12.6588 169.869 13.94V12.0182H165V28.1611Z" fill="#8060D3"/>
</svg>
