<svg height="32" viewBox="0 0 98 32" fill="none" xmlns="http://www.w3.org/2000/svg">
<path d="M88.3504 21.0311C85.6393 21.0311 83.7282 18.9155 83.7282 16.1333C83.7282 13.3511 85.6393 11.2355 88.3504 11.2355C91.0616 11.2355 92.9193 13.3511 92.9193 16.1333C92.9193 18.9155 91.0349 21.0311 88.3504 21.0311ZM87.9149 23.9466C90.1016 23.9466 91.9593 23.0933 93.1327 21.3066C93.3549 23.04 94.6082 23.6711 96.1904 23.6711H97.4527V20.9244H96.9104C96.0127 20.9244 95.7904 20.4889 95.7904 19.4666V8.60441H92.8927V10.8355C91.906 9.27107 90.0482 8.32885 87.9149 8.32885C84.1104 8.32885 80.6171 11.52 80.6171 16.1333C80.6171 20.7466 84.1193 23.9377 87.9149 23.9377V23.9466ZM72.9904 20.1777C72.9904 22.6489 74.5193 23.6711 76.3504 23.6711H79.8793V20.9244H77.3104C76.2438 20.9244 76.0216 20.5155 76.0216 19.4666V11.3511H79.8793V8.60441H76.0216V3.54663H72.9904V20.1777ZM59.186 23.6711H62.2171V17.2089H63.2304L68.3949 23.6711H72.226L65.6393 15.4755L70.6971 8.60441H67.2838L63.1504 14.4089H62.2171V3.54663H59.186V23.6711ZM49.346 8.32885C45.106 8.32885 41.6127 11.52 41.6127 16.1333C41.6127 20.7466 45.1149 23.9377 49.346 23.9377C53.5771 23.9377 57.0793 20.7466 57.0793 16.1333C57.0793 11.52 53.5771 8.32885 49.346 8.32885ZM49.346 21.0311C46.6349 21.0311 44.7238 18.9155 44.7238 16.1333C44.7238 13.3511 46.6349 11.2355 49.346 11.2355C52.0571 11.2355 53.9682 13.3511 53.9682 16.1333C53.9682 18.9155 52.0571 21.0311 49.346 21.0311Z" fill="#3B3A3A"/>
<path d="M17.9771 0.222222L17.3193 8.32889C17.0082 8.29333 16.6971 8.27556 16.3771 8.27556C15.9771 8.27556 15.586 8.30222 15.2038 8.36444L14.8305 4.43556C14.8216 4.31111 14.9193 4.20444 15.0438 4.20444H15.7105L15.3905 0.231111C15.3816 0.106667 15.4793 0 15.5949 0H17.7727C17.8971 0 17.9949 0.106667 17.9771 0.231111V0.222222ZM12.4838 0.622222C12.4482 0.506667 12.3238 0.435556 12.2082 0.48L10.1638 1.22667C10.0482 1.27111 9.9949 1.40444 10.0482 1.51111L11.7105 5.13778L11.0793 5.36889C10.9638 5.41333 10.9105 5.54667 10.9638 5.65333L12.6616 9.21778C13.2749 8.88 13.9416 8.62222 14.6438 8.46222L12.4927 0.622222H12.4838ZM7.47045 2.88L12.1727 9.51111C11.5771 9.90222 11.0349 10.3644 10.5727 10.8978L7.7549 8.12444C7.66601 8.03555 7.6749 7.89333 7.76379 7.81333L8.27934 7.38667L5.47934 4.55111C5.39046 4.46222 5.39934 4.32 5.49712 4.24L7.15934 2.84444C7.25712 2.76444 7.39046 2.78222 7.46157 2.88H7.47045ZM3.52379 6.72C3.42601 6.64889 3.28379 6.68444 3.22157 6.79111L2.13712 8.67556C2.0749 8.78222 2.11934 8.91556 2.22601 8.96889L5.8349 10.6756L5.49712 11.2533C5.4349 11.36 5.47934 11.5022 5.5949 11.5467L9.18601 13.1911C9.44379 12.5244 9.79045 11.9022 10.2171 11.3422L3.52379 6.72ZM0.866011 11.84C0.883789 11.7156 1.00823 11.6444 1.12379 11.6711L8.99045 13.7244C8.78601 14.3911 8.67045 15.0933 8.65268 15.8222L4.7149 15.5022C4.59046 15.4933 4.50157 15.3778 4.52823 15.2533L4.64379 14.5956L0.670455 14.2222C0.546011 14.2133 0.466011 14.0978 0.483789 13.9733L0.857122 11.8311L0.866011 11.84ZM0.572677 17.1556C0.448233 17.1644 0.368233 17.28 0.386011 17.4044L0.768233 19.5467C0.786011 19.6711 0.910455 19.7422 1.02601 19.7156L4.88379 18.7111L4.99934 19.3689C5.01712 19.4933 5.14157 19.5644 5.25712 19.5378L9.06157 18.4889C8.83934 17.8311 8.69712 17.1289 8.66157 16.4089L0.563789 17.1556H0.572677ZM1.8349 22.7911C1.77268 22.6844 1.81712 22.5511 1.92379 22.4978L9.26601 19.0133C9.54157 19.6711 9.9149 20.2844 10.3593 20.8356L7.14157 23.1289C7.04379 23.2 6.90157 23.1733 6.83934 23.0667L6.50157 22.48L3.22157 24.7467C3.12379 24.8178 2.98157 24.7822 2.91934 24.6756L1.82601 22.7911H1.8349ZM10.7327 21.2622L5.01712 27.0489C4.92823 27.1378 4.93712 27.28 5.0349 27.36L6.70601 28.7556C6.80379 28.8356 6.93712 28.8178 7.00823 28.72L9.31934 25.4667L9.8349 25.9022C9.93268 25.9822 10.0749 25.9644 10.146 25.8578L12.386 22.6044C11.7816 22.2311 11.2216 21.7778 10.7416 21.2622H10.7327ZM9.60379 30.5511C9.48823 30.5067 9.4349 30.3733 9.48823 30.2667L12.8749 22.8711C13.4971 23.1911 14.1727 23.4311 14.8749 23.5644L13.8793 27.3867C13.8527 27.5022 13.7193 27.5733 13.6038 27.5289L12.9727 27.2978L11.9149 31.1467C11.8793 31.2622 11.7549 31.3333 11.6393 31.2889L9.5949 30.5422L9.60379 30.5511ZM15.4349 23.6622L14.7771 31.7689C14.7682 31.8933 14.866 32 14.9816 32H17.1593C17.2838 32 17.3816 31.8933 17.3638 31.7689L17.0438 27.7956H17.7105C17.8349 27.7956 17.9327 27.6889 17.9238 27.5644L17.5505 23.6356C17.1682 23.6978 16.7771 23.7244 16.3771 23.7244C16.0571 23.7244 15.746 23.7067 15.4349 23.6622ZM23.2749 1.71556C23.3282 1.6 23.2749 1.47556 23.1593 1.43111L21.1149 0.684444C20.9993 0.64 20.8749 0.711111 20.8393 0.826667L19.7816 4.67556L19.1505 4.44444C19.0349 4.4 18.9105 4.47111 18.8749 4.58667L17.8793 8.40889C18.5905 8.55111 19.2571 8.79111 19.8793 9.10222L23.2749 1.71556ZM27.7371 4.94222L22.0216 10.7289C21.5416 10.2133 20.9905 9.76 20.3771 9.38667L22.6171 6.13333C22.6882 6.03556 22.8305 6.00889 22.9282 6.08889L23.4438 6.52444L25.7549 3.27111C25.826 3.17333 25.9682 3.15556 26.0571 3.23556L27.7282 4.63111C27.826 4.71111 27.826 4.85333 27.746 4.94222H27.7371ZM30.8305 9.49333C30.946 9.44 30.9816 9.30667 30.9193 9.2L29.826 7.31556C29.7638 7.20889 29.6216 7.18222 29.5238 7.24444L26.2438 9.51111L25.906 8.93333C25.8438 8.82667 25.7016 8.79111 25.6038 8.87111L22.386 11.1644C22.8305 11.7156 23.1949 12.3289 23.4793 12.9867L30.8216 9.50222L30.8305 9.49333ZM31.986 12.4444L32.3593 14.5867C32.3771 14.7111 32.2971 14.8178 32.1727 14.8356L24.0749 15.5911C24.0393 14.8622 23.8971 14.1689 23.6749 13.5111L27.4793 12.4622C27.5949 12.4267 27.7193 12.5067 27.7371 12.6311L27.8527 13.2889L31.7105 12.2844C31.826 12.2578 31.9505 12.3289 31.9682 12.4533L31.986 12.4444ZM31.6216 20.3111C31.7371 20.3378 31.8616 20.2667 31.8793 20.1422L32.2527 18C32.2705 17.8756 32.1905 17.7689 32.066 17.7511L28.0927 17.3778L28.2082 16.72C28.226 16.5956 28.146 16.4889 28.0216 16.4711L24.0838 16.1511C24.066 16.88 23.9505 17.5822 23.746 18.2489L31.6127 20.3022L31.6216 20.3111ZM29.5238 25.2C29.4616 25.3067 29.3193 25.3333 29.2216 25.2711L22.5282 20.6489C22.9549 20.0889 23.3016 19.4667 23.5593 18.8L27.1505 20.4444C27.266 20.4978 27.3105 20.6311 27.2482 20.7378L26.9105 21.3156L30.5193 23.0222C30.626 23.0756 30.6705 23.2089 30.6082 23.3156L29.5238 25.2ZM20.5727 22.4711L25.2749 29.1022C25.346 29.2 25.4882 29.2178 25.5771 29.1378L27.2393 27.7422C27.3371 27.6622 27.3371 27.52 27.2571 27.4311L24.4571 24.5956L24.9727 24.1689C25.0705 24.0889 25.0705 23.9467 24.9816 23.8578L22.1638 21.0844C21.6927 21.6178 21.1593 22.0889 20.5638 22.4711H20.5727ZM20.5282 31.5022C20.4127 31.5467 20.2882 31.4756 20.2527 31.36L18.1016 23.52C18.8038 23.36 19.4705 23.1022 20.0838 22.7644L21.7816 26.3289C21.8349 26.4444 21.7816 26.5778 21.666 26.6133L21.0349 26.8444L22.6971 30.4711C22.7505 30.5867 22.6971 30.7111 22.5816 30.7556L20.5371 31.5022H20.5282Z" fill="#3B3A3A"/>
</svg>
