<svg height="32" viewBox="0 0 184 32" fill="none" xmlns="http://www.w3.org/2000/svg">
<path d="M0.5 24.4069C0.5 23.3713 1.75213 22.8526 2.48444 23.585L7.81243 28.913C8.54474 29.6453 8.02608 30.8974 6.99045 30.8974H1.66246C1.02045 30.8974 0.5 30.377 0.5 29.7349V24.4069ZM0.5 18.7948C0.5 19.1031 0.622473 19.3988 0.840476 19.6168L11.7806 30.5569C11.9986 30.7749 12.2943 30.8974 12.6026 30.8974H18.6115C19.6472 30.8974 20.1659 29.6453 19.4335 28.913L2.48444 11.9639C1.75213 11.2315 0.5 11.7502 0.5 12.7859V18.7948ZM0.5 7.17374C0.5 7.48203 0.622473 7.77772 0.840476 7.99571L23.4017 30.5569C23.6196 30.7749 23.9154 30.8974 24.2237 30.8974H30.2326C31.2683 30.8974 31.787 29.6453 31.0546 28.913L2.48444 0.342813C1.75214 -0.389488 0.5 0.129154 0.5 1.16479V7.17374ZM12.1211 7.17374C12.1211 7.48203 12.2436 7.77772 12.4616 7.99571L33.3788 28.913C34.1112 29.6453 35.3633 29.1266 35.3633 28.091V22.082C35.3633 21.7737 35.2407 21.478 35.0228 21.2601L14.1055 0.342802C13.3732 -0.3895 12.1211 0.129154 12.1211 1.16479V7.17374ZM25.7266 0.342813C24.9943 -0.3895 23.7422 0.129154 23.7422 1.16479V7.17374C23.7422 7.48203 23.8647 7.77772 24.0827 7.99571L33.3788 17.2919C34.1112 18.0242 35.3633 17.5056 35.3633 16.4699V10.4609C35.3633 10.1527 35.2407 9.85693 35.0228 9.63897L25.7266 0.342813Z" fill="#3B3A3A"/>
<path d="M49.9333 24.5494L38.9914 13.6075C38.259 12.8751 37.007 13.3938 37.007 14.4294V29.7348C37.007 30.3768 37.5274 30.8973 38.1694 30.8973H55.1187C55.7608 30.8973 56.2812 30.3768 56.2812 29.7348V28.341C56.2812 27.699 55.7586 27.1864 55.1219 27.1035C53.1681 26.849 51.3406 25.9567 49.9333 24.5494ZM42.585 27.1786C41.5587 27.1786 40.7257 26.3456 40.7257 25.3192C40.7257 24.2928 41.5587 23.4598 42.585 23.4598C43.6115 23.4598 44.4445 24.2928 44.4445 25.3192C44.4445 26.3456 43.6115 27.1786 42.585 27.1786Z" fill="#3B3A3A"/>
<path d="M2.38612 23.4964L2.48444 23.5849L7.81244 28.9129C8.5129 29.6134 8.06882 30.7894 7.12254 30.8903L6.99045 30.8973H1.66246C1.06631 30.8973 0.57497 30.4485 0.507821 29.8704L0.5 29.7348V24.4068C0.5 23.4162 1.64562 22.8986 2.38612 23.4964ZM2.38612 11.8755L2.48444 11.964L12.1211 21.6007V30.8975L0.840476 19.6169C0.658807 19.4352 0.543478 19.1996 0.510081 18.9477L0.5 18.7949V12.786C0.5 11.7954 1.64562 11.2777 2.38612 11.8755ZM0.5 1.16478C0.5 0.174178 1.64562 -0.343426 2.38612 0.254325L2.48444 0.34281L12.1211 9.97945V19.2763L0.840476 7.99571C0.658807 7.81404 0.543478 7.57843 0.510081 7.32653L0.5 7.17373V1.16478Z" fill="#3B3A3A"/>
<path d="M12.121 9.97957L23.4016 21.2602C23.5833 21.4418 23.6986 21.6774 23.732 21.9293L23.742 22.0821V30.8975L12.4614 19.6169C12.2798 19.4352 12.1645 19.1996 12.1311 18.9477L12.121 18.7949V9.97957ZM12.121 21.6004L19.4334 28.9129C20.1339 29.6134 19.6898 30.7894 18.7435 30.8903L18.6114 30.8973H12.121V21.6004ZM14.0071 0.254325L14.1054 0.34281L23.4016 9.63897C23.5833 9.8206 23.6986 10.0562 23.732 10.3081L23.742 10.4609V19.2763L12.4614 7.99571C12.2798 7.81404 12.1645 7.57843 12.1311 7.32653L12.121 7.17373V1.16478C12.121 0.174178 13.2666 -0.343426 14.0071 0.254325Z" fill="#3B3A3A"/>
<path d="M69.8401 26.2574H74.6155V18.3387H78.605C82.9875 18.3387 85.7983 15.7396 85.7983 11.7197C85.7983 7.69996 82.9875 5.10071 78.605 5.10071H69.8401V26.2574ZM74.6155 14.2585V9.18099H78.1214C79.9349 9.18099 81.0229 10.148 81.0229 11.7197C81.0229 13.2914 79.9349 14.2585 78.1214 14.2585H74.6155ZM94.4376 26.4992C99.092 26.4992 102.477 23.1745 102.477 18.641C102.477 14.1074 99.092 10.7827 94.4376 10.7827C89.7226 10.7827 86.398 14.1074 86.398 18.641C86.398 23.1745 89.7226 26.4992 94.4376 26.4992ZM90.8107 18.641C90.8107 16.223 92.2614 14.5607 94.4376 14.5607C96.5835 14.5607 98.0342 16.223 98.0342 18.641C98.0342 21.0589 96.5835 22.7212 94.4376 22.7212C92.2614 22.7212 90.8107 21.0589 90.8107 18.641ZM110.119 26.4992C113.686 26.4992 116.103 24.2626 116.103 21.6331C116.103 15.4674 107.913 17.4622 107.913 15.0443C107.913 14.3795 108.608 13.9564 109.605 13.9564C110.633 13.9564 111.872 14.591 112.265 15.9812L115.831 14.5003C115.136 12.2939 112.567 10.7827 109.454 10.7827C106.099 10.7827 104.014 12.7775 104.014 15.1652C104.014 20.938 112.084 19.3361 112.084 21.7238C112.084 22.5701 111.298 23.1444 110.119 23.1444C108.427 23.1444 107.248 21.9657 106.885 20.5452L103.319 21.9354C104.105 24.2324 106.402 26.4992 110.119 26.4992ZM127.591 26.1064L127.289 22.2679C126.775 22.5399 126.11 22.6305 125.566 22.6305C124.478 22.6305 123.753 21.8448 123.753 20.4846V14.7118H127.44V11.0245H123.753V6.6119H119.31V11.0245H116.892V14.7118H119.31V21.0589C119.31 24.7463 121.819 26.4992 125.113 26.4992C126.02 26.4992 126.866 26.3482 127.591 26.1064ZM143.082 5.10071V13.3215H134.68V5.10071H129.905V26.2574H134.68V17.4018H143.082V26.2574H147.888V5.10071H143.082ZM158.487 26.4992C163.142 26.4992 166.527 23.1745 166.527 18.641C166.527 14.1074 163.142 10.7827 158.487 10.7827C153.772 10.7827 150.448 14.1074 150.448 18.641C150.448 23.1745 153.772 26.4992 158.487 26.4992ZM154.86 18.641C154.86 16.223 156.311 14.5607 158.487 14.5607C160.633 14.5607 162.084 16.223 162.084 18.641C162.084 21.0589 160.633 22.7212 158.487 22.7212C156.311 22.7212 154.86 21.0589 154.86 18.641ZM175.102 25.7738C176.765 25.7738 178.245 25.1995 179.031 24.2021V25.6529C179.031 27.3454 177.671 28.5243 175.586 28.5243C174.105 28.5243 172.805 27.7988 172.594 26.5596L168.544 27.1943C169.088 30.0656 172.019 32 175.586 32C180.271 32 183.384 29.2495 183.384 25.1693V11.0245H179.001V12.3242C178.185 11.3872 176.795 10.7827 175.012 10.7827C170.78 10.7827 168.12 13.6842 168.12 18.2783C168.12 22.8723 170.78 25.7738 175.102 25.7738ZM172.443 18.2783C172.443 16.0115 173.772 14.5607 175.828 14.5607C177.913 14.5607 179.243 16.0115 179.243 18.2783C179.243 20.5451 177.913 21.9958 175.828 21.9958C173.772 21.9958 172.443 20.5451 172.443 18.2783Z" fill="#3B3A3A"/>
</svg>
