<svg width="104" height="32" viewBox="0 0 104 32" fill="none" xmlns="http://www.w3.org/2000/svg">
<path d="M54.7659 12.6174C54.9722 12.6174 55.1677 12.7106 55.2976 12.8711C55.4113 13.0114 55.4643 13.19 55.4471 13.3678L55.4354 13.4438L53.1107 24.4081C53.022 24.8291 52.9768 25.2193 52.9768 25.5666L52.9787 25.6982L52.9851 25.8296C52.9866 25.8515 52.9883 25.8733 52.9903 25.8951L53.005 26.025C53.1182 26.8434 53.6298 27.563 55.5283 27.563C56.7054 27.563 57.859 27.1727 58.9571 26.4029C59.9887 25.6796 60.6094 24.86 60.8504 23.9019L60.8837 23.7571L63.1533 13.1586C63.216 12.8656 63.461 12.6501 63.7541 12.6208L63.8225 12.6174H67.542C67.7226 12.6174 67.8948 12.6888 68.0221 12.8142L68.0738 12.8712C68.1878 13.0113 68.2408 13.1899 68.2235 13.3676L68.2118 13.4437L64.5667 30.637C64.5045 30.9308 64.2593 31.1468 63.9658 31.1762L63.8972 31.1796H60.1778C59.971 31.1796 59.7755 31.086 59.6455 30.9253C59.5317 30.7845 59.4791 30.6055 59.4968 30.4275L59.5087 30.3514L59.5795 30.0217C58.0625 31.0044 56.0219 31.5006 53.4826 31.5006C51.7636 31.5006 50.3883 31.0408 49.3948 30.1339C48.3831 29.2107 47.87 27.9062 47.87 26.2571C47.87 25.7689 47.9216 25.2422 48.0234 24.688L48.0701 24.4489L50.3759 13.1648C50.4363 12.869 50.6823 12.6506 50.9775 12.6209L51.0464 12.6174H54.7659ZM78.0651 12.2953C79.5266 12.2953 81.2806 12.6751 83.282 13.425L83.5564 13.5296C83.7416 13.6011 83.8863 13.7493 83.9534 13.9359C84.0123 14.0991 84.0067 14.2775 83.9395 14.4355L83.9069 14.5019L82.3261 17.3273C82.2281 17.5024 82.0582 17.6257 81.8616 17.6645C81.6651 17.7043 81.4607 17.6544 81.3036 17.5294C80.2029 16.6569 79.0583 16.2328 77.8048 16.2328C77.0071 16.2328 76.3168 16.4071 75.7527 16.7507C75.1453 17.1211 75.0675 17.5037 75.0675 17.7959C75.0675 18.0947 75.1803 18.3374 75.4224 18.5598L75.4915 18.6205L75.5755 18.6886L75.6758 18.7639L75.7938 18.8465L75.9311 18.9365L76.089 19.0338C76.1172 19.0506 76.1462 19.0678 76.1762 19.0852L76.3677 19.1936L76.5835 19.3094L76.8248 19.4327L77.0933 19.5634L79.8434 20.8522C80.7579 21.2775 81.4586 21.8437 81.9241 22.5343C82.3968 23.2357 82.6363 24.0124 82.6363 24.8432C82.6363 26.9132 81.7582 28.5717 80.0266 29.7723C78.3737 30.9185 76.262 31.4997 73.7505 31.4997C71.5499 31.4997 69.5444 31.0181 67.79 30.0689C67.6228 29.9783 67.5009 29.8226 67.4532 29.6387C67.4123 29.481 67.4292 29.3149 67.4991 29.1698L67.5385 29.0992L69.3797 26.2094C69.4864 26.0416 69.6609 25.9288 69.8576 25.8999C70.0535 25.8712 70.2538 25.9292 70.404 26.059C70.8257 26.4229 71.4584 26.7686 72.285 27.0859C73.1069 27.4021 73.8063 27.5622 74.3643 27.5622C75.3168 27.5622 76.1028 27.3459 76.7001 26.9192C77.2405 26.5331 77.4922 26.0469 77.4922 25.3891C77.4922 25.2274 77.456 24.9784 77.1422 24.6853L77.0739 24.6242L76.9909 24.5554L76.8916 24.479L76.7746 24.3947L76.6387 24.3025L76.4822 24.2023L76.3039 24.094L76.1023 23.9776L75.876 23.8529L75.6236 23.7199L75.3437 23.5785L72.7303 22.3306C71.8113 21.8792 71.1111 21.295 70.6423 20.5913C70.1652 19.8753 69.9231 19.0968 69.9231 18.2775C69.9231 16.4487 70.7506 14.964 72.3826 13.8649C73.9291 12.8235 75.8411 12.2953 78.0651 12.2953ZM45.3922 12.2978C45.4872 12.2978 45.5911 12.3009 45.7043 12.307L45.9432 12.3235C45.9852 12.3269 46.0281 12.3307 46.0722 12.3348L46.3494 12.3637L46.6528 12.401C46.7056 12.408 46.7594 12.4152 46.8145 12.4229L47.1583 12.4729L47.5297 12.5315C47.7265 12.5637 47.8994 12.6801 48.0034 12.8503C48.0942 12.9993 48.1244 13.1764 48.0896 13.3456L48.0707 13.4174L47.0663 16.5318C46.9998 16.7378 46.8399 16.9003 46.635 16.9698C46.4302 17.0396 46.2043 17.0082 46.026 16.8849C45.3934 16.4481 44.669 16.2358 43.8114 16.2358C42.7208 16.2358 41.6944 16.6711 40.6735 17.5668C39.6902 18.4294 39.0743 19.4205 38.7953 20.5914L38.754 20.7777L36.7268 30.6348C36.666 30.9302 36.4202 31.1483 36.1253 31.1779L36.0564 31.1814H32.523C32.3173 31.1814 32.1227 31.089 31.9927 30.9297C31.8789 30.7903 31.8253 30.6127 31.8413 30.4356L31.8524 30.3598L35.3673 13.1665C35.4277 12.8706 35.6737 12.6522 35.9688 12.6225L36.0378 12.6191H39.5712C39.7766 12.6191 39.9712 12.7114 40.1012 12.8705C40.2149 13.0095 40.2687 13.1871 40.253 13.3641L40.242 13.4398L40.1204 14.0381C41.6417 12.882 43.4073 12.2978 45.3922 12.2978ZM102.096 13.77C100.998 12.792 99.4648 12.2961 97.54 12.2961C96.3477 12.2961 95.1317 12.5239 93.9255 12.9735C93.4175 13.1627 92.9544 13.3746 92.5382 13.6079L93.8614 6.3776C93.898 6.17766 93.844 5.97208 93.7141 5.81604C93.5839 5.65998 93.3914 5.56982 93.1882 5.56982H89.6735C89.3472 5.56982 89.0664 5.80007 89.0023 6.11989L84.1485 30.3606C84.1083 30.5618 84.1602 30.7704 84.2902 30.9289C84.4204 31.0876 84.6146 31.1796 84.8196 31.1796H88.4274C88.7524 31.1796 89.0324 30.9509 89.0979 30.6327L91.6769 18.0638C92.1827 17.6008 92.8389 17.1838 93.6307 16.8218C94.4848 16.4316 95.2997 16.2337 96.0523 16.2337C98.0494 16.2337 98.5759 17.0705 98.6885 18.0163L98.7024 18.1589C98.7061 18.2067 98.7089 18.2546 98.7109 18.3026L98.7147 18.4469C98.715 18.4709 98.7152 18.495 98.7152 18.519C98.7152 18.8238 98.676 19.1725 98.599 19.5536L96.3858 30.3575C96.3446 30.5588 96.3961 30.768 96.5261 30.9273C96.6561 31.0866 96.8508 31.1792 97.0564 31.1792H100.702C101.027 31.1792 101.307 30.9506 101.372 30.632L103.586 19.8245C103.718 19.1626 103.785 18.5289 103.785 17.9406C103.785 16.2367 103.258 14.8721 102.218 13.8821L102.096 13.77Z" fill="#C95228"/>
<path d="M28.1107 10.6871C27.3387 9.75146 26.2486 9.17255 25.0412 9.05691C23.8336 8.94113 22.6536 9.30281 21.7179 10.0748C21.2267 10.4801 20.835 10.9736 20.5559 11.5252L19.4594 11.0913C19.756 10.664 20.1448 10.2169 20.5899 9.80246C21.5123 8.94331 22.5255 8.36482 23.3697 8.21521C23.4259 8.20523 23.4755 8.17268 23.5069 8.12505C23.5632 8.03985 23.6519 7.94248 23.7301 7.85658C23.901 7.66892 24.0624 7.49167 23.9077 7.31686C23.8681 7.27213 23.8113 7.24673 23.752 7.24673C23.7478 7.24673 23.7435 7.24685 23.7393 7.24711C22.2736 7.33642 20.1924 8.02401 18.7468 9.68597C18.482 9.99034 18.2564 10.2715 18.0655 10.5397L13.794 8.8494C13.5524 8.53898 13.2129 8.30267 13.0124 8.2848C12.98 8.28167 12.9375 8.29248 12.8882 8.31244C12.9932 8.04895 13.0963 7.73536 13.1644 7.35846C13.2914 6.65565 13.3082 6.06634 13.5097 6.01999C13.8821 5.93439 13.8417 6.12471 13.9163 5.85237C14.0275 5.44631 13.4962 4.96537 13.6512 4.61601C13.7656 4.35818 13.8779 4.17188 13.9792 4.03255C14.356 4.10437 14.6873 4.16433 15.0106 4.37584C15.3507 4.06078 15.6349 3.59178 15.5715 3.23876C15.5062 2.87512 14.803 2.89255 14.9481 2.23822C15.0433 1.80834 15.6509 1.67765 16.0359 1.68559C16.2494 1.68977 16.1798 0.765045 15.9249 0.618423C15.6031 0.433431 12.7807 -0.54609 11.829 0.41855C11.2969 0.957906 11.0414 2.39398 11.6491 2.91426C11.7183 2.97347 11.7856 3.02812 11.8522 3.08076C11.7655 3.13207 11.6708 3.1753 11.5207 3.19039C11.1902 3.22367 11.0067 3.07921 10.8639 3.19619C10.7192 3.31477 10.9677 3.46158 10.8559 3.65483C10.6516 4.00797 10.4636 3.52467 9.79269 4.18864C9.48087 4.49725 9.40293 5.08813 9.09485 5.82845C8.59985 7.01799 8.16573 6.78918 7.59581 8.62127C7.45618 9.07013 8.05198 8.84952 9.15718 9.39075C8.61835 10.4109 8.2693 11.3773 8.43411 11.9817C8.63706 12.7259 10.0781 13.8859 10.8259 14.5469C10.8763 14.5914 10.9298 14.6481 10.9864 14.7139C8.92853 16.7168 5.34308 18.1888 0.559306 21.7628C0.333985 22.1268 0.80838 22.7302 1.0198 22.7725C3.83431 20.3978 7.21963 19.6344 10.7216 19.8855C10.2597 20.1743 9.85486 20.4166 9.52148 20.6136L9.69776 20.163L8.49563 20.5348L2.93903 22.2823L2.27594 23.0475L2.59488 23.9419L3.5925 24.1148L8.99756 21.9534L9.04893 21.822C10.7964 21.3275 11.12 21.7899 11.3141 22.3209L10.4571 23.2352C8.97196 22.6555 7.22383 22.8738 5.9093 23.9585C3.97802 25.5521 3.70328 28.4199 5.297 30.3511C6.19371 31.4378 7.49377 32 8.80349 32C9.82138 32 10.8452 31.6603 11.6898 30.9634C12.6254 30.1914 13.2043 29.1013 13.3199 27.8938C13.4214 26.8348 13.1556 25.7969 12.568 24.9265L14.0022 23.1879C14.0673 23.2074 14.1279 23.2138 14.183 23.205C14.3871 23.1722 14.6906 22.9436 15.0374 22.6019C15.1042 22.7284 15.2393 22.8088 15.3866 22.7948C15.5836 22.7762 15.7277 22.5964 15.7085 22.3931C15.7018 22.3224 15.6754 22.2589 15.6366 22.2059C16.2865 22.3069 16.8143 22.3282 16.8579 22.1806C17.0371 21.575 16.7004 21.3136 16.2931 21.136C16.5202 20.8369 16.7401 20.5305 16.9402 20.235C17.6601 19.5605 18.1927 18.9339 18.2778 18.5503C18.455 17.7516 17.7875 16.4967 17.1486 15.7748C17.1951 15.295 17.2513 14.7447 17.305 14.1964C17.3938 14.614 17.5754 15.1358 17.7673 15.6845C17.8791 16.004 17.9946 16.3344 18.09 16.6418C18.113 16.7159 18.1754 16.7711 18.2518 16.7848C18.2641 16.7869 18.2764 16.788 18.2887 16.788C18.3525 16.788 18.4136 16.7586 18.4534 16.707C18.4897 16.6599 18.5343 16.6214 18.5814 16.5807C18.7146 16.4657 18.9158 16.2919 18.7807 15.9244C18.1987 14.3409 18.6398 12.9917 18.8518 12.3433C18.878 12.2629 18.9007 12.1936 18.9189 12.1323C18.9282 12.1012 18.9393 12.0691 18.9505 12.037L20.2 12.4825C20.147 12.698 20.1093 12.9189 20.0877 13.1439C19.9721 14.3514 20.3336 15.5315 21.1056 16.4671C21.8776 17.4027 22.9677 17.9816 24.1751 18.0973C24.3227 18.1114 24.4699 18.1184 24.6163 18.1184C25.6674 18.1184 26.6772 17.7571 27.4984 17.0794C28.4339 16.3075 29.0129 15.2173 29.1286 14.0099C29.2442 12.8024 28.8827 11.6222 28.1107 10.6866L28.1107 10.6871ZM14.0998 11.3364C13.5869 11.5162 13.1245 11.7625 12.8079 12.0757C12.3716 11.6524 12.0305 11.3417 11.938 11.1743C11.9739 11.1717 12.0057 11.1614 12.0331 11.1414C12.1798 11.0343 12.0493 10.7735 12.2365 10.6294C12.5428 10.3937 13.0853 10.9423 13.4382 10.7252C13.5984 10.6266 13.6889 10.3888 13.6881 10.1613L14.5862 10.4815L14.0998 11.3364ZM10.3572 20.9227C10.675 20.7313 11.0359 20.5094 11.4304 20.2582C11.6315 20.5642 11.9034 20.9651 12.2031 21.3727L11.827 21.7739C11.5871 21.3154 11.189 20.9439 10.3572 20.9227ZM12.3824 23.3078C12.4217 23.3017 12.4621 23.2941 12.5047 23.2835C12.7487 23.2226 13.0837 23.0669 13.4701 22.8466C13.4887 22.863 13.5072 22.879 13.5255 22.8945L12.2205 24.4766C12.0715 24.3057 11.9124 24.1486 11.7445 24.0054L12.3824 23.3078ZM11.3398 25.365C11.3647 25.3951 11.3882 25.426 11.4119 25.4568L10.0889 27.0608C10.0384 26.8978 9.95648 26.7415 9.8411 26.6017C9.76528 26.5098 9.67905 26.4319 9.58666 26.3655L10.9019 24.927C11.0585 25.057 11.2056 25.2024 11.3398 25.365ZM12.0779 27.7749C11.994 28.6506 11.5742 29.4412 10.8957 30.001C9.49507 31.1568 7.41539 30.9575 6.25976 29.557C5.10403 28.1564 5.30327 26.0767 6.70382 24.9209C7.31639 24.4154 8.05854 24.1693 8.79687 24.1693C9.03628 24.1693 9.27523 24.1953 9.50919 24.2467L7.51484 26.3743L7.71732 26.6562C7.35482 27.1432 7.35478 27.8311 7.75845 28.3203C8.23302 28.8954 9.08395 28.9769 9.65905 28.5023C9.83153 28.36 9.95865 28.1835 10.0407 27.991L11.7253 25.9486C12.0149 26.5059 12.1392 27.1349 12.0779 27.7749ZM27.8865 13.8913C27.8027 14.7669 27.3829 15.5574 26.7044 16.1173C26.0259 16.6772 25.1704 16.9392 24.2944 16.8555C23.4188 16.7715 22.6283 16.3517 22.0684 15.6733C21.5086 14.9948 21.2464 14.1389 21.3303 13.2633C21.3419 13.1421 21.3606 13.0228 21.3849 12.9052L23.2586 13.5732C23.2575 13.8774 23.3584 14.1836 23.5671 14.4366C24.0417 15.0117 24.8926 15.0932 25.4677 14.6186C26.0428 14.1441 26.1243 13.2931 25.6498 12.718C25.1752 12.1429 24.3243 12.0614 23.7492 12.536C23.6819 12.5915 23.6221 12.6525 23.5685 12.7172L21.7236 11.9872C21.9215 11.6283 22.1868 11.306 22.5125 11.0373C23.108 10.5459 23.8403 10.2838 24.6025 10.2838C24.7087 10.2838 24.8155 10.289 24.9225 10.2992C25.7981 10.383 26.5886 10.8029 27.1485 11.4814C27.7083 12.1598 27.9704 13.0157 27.8865 13.8913Z" fill="#555555"/>
</svg>
