<svg height="32" viewBox="0 0 218 32" fill="none" xmlns="http://www.w3.org/2000/svg">
<path d="M145.682 27.1324C144.798 28.6771 142.849 30.7057 139.568 30.7057C136.668 30.7057 133.188 29.0327 133.188 22.2901V11.0587H136.546V21.6946C136.546 25.3478 137.617 27.8079 140.667 27.8079C142.927 27.8079 144.491 26.1833 145.097 24.6387C145.286 24.121 145.406 23.4812 145.406 22.8499V11.0587H148.765V25.028C148.765 27.0061 148.798 28.757 148.92 30.2722H145.945L145.759 27.1324H145.682ZM68.1143 28.3109C66.8938 29.8555 64.9872 30.6952 62.7733 30.6952C58.9916 30.6952 56.7336 27.8332 56.7336 24.7397C56.7336 19.7038 61.0855 17.2752 67.6977 17.3215V17.048C67.6977 16.0168 67.1568 14.5521 64.2927 14.5521C62.3861 14.5521 60.3574 15.2255 59.1368 16.0168L58.0657 12.1236C59.3683 11.366 61.9231 10.419 65.326 10.419C71.5551 10.419 73.5375 14.2322 73.5375 18.7883V25.5309C73.5375 27.3955 73.6132 29.1821 73.8005 30.2491H68.5668V30.2596L68.228 28.3109H68.1143ZM35.0411 20.3351C35.0411 27.4312 30.1925 30.6952 25.1923 30.6952C19.7271 30.6952 15.5267 26.9619 15.5267 20.6886C15.5267 14.4153 19.5041 10.4064 25.4975 10.4064C31.2173 10.419 35.0411 14.5058 35.0411 20.333V20.3351ZM130.589 20.4929C130.589 27.5912 125.849 30.6952 121.386 30.6952C116.386 30.6952 112.528 26.882 112.528 20.8149C112.528 14.3795 116.573 10.6126 121.695 10.6126C126.994 10.6126 130.589 14.6216 130.589 20.4929ZM165.68 26.9262C164.645 29.0664 162.397 30.6931 159.375 30.6931C154.903 30.6931 151.467 26.7662 151.467 20.9285C151.433 14.5395 155.244 10.6126 159.752 10.6126C162.584 10.6126 164.489 11.9973 165.326 13.5567H165.402V2.08545H168.776V25.3015C168.776 27.0061 168.807 28.9527 168.927 30.2596H165.909L165.756 26.9262H165.68ZM103.968 29.5483C103.086 30.0281 101.135 30.6594 98.656 30.6594C93.0813 30.6594 89.4596 26.7326 89.4596 20.8591C89.4596 14.9414 93.357 10.6589 99.3841 10.6589C101.369 10.6589 103.13 11.1724 104.045 11.6543L103.286 14.3564C102.48 13.8766 101.223 13.441 99.3841 13.441C95.1416 13.441 92.852 16.6923 92.852 20.7013C92.852 25.1416 95.6045 27.8774 99.2621 27.8774C101.169 27.8774 102.438 27.3618 103.383 26.9262L103.968 29.5483ZM1.50275 24.9817C2.5697 25.6551 4.78566 26.4464 6.50288 26.4464C8.25377 26.4464 8.9819 25.8171 8.9819 24.8217C8.9819 23.8242 8.4095 23.3549 6.2272 22.5995C2.37188 21.2484 0.881941 19.064 0.917716 16.7597C0.917716 13.1569 3.89338 10.4064 8.52103 10.4064C10.7012 10.4064 12.6415 10.922 13.7863 11.5175L12.7509 15.6843C11.9155 15.2045 10.3035 14.5753 8.70622 14.5753C7.29625 14.5753 6.49236 15.1708 6.49236 16.1662C6.49236 17.0816 7.21839 17.5509 9.51222 18.3885C13.0603 19.6575 14.5586 21.5241 14.5902 24.3756C14.5902 27.9805 11.8355 30.6489 6.49236 30.6489C4.04701 30.6489 1.87734 30.0849 0.452637 29.2958L1.50064 24.9817H1.50275ZM42.8948 30.2827H37.0908V17.0459H37.1013C37.1013 14.6321 37.0235 12.5613 36.9477 10.8525H41.9941L42.2572 13.5104H42.3666C43.6307 11.5605 45.8049 10.3933 48.1286 10.4169C51.9523 10.4169 54.8185 13.0411 54.8185 18.7547V30.2596H49.0103V19.5102C49.0103 17.0122 48.1749 15.3076 46.0683 15.3076C44.4605 15.3076 43.5114 16.4629 43.1284 17.572C42.9727 17.9276 42.8948 18.5253 42.8948 19.0872V30.2827ZM82.395 30.2722H76.5868V17.2416C76.5868 14.3795 76.511 12.515 76.4353 10.8525H81.4354L81.6248 14.4258H81.7784C82.7359 11.608 85.0298 10.419 86.8228 10.419C87.3636 10.419 87.6287 10.419 88.0475 10.499V16.1767C87.5329 16.0717 87.0092 16.0181 86.4839 16.0168C84.3437 16.0168 82.8896 17.2058 82.5066 19.0745C82.4266 19.4744 82.3929 19.9437 82.3929 20.4256V30.2722H82.395ZM109.732 30.2596H106.371V2.08545H109.729V30.2596H109.732ZM115.923 20.6992C115.923 24.9017 118.246 28.0836 121.542 28.0836C124.747 28.0836 127.161 24.948 127.161 20.6192C127.161 17.3678 125.595 13.2368 121.617 13.2368C117.64 13.2368 115.923 17.0459 115.923 20.6992ZM165.413 18.8683C165.413 18.4348 165.383 17.8371 165.259 17.4015C164.765 15.1813 162.934 13.3505 160.411 13.3505C156.942 13.3505 154.87 16.5198 154.87 20.7686C154.87 24.6618 156.698 27.8647 160.335 27.8647C162.593 27.8647 164.653 26.3201 165.259 23.698C165.371 23.2161 165.413 22.7468 165.413 22.187V18.8683ZM67.885 21.0885C64.8335 21.0548 62.4639 21.7977 62.4639 24.1441C62.4639 25.6909 63.4551 26.4464 64.7557 26.4464C66.2077 26.4464 67.3862 25.451 67.7755 24.2241C67.8513 23.9042 67.885 23.5507 67.885 23.1929V21.0885ZM21.5201 20.5392C21.5201 23.8684 22.8543 26.3769 25.3439 26.3769C27.6019 26.3769 29.0456 24.0284 29.0456 20.5392C29.0456 17.6414 27.9786 14.7015 25.3418 14.7015C22.5429 14.7015 21.5201 17.6751 21.5201 20.5392Z" fill="#3B3A3A"/>
<path d="M214.92 14.3796C213.642 12.7562 211.911 11.5484 209.947 10.9094V10.7831C209.947 4.8423 205.3 0 199.572 0C193.84 0 189.191 4.83178 189.191 10.7852V10.9325C184.995 12.3067 181.931 16.3935 181.931 21.2148C181.931 27.1556 186.581 32 192.31 32C195.06 31.994 197.691 30.8742 199.601 28.896C201.508 30.8752 204.137 31.9954 206.885 32C212.603 32 217.266 27.1682 217.266 21.2148C217.266 18.7316 216.424 16.303 214.92 14.3796ZM206.885 29.2727C202.611 29.2727 199.13 25.6572 199.13 21.2127C199.141 20.4763 198.555 19.8693 197.819 19.8532C197.464 19.8587 197.126 20.0055 196.879 20.2611C196.633 20.5166 196.499 20.8598 196.506 21.2148C196.506 23.2287 197.047 25.1185 197.971 26.7326C196.534 28.3517 194.474 29.2805 192.31 29.2853C188.033 29.2853 184.551 25.6678 184.551 21.2253C184.551 16.785 188.033 13.1674 192.31 13.1674C193.236 13.1674 194.136 13.34 194.999 13.6599C195.01 13.6599 195.018 13.6704 195.029 13.6704C195.327 13.7756 195.748 13.9797 195.879 14.0934C196.137 14.329 196.482 14.447 196.83 14.419C197.179 14.3911 197.5 14.2199 197.718 13.9461C198.191 13.3726 198.128 12.5278 197.575 12.031C197.002 11.5281 196.11 11.1851 195.891 11.1051C194.751 10.6723 193.54 10.4512 192.32 10.4527C192.154 10.4527 191.99 10.4527 191.823 10.4632C192 6.1702 195.405 2.73787 199.583 2.73787C203.857 2.73787 207.337 6.35328 207.337 10.7978C207.345 13.3792 206.136 15.8135 204.075 17.3679C203.488 17.8165 203.352 18.6452 203.766 19.2577C204.019 19.6238 204.429 19.8301 204.837 19.8301C205.1 19.8301 205.363 19.7501 205.597 19.5775C207.554 18.1101 208.96 16.0251 209.585 13.6599C212.582 14.8152 214.663 17.8245 214.663 21.2253C214.652 25.6572 211.172 29.2727 206.885 29.2727Z" fill="#3B3A3A"/>
</svg>
