<svg width="119" height="32" viewBox="0 0 119 32" fill="none" xmlns="http://www.w3.org/2000/svg">
<path d="M28.2274 21.9274L28.2108 21.8747L38.7104 12.2625V7.63108H21.8655V12.2625H31.927L31.9436 12.3069L21.5465 21.9274V26.5588H38.8796V21.9274H28.2274ZM49.221 7.19016C47.278 7.19016 45.6945 7.48315 44.4705 8.06928C43.3304 8.58002 42.37 9.42162 41.7139 10.4848C41.0862 11.555 40.6921 12.7458 40.5574 13.9792L45.6686 14.6975C45.8535 13.6084 46.2233 12.8366 46.7779 12.3817C47.3454 11.9536 48.0315 11.7161 48.7381 11.6996L48.9743 11.7023C50.0118 11.7023 50.7643 11.9796 51.2316 12.5343C51.6952 13.0889 51.9308 13.8571 51.9308 14.8694V15.3741H47.0164C44.5149 15.3741 42.7178 15.9288 41.6252 17.0381C40.5324 18.1474 39.987 19.6117 39.9889 21.431C39.9889 23.2946 40.5343 24.6813 41.6252 25.5909C42.716 26.5006 44.0878 26.9526 45.7407 26.9472C47.7911 26.9472 49.3684 26.2417 50.4719 24.831C51.124 23.9641 51.5895 22.9718 51.8392 21.9163H52.0249L52.7293 26.5477H57.3606V14.8194C57.3606 12.3956 56.7221 10.5181 55.4445 9.18691C54.1669 7.85571 52.0923 7.19016 49.221 7.19016ZM50.8409 21.6473C50.1058 22.2602 49.1434 22.5652 47.9454 22.5652C46.9581 22.5652 46.2722 22.3924 45.8877 22.0466C45.7003 21.8831 45.5513 21.6802 45.4511 21.4526C45.3509 21.2249 45.3021 20.978 45.3081 20.7294C45.2972 20.4948 45.334 20.2606 45.4165 20.0408C45.499 19.821 45.6253 19.6203 45.7879 19.4509C45.9636 19.286 46.171 19.1585 46.3974 19.0761C46.5672 19.0142 46.7451 18.9787 46.9249 18.9703L51.939 18.9711V19.29C51.9487 19.7408 51.8547 20.1878 51.6646 20.5966C51.4741 21.0053 51.1924 21.3648 50.8409 21.6473ZM85.3655 7.63108H79.8939V26.5616H85.3655V7.63108ZM117.671 7.63108C116.126 7.63108 114.907 8.17648 114.016 9.26735C113.377 10.0512 112.89 11.2096 112.558 12.7423H112.397L111.681 7.63108H107.008V26.5588H112.48V16.8523C112.48 15.6284 112.767 14.69 113.34 14.0374C113.913 13.3847 114.97 13.0584 116.512 13.0584H118.589V7.63108H117.671ZM101.578 8.24955C100.301 7.48965 98.6891 7.11064 96.7444 7.11247C93.6826 7.11247 91.2864 7.98424 89.556 9.72771C87.8251 11.4712 86.9601 13.8747 86.9601 16.9383C86.916 18.7904 87.3204 20.6258 88.1388 22.288C88.8879 23.7691 90.0544 24.9984 91.4944 25.8239C92.9436 26.6614 94.6678 27.0811 96.6668 27.083C98.3953 27.083 99.8392 26.8167 100.998 26.2843C102.088 25.8061 103.037 25.0565 103.755 24.1072C104.438 23.1753 104.946 22.1265 105.252 21.0122L100.538 19.6921C100.34 20.4167 99.9575 21.0777 99.429 21.6112C98.8961 22.1437 98.004 22.41 96.7526 22.41C95.2641 22.41 94.1548 21.9838 93.4246 21.1315C92.8947 20.5158 92.5621 19.6367 92.4152 18.4969H105.325C105.378 17.9644 105.405 17.5179 105.405 17.1573V15.9787C105.436 14.3953 105.109 12.8253 104.449 11.3861C103.83 10.0751 102.829 8.98172 101.578 8.24955ZM96.5863 11.6246C98.805 11.6246 100.063 12.7164 100.36 14.8999H92.5121C92.6367 14.1713 92.9388 13.4847 93.3912 12.9004C94.1107 12.048 95.1754 11.6228 96.5863 11.6246ZM82.6891 0.00177578C82.2775 -0.0122237 81.8673 0.0566662 81.4828 0.204356C81.0983 0.352046 80.7478 0.575515 80.451 0.861488C80.1592 1.15021 79.9298 1.49652 79.7786 1.87845C79.6575 2.184 79.5883 2.50699 79.5732 2.83417L79.572 3.08012C79.5575 3.49332 79.6278 3.90513 79.7795 4.28985C79.9308 4.67456 80.1601 5.02395 80.4525 5.31617C80.7449 5.60839 81.0944 5.83719 81.4794 5.98831C81.7874 6.10922 82.1124 6.17833 82.4416 6.19339L82.6891 6.19452C83.0998 6.21004 83.509 6.13988 83.891 5.98856C84.2731 5.83719 84.6193 5.60795 84.9078 5.31539C85.1943 5.01983 85.4173 4.66946 85.5647 4.28533C85.6827 3.97802 85.7497 3.65418 85.7641 3.32645L85.765 3.08012C85.7839 2.67144 85.7175 2.2633 85.5696 1.88177C85.4217 1.50024 85.1963 1.1537 84.9073 0.864281C84.6178 0.574861 84.2716 0.348918 83.8901 0.200886C83.509 0.0528538 83.1007 -0.0140095 82.692 0.00455178L82.6891 0.00177578ZM71.3853 7.11248C69.5216 7.11248 68.0239 7.69765 66.8927 8.86798C66.0549 9.73508 65.4401 11.0293 65.0484 12.7506H64.8738L64.1582 7.63942H59.4852V32H64.9567V21.9663H65.1565C65.3233 22.6352 65.5575 23.2857 65.8552 23.9075C66.3182 24.9205 67.0775 25.7695 68.0326 26.3425C69.0227 26.8829 70.1383 27.1518 71.2661 27.1218C73.557 27.1218 75.301 26.2297 76.499 24.4456C77.6971 22.6614 78.2964 20.1719 78.2964 16.9771C78.2964 13.8913 77.7165 11.4758 76.5577 9.73047C75.3984 7.98516 73.6743 7.11248 71.3853 7.11248ZM71.94 20.8292C71.3445 21.692 70.4352 22.1521 69.2116 22.2096L68.9446 22.2158C68.3846 22.2417 67.8261 22.1337 67.316 21.9008C66.8055 21.6678 66.358 21.3167 66.0108 20.8763C65.3024 19.9871 64.9495 18.7696 64.9514 17.2239V16.8634C64.9514 15.2937 65.3044 14.0919 66.0108 13.2581C66.7167 12.4242 67.6952 12.012 68.9446 12.0212C70.3279 12.0212 71.3325 12.4603 71.9594 13.3385C72.5863 14.2167 72.8996 15.4416 72.8996 17.0131C72.9034 18.6383 72.5853 19.9103 71.9453 20.8292H71.94Z" fill="#201515"/>
<path d="M19.4305 21.9274H0.5V26.5643H19.4305V21.9274Z" fill="#FF4F00"/>
</svg>
