<svg width="16" height="16" viewBox="0 0 16 16" fill="none" xmlns="http://www.w3.org/2000/svg">
<path d="M3.92251 1.69995C5.15101 1.69995 6.14501 2.69745 6.14501 3.92245V6.14495H3.92251C2.69401 6.14495 1.70001 5.14745 1.70001 3.92245C1.70001 2.69395 2.69751 1.69995 3.92251 1.69995Z" stroke="#12AF22" stroke-width="2" stroke-linecap="round" stroke-linejoin="round"/>
<path d="M3.92251 9.85498H6.14501V12.0775C6.14501 13.306 5.14751 14.3 3.92251 14.3C2.69401 14.3 1.70001 13.3025 1.70001 12.0775C1.70001 10.849 2.69751 9.85498 3.92251 9.85498Z" stroke="#12AF22" stroke-width="2" stroke-linecap="round" stroke-linejoin="round"/>
<path d="M12.0775 1.69995C13.306 1.69995 14.3 2.69745 14.3 3.92245C14.3 5.15095 13.3025 6.14495 12.0775 6.14495H9.85501V3.92245C9.85501 2.69395 10.8525 1.69995 12.0775 1.69995Z" stroke="#12AF22" stroke-width="2" stroke-linecap="round" stroke-linejoin="round"/>
<path d="M6.14502 6.14502H7.35252H9.85502V9.85502H7.41202H7.00952H6.14502V6.14502Z" stroke="#12AF22" stroke-width="2" stroke-linecap="round" stroke-linejoin="round"/>
<path d="M9.85501 9.85498H12.0775C13.306 9.85498 14.3 10.8525 14.3 12.0775C14.3 13.306 13.3025 14.3 12.0775 14.3C10.849 14.3 9.85501 13.3025 9.85501 12.0775V9.85498Z" stroke="#12AF22" stroke-width="2" stroke-linecap="round" stroke-linejoin="round"/>
</svg>
