<svg width="200" height="197" viewBox="0 0 200 197" fill="none" xmlns="http://www.w3.org/2000/svg">
<path d="M150.283 100.693C166.739 100.693 183.283 100.693 199.913 100.605C192.686 106.92 185.372 113.236 178.145 119.551C168.394 116.656 158.729 113.937 148.977 111.218C147.845 116.042 146.104 120.603 143.666 124.901C152.199 129.638 160.818 134.286 169.264 139.198C169.874 148.846 170.657 158.407 171.354 168.055C160.035 156.565 148.803 145.25 137.397 133.672C137.048 134.286 136.439 134.9 135.916 135.427C147.236 146.829 158.555 158.232 169.874 169.546C160.296 168.845 150.805 168.055 141.228 167.354C136.7 159.196 131.998 150.776 127.471 142.443C122.943 145.426 117.893 147.794 112.32 149.11C114.758 157.705 117.283 166.476 119.547 175.072C113.278 182.352 107.009 189.72 100.74 197C100.827 181.475 100.827 166.126 101.001 150.776H98.6504C98.6504 166.126 98.7374 181.563 98.7374 197C92.4684 189.72 86.1995 182.352 79.9304 175.072C82.3684 166.476 84.8933 157.705 87.3313 149.11C81.3234 147.618 75.9252 145.163 70.9622 141.654C66.2604 150.25 61.6457 158.495 56.9439 167.09C47.3662 167.792 37.7013 168.582 28.2978 169.283C39.791 157.793 51.4585 145.952 63.0388 134.462C62.3422 133.848 61.8197 133.322 61.4715 132.708C49.8911 144.461 38.4849 156.039 26.9046 167.792C27.6012 158.144 28.3849 148.583 28.9944 138.935C37.8755 133.935 46.7567 129.024 55.5508 124.024C53.4611 120.34 51.9808 116.305 50.8489 112.095C41.2712 114.99 31.5194 117.709 21.7675 120.516C14.5407 114.2 7.22682 107.885 0 101.57C16.4562 101.57 32.9996 101.658 49.4559 101.658C49.3688 101.044 49.3687 100.254 49.3687 99.6403C49.3687 99.0263 49.3688 98.5 49.4559 97.8861C32.9996 97.8861 16.4562 97.9737 0 97.9737C7.22682 91.6585 14.5407 85.3433 21.7675 79.0281C31.5194 81.9225 41.1841 84.6416 50.8489 87.3606C52.3291 81.6594 54.6801 76.309 57.9017 71.4849L57.2921 72.0989C48.411 67.0993 39.704 62.1875 30.8229 57.1879C30.1263 47.5397 29.3427 37.8037 28.6461 28.3308C40.4877 40.0842 52.2421 52.1006 63.9966 64.0294C64.519 63.4154 65.1284 62.8892 65.7379 62.4506C53.8093 50.5218 42.142 38.7685 30.1263 26.8397C39.704 27.5414 49.1946 28.3308 58.7723 28.9448C63.7353 37.8914 68.6113 46.8379 73.6613 55.6968C73.1389 56.0476 72.7035 56.5739 72.2682 56.9247C76.7958 53.9425 81.8459 51.7498 87.2443 50.3464C84.6322 40.9612 81.933 31.4884 79.408 21.9279C85.6771 14.6478 91.946 7.28005 98.215 0C98.128 16.402 98.128 32.6287 97.9538 48.8553C98.5633 48.7676 99.1729 48.7676 99.7824 48.7676C100.653 48.7676 101.524 48.7676 102.395 48.8553C102.307 32.6287 102.307 16.402 102.133 0C108.402 7.28005 114.671 14.6478 120.94 21.9279C118.328 31.4884 115.629 41.049 112.93 50.4341C117.893 51.8375 122.421 53.7671 126.513 56.3985C131.476 47.4519 136.352 38.5054 141.315 29.6465C150.893 28.9448 160.383 28.2431 169.961 27.5414C158.119 39.2947 146.539 50.9604 134.785 62.8015C135.307 63.4154 135.916 63.9417 136.352 64.5557C148.193 52.6269 159.774 40.8736 171.441 28.9448C170.744 38.5931 169.961 48.329 169.351 57.9773C160.47 62.9769 151.589 67.8887 142.795 72.8882C145.668 77.4492 147.845 82.5365 149.064 88.0623C158.816 85.1679 168.481 82.4488 178.232 79.642C185.459 85.9573 192.773 92.2725 200 98.5877C183.37 98.5 166.913 98.5 150.37 98.5V100.693H150.283Z" fill="#E9B32A"/>
</svg>
