<svg width="110" height="40" viewBox="0 0 137 40" fill="none" xmlns="http://www.w3.org/2000/svg">
<path d="M24.1845 15.3024C24.2804 12.4824 24.3787 9.66012 24.4747 6.8378C24.5051 6.34788 24.5285 5.86265 24.5472 5.3821C24.5636 4.9039 24.5542 4.42102 24.5238 3.92641C24.5238 3.66856 24.5074 3.47634 24.477 3.34507C24.4419 3.2138 24.3811 3.11769 24.2828 3.0544C24.1868 2.99111 24.0511 2.95126 23.8733 2.93719C23.6955 2.92313 23.4615 2.91609 23.1713 2.91609C21.9148 2.97001 20.6676 3.01924 19.4275 3.07315C18.1897 3.12238 16.9425 3.15051 15.6883 3.15051C15.2039 3.15051 14.9161 3.20442 14.8179 3.30522C14.7219 3.41305 14.7055 3.65683 14.7711 4.04361C14.9653 5.13363 15.094 6.22599 15.1595 7.32772C15.225 8.42711 15.2367 9.53119 15.2063 10.6446C15.1712 11.4487 15.094 11.9878 14.9653 12.2574C14.8366 12.527 14.4505 12.6653 13.8094 12.6653C13.6456 12.6653 13.4514 12.6582 13.2267 12.6442C13.0021 12.6301 12.7424 12.6114 12.4546 12.5879C12.3259 12.5879 12.2299 12.5739 12.1644 12.5481C11.5513 12.4988 11.198 12.4168 11.1021 12.3137C11.0062 12.2105 10.9734 11.9128 11.0062 11.4229C11.067 10.2579 11.1489 9.10456 11.2472 7.96532C11.3431 6.82608 11.5022 5.67277 11.7268 4.51244C11.8555 3.78811 11.8906 3.30287 11.8251 3.05674C11.7596 2.81061 11.4718 2.68637 10.9547 2.68637C10.7956 2.68637 10.6107 2.6934 10.4001 2.70747C10.1919 2.72153 9.95787 2.74029 9.70282 2.76842C8.89556 2.84577 8.10701 2.91609 7.33484 2.98173C6.56267 3.04502 5.77178 3.07784 4.96919 3.07784C4.64863 3.07784 4.33274 3.07081 4.02621 3.05674C3.72436 3.04268 3.40614 3.02392 3.08791 2.99579H2.07473C1.78458 3.02158 1.57399 3.08253 1.44529 3.17395C1.31894 3.26302 1.30256 3.45055 1.3985 3.73419C1.55761 4.1491 1.65823 4.56166 1.68864 4.97657C1.72374 5.39148 1.74012 5.81811 1.74012 6.2588C1.77054 8.17395 1.77756 10.0774 1.76352 11.9667C1.74714 13.8537 1.74012 15.7454 1.74012 17.6348C1.80096 19.5757 1.82904 21.4956 1.81266 23.4013C1.79628 25.3047 1.70736 27.2129 1.54825 29.1303C1.51315 29.6484 1.53889 29.9813 1.62079 30.1383C1.70268 30.293 1.96709 30.3727 2.41635 30.3727C2.51463 30.3727 2.61057 30.3657 2.7065 30.3516C2.80478 30.3376 2.9171 30.3305 3.04579 30.3305C3.30084 30.3047 3.57695 30.2907 3.86476 30.2907H5.84432C6.22806 30.2907 6.61649 30.3047 7.00023 30.3305C7.3208 30.3563 7.63669 30.3704 7.94321 30.3704H9.87364C10.1802 30.3704 10.4937 30.3563 10.8166 30.3305C11.2659 30.3047 11.549 30.2461 11.6613 30.1571C11.7736 30.0633 11.797 29.8406 11.7339 29.4749C11.6075 28.7272 11.4858 27.9606 11.3735 27.1824C11.2612 26.4065 11.1395 25.6423 11.0132 24.8945C10.9149 24.1702 10.833 23.4506 10.7722 22.7356C10.7066 22.023 10.6739 21.3057 10.6739 20.5814C10.6739 20.3235 10.7394 20.1313 10.8681 20C10.9968 19.8687 11.2401 19.8055 11.5935 19.8055H12.4616C12.7845 19.8055 13.091 19.8125 13.3812 19.8265C13.6713 19.8406 13.9591 19.8711 14.2493 19.9227C14.8927 20 15.2156 20.2977 15.2156 20.8134C15.2461 22.2129 15.2156 23.5889 15.1197 24.9484C15.0214 26.308 14.8132 27.6747 14.4903 29.0436C14.3616 29.5382 14.3312 29.8664 14.3943 30.0352C14.4599 30.2016 14.7009 30.286 15.1197 30.286C15.3748 30.286 15.5854 30.2719 15.7468 30.2485C16.7132 30.1711 17.6796 30.1313 18.6436 30.1313H19.6825C20.0218 30.1313 20.3658 30.1453 20.7214 30.1711C21.2035 30.1711 21.6948 30.1805 22.1956 30.2086C22.6963 30.2344 23.1854 30.2719 23.6697 30.3258H23.9107C24.36 30.3258 24.5542 30.1055 24.4887 29.6648C24.4887 29.5382 24.4723 29.421 24.4419 29.3179C24.4068 29.2147 24.3764 29.0975 24.3436 28.9663C24.2173 28.1107 24.1026 27.2527 24.0067 26.383C23.9107 25.5181 23.878 24.6437 23.9107 23.76C24.0067 20.94 24.1003 18.1177 24.2009 15.2954L24.1845 15.3024Z" fill="#2D317B"/>
<path d="M66.8036 21.3807C66.8293 20.4712 66.8293 19.5663 66.8036 18.6615C66.7779 17.7567 66.6164 16.8519 66.3239 15.9423C65.9495 14.7539 65.3271 13.8022 64.4473 13.0895C63.5699 12.3769 62.4537 12.0206 61.0966 12.0206C60.3501 12.0206 59.695 12.1238 59.1404 12.3324C58.5812 12.5387 58.0664 12.8223 57.6031 13.188C57.1351 13.549 56.7092 13.9686 56.3255 14.4515C55.9394 14.9297 55.558 15.4266 55.186 15.9447C55.0292 15.8673 54.835 15.6939 54.608 15.4196C54.381 15.15 54.1611 14.8523 53.9482 14.5288C53.7352 14.2053 53.5457 13.8865 53.3702 13.5771C53.197 13.2654 53.0707 13.0333 52.9911 12.8786C52.8578 12.5949 52.6986 12.4074 52.5115 12.3136C52.3243 12.2246 52.0856 12.18 51.7954 12.18C51.3415 12.2293 50.9086 12.2644 50.4991 12.2761C50.085 12.2902 49.6661 12.309 49.2379 12.3324C48.7887 12.3324 48.5617 12.5387 48.5617 12.9536C48.5359 13.1106 48.5219 13.2654 48.5219 13.4224V13.8467C48.5476 14.6789 48.5757 15.5134 48.6015 16.3526C48.6272 17.1941 48.6412 18.0286 48.6412 18.8584C48.667 20.5157 48.667 22.166 48.6412 23.8092C48.6155 25.4524 48.5079 27.1027 48.3207 28.76V29.5757C48.3207 29.8875 48.5196 30.0703 48.922 30.1196C49.9586 30.1735 51.0022 30.2157 52.0552 30.2555C53.1058 30.293 54.1634 30.3258 55.2257 30.3516C55.7335 30.3516 56.033 30.2977 56.1266 30.1946C56.2202 30.0914 56.267 29.7937 56.267 29.3038C56.2132 27.7778 56.2202 26.2611 56.2881 24.7609C56.3559 23.2583 56.4121 21.744 56.4682 20.218C56.4916 19.9578 56.5291 19.6859 56.5689 19.4023C56.6086 19.1186 56.6788 18.8584 56.7865 18.624C56.8941 18.3896 57.0532 18.2021 57.2661 18.0638C57.4791 17.9208 57.7599 17.8504 58.1062 17.8504C58.3963 17.8504 58.6163 17.9395 58.7637 18.12C58.9111 18.3005 59.0234 18.5209 59.103 18.7811C59.1568 18.8842 59.1895 18.9873 59.2036 19.0928C59.2176 19.196 59.2363 19.3132 59.2644 19.4398C59.3978 20.1406 59.4774 20.8392 59.5054 21.5377C59.5312 22.2363 59.5195 22.9372 59.4657 23.6357C59.3861 24.5945 59.3393 25.5438 59.3253 26.4885C59.3112 27.4332 59.2387 28.3732 59.1053 29.3038C59.0515 29.7445 59.0655 30.0211 59.1451 30.1383C59.2246 30.2555 59.4516 30.3118 59.8213 30.3118H60.1021C61.0053 30.286 61.9062 30.2579 62.7953 30.2344C63.6892 30.2086 64.5854 30.1711 65.4933 30.1172C65.7834 30.1172 66.0174 30.1031 66.1905 30.0774C66.3637 30.0539 66.4901 30 66.5696 29.9226C66.6492 29.8453 66.696 29.7234 66.71 29.5523C66.724 29.3858 66.7311 29.1585 66.7311 28.8748C66.6772 27.6324 66.6702 26.383 66.71 25.1266C66.7498 23.8701 66.7825 22.6254 66.8106 21.383L66.8036 21.3807Z" fill="#2D317B"/>
<path d="M86.9596 24.8429C86.9853 23.3286 87.0274 21.7932 87.0836 20.2391C87.1374 19.0764 87.1865 17.9184 87.2263 16.7651C87.2661 15.6118 87.2989 14.4538 87.3293 13.2911C87.3293 12.8997 87.2801 12.6699 87.1865 12.5902C87.0906 12.5129 86.8356 12.4777 86.4261 12.4777C85.4152 12.4519 84.4114 12.4308 83.4146 12.4168C82.4178 12.4027 81.4304 12.3465 80.4476 12.2433C79.7644 12.166 79.0881 12.1003 78.4213 12.0488C77.752 11.9948 77.0735 11.9691 76.3949 11.9691C75.4636 11.9948 74.6049 12.1894 73.814 12.5527C73.0207 12.9137 72.3164 13.3802 71.7034 13.9498C71.0903 14.5218 70.5638 15.1781 70.1263 15.9306C69.6887 16.6831 69.3471 17.4566 69.1037 18.263C68.7481 19.4257 68.61 20.5907 68.6943 21.7581C68.7785 22.9208 68.8978 24.0858 69.064 25.2532C69.1178 25.797 69.2535 26.308 69.4711 26.7862C69.6911 27.2668 69.9368 27.7379 70.2105 28.2021C70.6434 28.9803 71.2939 29.5687 72.155 29.9695C73.0161 30.3704 73.9099 30.5696 74.8389 30.5696C75.7116 30.5696 76.4885 30.3962 77.1717 30.0492C77.855 29.6976 78.5078 29.2264 79.1396 28.6287C79.2753 28.5021 79.397 28.3708 79.507 28.2419C79.6169 28.1106 79.7807 28.0075 80.0007 27.9301C80.0007 28.1903 79.9937 28.4271 79.9796 28.6474C79.9633 28.8678 79.9422 29.0811 79.9165 29.2897C79.8907 29.7046 79.9235 29.9484 80.0194 30.0281C80.113 30.1055 80.3798 30.1547 80.8173 30.1828H81.4748C82.0481 30.1828 82.6214 30.1617 83.1947 30.1266C83.7679 30.0867 84.3412 30.0656 84.9145 30.0656C85.1883 30.0656 85.462 30.0727 85.7358 30.0867C86.0049 30.1008 86.2787 30.1336 86.5524 30.1828C86.6086 30.1828 86.6484 30.1899 86.6764 30.2039C86.7022 30.218 86.742 30.225 86.8005 30.225C87.1842 30.225 87.334 29.9672 87.2497 29.4468C87.0298 27.8926 86.9362 26.3596 86.9619 24.8476L86.9596 24.8429ZM79.8299 19.9297C79.7761 20.5274 79.7293 21.1088 79.6895 21.676C79.645 22.248 79.5304 22.8176 79.3385 23.3872C79.2285 23.7506 79.046 24.0647 78.7839 24.339C78.5242 24.6085 78.1779 24.7468 77.7403 24.7468C77.4947 24.7468 77.2911 24.6578 77.1273 24.4726C76.9612 24.2921 76.8208 24.0788 76.6967 23.835C76.5727 23.5888 76.4838 23.331 76.43 23.0567C76.3738 22.7872 76.3341 22.5715 76.306 22.4144C76.2217 21.4815 76.3317 20.5415 76.6336 19.5827C76.8535 18.9873 77.2068 18.4693 77.7006 18.0286C78.1896 17.5879 78.7769 17.3676 79.4602 17.3676C79.6778 17.3676 79.7995 17.5738 79.8275 17.9887V19.9297H79.8299Z" fill="#2D317B"/>
<path d="M108.119 17.1308C108.04 16.5588 107.89 16.0291 107.67 15.5368C107.45 15.0469 107.19 14.5546 106.891 14.06C106.453 13.3122 105.798 12.7473 104.923 12.3722C104.05 11.9948 103.159 11.8073 102.258 11.8073C101.301 11.8073 100.416 12.0417 99.6115 12.5059C98.8042 12.9747 98.1139 13.5537 97.5406 14.2569C97.2669 14.5898 97.0633 14.7609 96.9276 14.7609C96.8176 14.7609 96.6538 14.6718 96.4339 14.4866C96.2139 14.3061 95.9963 14.0999 95.7763 13.8654C95.5587 13.631 95.3528 13.4013 95.1633 13.1669C94.9691 12.9325 94.8497 12.7801 94.7936 12.7028C94.6836 12.5715 94.576 12.4613 94.466 12.3722C94.356 12.2832 94.2063 12.2363 94.0167 12.2363C93.7968 12.2621 93.5839 12.2761 93.3803 12.2761H92.7438C91.981 12.2761 91.2837 12.2222 90.6543 12.1191H90.4507C90.0412 12.1191 89.847 12.3652 89.8774 12.8575C90.0108 14.128 90.0951 15.3891 90.1208 16.6432C90.1465 17.8997 90.1348 19.1608 90.081 20.4313C89.9968 21.8542 89.9781 23.263 90.0202 24.6624C90.0599 26.0595 90.0529 27.459 89.9968 28.8537C89.9172 30.3563 89.833 31.8495 89.7534 33.3404C89.6692 34.8265 89.599 36.3244 89.5475 37.8223C89.5218 38.2372 89.5335 38.4974 89.5873 38.6006C89.6434 38.7037 89.8213 38.7553 90.1208 38.7553C91.7611 38.7553 93.3756 38.7178 94.9597 38.6428H95.0837C95.3037 38.6428 95.5213 38.6732 95.7412 38.7389C95.9612 38.8022 96.1648 38.835 96.359 38.835C96.6328 38.835 96.848 38.7459 97.0118 38.5607C97.2575 38.3029 97.3558 37.9794 97.302 37.5926C97.2458 37.2011 97.192 36.8284 97.1358 36.4674C96.972 35.1453 96.9323 33.8186 97.0118 32.4848C97.096 31.151 97.178 29.7726 97.2575 28.3497C97.5032 28.556 97.7138 28.7342 97.894 28.8748C98.0695 29.0178 98.2403 29.1514 98.4064 29.2827C98.8697 29.5945 99.4032 29.8476 100.005 30.0398C100.606 30.2344 101.221 30.3305 101.851 30.3305C102.642 30.3305 103.374 30.1594 104.046 29.8265C104.712 29.489 105.309 29.0483 105.829 28.5068C106.346 27.963 106.793 27.3535 107.16 26.6807C107.53 26.0103 107.81 25.3469 108 24.7C108.33 23.4341 108.487 22.1707 108.473 20.9142C108.459 19.6578 108.342 18.399 108.122 17.1285L108.119 17.1308ZM100.76 21.3994C100.69 22.0206 100.519 22.6324 100.248 23.2255C100.112 23.5091 99.9414 23.7928 99.7355 24.0811C99.5319 24.3647 99.1949 24.496 98.7316 24.4679C98.2637 24.414 97.9782 24.2264 97.8706 23.903C97.7606 23.5795 97.6366 23.2607 97.5009 22.9512C97.4166 22.745 97.3839 22.5129 97.3979 22.2527C97.4119 21.9948 97.4307 21.7206 97.4611 21.4369C97.4307 20.9962 97.4681 20.5462 97.5617 20.0774C97.6576 19.6132 97.7746 19.1585 97.9127 18.7178C98.1022 18.1505 98.5257 17.7848 99.1832 17.6324C99.2394 17.6324 99.2792 17.6254 99.3073 17.6113C99.333 17.5973 99.3611 17.5902 99.3915 17.5902C99.6653 17.5902 99.9086 17.7215 100.129 17.9817C100.292 18.2114 100.442 18.4599 100.578 18.7154C100.714 18.9756 100.798 19.2475 100.824 19.5312C100.849 20.1524 100.831 20.7736 100.763 21.3947L100.76 21.3994Z" fill="#2D317B"/>
<path d="M37.1429 20.6892C37.5852 20.6892 38.0298 20.6892 38.4767 20.6868C38.2825 20.8556 38.0859 21.0244 37.8917 21.1931C37.6296 21.1158 37.3699 21.0431 37.1078 20.9704C37.0774 21.0994 37.0306 21.2213 36.9651 21.3361C37.1944 21.4627 37.4261 21.587 37.653 21.7182C37.6694 21.9761 37.6905 22.2316 37.7092 22.4894C37.405 22.1824 37.1031 21.88 36.7966 21.5705C36.7873 21.5869 36.7709 21.6034 36.7568 21.6174C37.061 21.9222 37.3652 22.2269 37.6694 22.5293C37.412 22.5105 37.157 22.4894 36.8996 22.4707C36.7779 22.2527 36.6515 22.0276 36.5299 21.805C36.4082 21.8847 36.2725 21.9479 36.1227 21.9831C36.1882 22.2128 36.2561 22.4472 36.3169 22.677C36.1485 22.8715 35.98 23.0684 35.8115 23.263C35.8139 22.8481 35.8139 22.4379 35.8185 22.0276H35.7554C35.7554 22.4379 35.7577 22.8504 35.7577 23.263C35.5892 23.0684 35.4208 22.8715 35.2523 22.677C35.3178 22.4472 35.3857 22.2128 35.4512 21.9831C35.2897 21.9433 35.1446 21.8776 35.0113 21.7839C34.8849 22.0136 34.7609 22.2339 34.6345 22.4637C34.3772 22.4824 34.1174 22.5035 33.8647 22.5223C34.1736 22.2152 34.4871 21.8987 34.7983 21.5916C34.7796 21.5752 34.7656 21.5612 34.7562 21.5448C34.445 21.8589 34.1385 22.1683 33.8273 22.4824C33.846 22.2246 33.8671 21.969 33.8834 21.7112C34.1221 21.5776 34.3608 21.4463 34.5971 21.3127C34.541 21.2142 34.5012 21.1064 34.4708 20.9939C34.2134 21.0712 33.9513 21.1439 33.6892 21.2189C33.495 21.0501 33.2985 20.8814 33.1042 20.7126C33.5465 20.7126 33.9911 20.7149 34.4333 20.7149C34.431 20.6985 34.431 20.6774 34.431 20.661C34.431 20.6446 34.431 20.6306 34.4333 20.6141C33.9911 20.6141 33.5465 20.6165 33.1042 20.6165C33.2985 20.4477 33.495 20.2789 33.6892 20.1102C33.9513 20.1875 34.211 20.2602 34.4708 20.3328C34.5105 20.1805 34.5737 20.0375 34.6603 19.9086L34.6439 19.925C34.4052 19.7914 34.1712 19.6601 33.9326 19.5265C33.9139 19.2686 33.8928 19.0084 33.8741 18.7553C34.1923 19.0694 34.5082 19.3905 34.8241 19.7093C34.8381 19.6929 34.8545 19.6788 34.8709 19.6671C34.5503 19.3483 34.2368 19.0342 33.9139 18.7154C34.1712 18.7342 34.4263 18.7553 34.6837 18.7717C34.8171 19.0108 34.9481 19.2499 35.0838 19.4866C35.0698 19.496 35.0581 19.5101 35.0464 19.5194C35.168 19.4397 35.3038 19.3811 35.4488 19.3436C35.3786 19.0928 35.3061 18.8396 35.2382 18.5841C35.4067 18.3896 35.5752 18.1927 35.7437 17.9981C35.7413 18.4365 35.7413 18.8701 35.7366 19.3038C35.753 19.3014 35.7694 19.3014 35.7858 19.3014C35.8092 19.3014 35.8326 19.3014 35.856 19.3038C35.8536 18.8701 35.8536 18.4365 35.849 17.9981C36.0174 18.1927 36.1859 18.3896 36.3544 18.5841C36.2842 18.8396 36.2116 19.0952 36.1391 19.346C36.2725 19.3835 36.3942 19.4351 36.5041 19.5054C36.6375 19.2663 36.7685 19.0272 36.9019 18.7904C37.1593 18.7717 37.4144 18.7529 37.6717 18.7342C37.3535 19.0483 37.0423 19.36 36.7264 19.6765C36.7405 19.6929 36.7568 19.707 36.7685 19.7234C37.0868 19.4046 37.398 19.0905 37.7115 18.7717C37.6928 19.0295 37.6717 19.2897 37.6554 19.5476C37.4167 19.6812 37.178 19.8125 36.9417 19.9461C37.0189 20.068 37.0774 20.2039 37.1102 20.3516C37.3722 20.2742 37.632 20.2016 37.894 20.1266C38.0882 20.2953 38.2848 20.4641 38.479 20.6329C38.0321 20.6305 37.5899 20.6306 37.1453 20.6306V20.6892H37.1429Z" fill="#E9B32A"/>
<path d="M46.0556 24.7586C46.0767 23.2443 46.1165 21.7159 46.1797 20.1617C46.2311 18.992 46.2826 17.8293 46.3271 16.6807C46.3692 15.5321 46.3996 14.3718 46.43 13.2044C46.43 12.82 46.3785 12.5902 46.2826 12.5105C46.1797 12.4262 45.9199 12.3863 45.5034 12.3863C44.4528 12.3652 43.4232 12.3465 42.396 12.3371C41.3665 12.316 40.3463 12.2668 39.3261 12.1566C38.6194 12.0863 37.9245 12.0159 37.2365 11.9667C36.5416 11.9175 35.8443 11.8823 35.1493 11.8823C34.1806 11.9151 33.2961 12.105 32.4865 12.4707C31.6629 12.8317 30.9375 13.2958 30.3034 13.8701C29.6693 14.4351 29.1288 15.0985 28.6818 15.8486C28.2232 16.6034 27.8722 17.3816 27.6219 18.1763C27.2592 19.346 27.1118 20.504 27.1936 21.6737C27.2802 22.8364 27.4136 24.0061 27.5797 25.1641C27.6312 25.7079 27.7763 26.2236 28.0079 26.6971C28.2255 27.1824 28.4876 27.6535 28.7661 28.1177C29.213 28.8959 29.8775 29.4796 30.7737 29.8851C31.6559 30.286 32.5825 30.4899 33.5395 30.4899C34.4427 30.4899 35.2453 30.3165 35.9496 29.9648C36.6562 29.6109 37.3348 29.1374 37.9783 28.542C38.1234 28.4224 38.2474 28.2911 38.3597 28.1575C38.4673 28.0263 38.6428 27.9278 38.8581 27.8458C38.8581 28.106 38.8581 28.3404 38.837 28.5607C38.8277 28.7834 38.8066 28.9944 38.7738 29.2053C38.7528 29.6202 38.7832 29.864 38.8768 29.9437C38.9798 30.0234 39.2512 30.075 39.7098 30.0938H40.386C40.978 30.0938 41.57 30.0727 42.1644 30.0445C42.747 30.0047 43.339 29.9836 43.931 29.9836C44.2141 29.9836 44.4926 29.9836 44.7851 30.0047C45.0635 30.0141 45.3466 30.0445 45.6251 30.0938C45.6766 30.0938 45.7187 30.1031 45.7514 30.1149C45.7819 30.136 45.824 30.136 45.8755 30.136C46.2686 30.136 46.4277 29.8851 46.3434 29.3601C46.1118 27.8059 46.0205 26.2729 46.051 24.7609L46.0556 24.7586ZM38.9096 22.6887C37.2599 25.1711 35.9964 27.0745 34.6135 26.9339C32.5263 26.7159 30.0624 21.8308 31.9483 18.5326C33.977 14.993 40.1778 14.8054 41.3454 16.519C42.1971 17.7543 40.5849 20.1805 38.9096 22.6887Z" fill="#2D317B"/>
</svg>
