<svg width="108" height="37" viewBox="0 0 108 37" fill="none" xmlns="http://www.w3.org/2000/svg">
<path d="M22.8477 12.616C22.9436 9.79606 23.0419 6.97375 23.1378 4.15143C23.1682 3.66151 23.1916 3.17628 23.2103 2.69573C23.2267 2.21753 23.2174 1.73465 23.1869 1.24004C23.1869 0.982185 23.1706 0.789967 23.1401 0.658697C23.105 0.527426 23.0442 0.431317 22.9459 0.368026C22.85 0.304735 22.7143 0.264885 22.5364 0.25082C22.3586 0.236756 22.1246 0.229723 21.8345 0.229723C20.5779 0.283638 19.3308 0.332864 18.0906 0.386779C16.8528 0.436006 15.6056 0.464135 14.3515 0.464135C13.8671 0.464135 13.5793 0.51805 13.481 0.618847C13.3851 0.726676 13.3687 0.970464 13.4342 1.35724C13.6284 2.44726 13.7571 3.53962 13.8226 4.64135C13.8882 5.74074 13.8998 6.84482 13.8694 7.95827C13.8343 8.76231 13.7571 9.30145 13.6284 9.57103C13.4997 9.8406 13.1136 9.9789 12.4725 9.9789C12.3087 9.9789 12.1145 9.97187 11.8899 9.95781C11.6652 9.94374 11.4055 9.92499 11.1177 9.90155C10.989 9.90155 10.8931 9.88748 10.8276 9.8617C10.2145 9.81247 9.86117 9.73043 9.76524 9.62729C9.6693 9.52414 9.63654 9.22644 9.6693 8.73652C9.73014 7.5715 9.81203 6.41819 9.91031 5.27895C10.0062 4.13971 10.1654 2.9864 10.39 1.82607C10.5187 1.10173 10.5538 0.616503 10.4883 0.37037C10.4227 0.124238 10.1349 0 9.61782 0C9.45871 0 9.27386 0.00703238 9.06326 0.0210971C8.85501 0.0351618 8.62102 0.0539148 8.36597 0.0820442C7.5587 0.1594 6.77015 0.229723 5.99799 0.295359C5.22582 0.35865 4.43493 0.391467 3.63234 0.391467C3.31177 0.391467 2.99589 0.384435 2.68936 0.37037C2.38751 0.356306 2.06928 0.337553 1.75106 0.309423H0.737876C0.447727 0.335209 0.237136 0.396156 0.108441 0.487576C-0.0179142 0.576653 -0.0342936 0.764182 0.0616426 1.04782C0.220756 1.46273 0.321372 1.87529 0.351791 2.2902C0.38689 2.70511 0.403269 3.13174 0.403269 3.57243C0.433688 5.48758 0.440708 7.391 0.426668 9.28036C0.410289 11.1674 0.403269 13.0591 0.403269 14.9484C0.464107 16.8894 0.492185 18.8092 0.475806 20.715C0.459427 22.6184 0.37051 24.5265 0.211397 26.444C0.176298 26.962 0.202037 27.2949 0.283934 27.4519C0.365831 27.6067 0.63024 27.6864 1.0795 27.6864C1.17778 27.6864 1.27371 27.6793 1.36965 27.6653C1.46793 27.6512 1.58024 27.6442 1.70894 27.6442C1.96399 27.6184 2.2401 27.6043 2.5279 27.6043H4.50747C4.89121 27.6043 5.27963 27.6184 5.66338 27.6442C5.98395 27.6699 6.29983 27.684 6.60636 27.684H8.53678C8.84331 27.684 9.15686 27.6699 9.47977 27.6442C9.92903 27.6184 10.2122 27.5598 10.3245 27.4707C10.4368 27.3769 10.4602 27.1542 10.397 26.7886C10.2707 26.0408 10.149 25.2743 10.0367 24.496C9.92435 23.7201 9.80267 22.9559 9.67632 22.2082C9.57804 21.4838 9.49615 20.7642 9.43531 20.0492C9.36979 19.3366 9.33703 18.6193 9.33703 17.895C9.33703 17.6371 9.40255 17.4449 9.53125 17.3136C9.65994 17.1824 9.90329 17.1191 10.2566 17.1191H11.1247C11.4476 17.1191 11.7542 17.1261 12.0443 17.1402C12.3345 17.1542 12.6223 17.1847 12.9124 17.2363C13.5559 17.3136 13.8788 17.6113 13.8788 18.1271C13.9092 19.5265 13.8788 20.9025 13.7829 22.2621C13.6846 23.6217 13.4763 24.9883 13.1534 26.3572C13.0247 26.8519 12.9943 27.18 13.0575 27.3488C13.123 27.5152 13.364 27.5996 13.7829 27.5996C14.0379 27.5996 14.2485 27.5856 14.41 27.5621C15.3763 27.4848 16.3427 27.4449 17.3068 27.4449H18.3457C18.685 27.4449 19.0289 27.459 19.3846 27.4848C19.8666 27.4848 20.358 27.4941 20.8587 27.5223C21.3595 27.5481 21.8485 27.5856 22.3329 27.6395H22.5739C23.0231 27.6395 23.2174 27.4191 23.1518 26.9784C23.1518 26.8519 23.1355 26.7346 23.105 26.6315C23.0699 26.5284 23.0395 26.4112 23.0068 26.2799C22.8804 25.4243 22.7658 24.5663 22.6698 23.6967C22.5739 22.8317 22.5411 21.9573 22.5739 21.0736C22.6698 18.2536 22.7634 15.4313 22.864 12.609L22.8477 12.616Z" fill="white"/>
<path d="M65.4667 18.694C65.4925 17.7845 65.4925 16.8797 65.4667 15.9749C65.441 15.07 65.2796 14.1652 64.9871 13.2557C64.6127 12.0672 63.9903 11.1155 63.1105 10.4029C62.233 9.69029 61.1169 9.33398 59.7597 9.33398C59.0133 9.33398 58.3581 9.43713 57.8036 9.64575C57.2443 9.85203 56.7295 10.1357 56.2662 10.5014C55.7983 10.8623 55.3724 11.2819 54.9886 11.7648C54.6026 12.243 54.2212 12.74 53.8491 13.258C53.6923 13.1807 53.4981 13.0072 53.2712 12.733C53.0442 12.4634 52.8242 12.1657 52.6113 11.8422C52.3984 11.5187 52.2088 11.1999 52.0333 10.8905C51.8602 10.5787 51.7338 10.3466 51.6543 10.1919C51.5209 9.90829 51.3618 9.72076 51.1746 9.627C50.9874 9.53792 50.7487 9.49338 50.4586 9.49338C50.0046 9.54261 49.5718 9.57777 49.1623 9.58949C48.7481 9.60356 48.3293 9.62231 47.9011 9.64575C47.4518 9.64575 47.2248 9.85203 47.2248 10.2669C47.1991 10.424 47.1851 10.5787 47.1851 10.7358V11.1601C47.2108 11.9922 47.2389 12.8267 47.2646 13.6659C47.2904 14.5074 47.3044 15.342 47.3044 16.1718C47.3301 17.8291 47.3301 19.4793 47.3044 21.1225C47.2787 22.7658 47.171 24.416 46.9838 26.0733V26.8891C46.9838 27.2008 47.1827 27.3837 47.5852 27.4329C48.6218 27.4868 49.6654 27.529 50.7183 27.5689C51.7689 27.6064 52.8266 27.6392 53.8889 27.665C54.3967 27.665 54.6962 27.6111 54.7898 27.5079C54.8834 27.4048 54.9302 27.1071 54.9302 26.6172C54.8763 25.0911 54.8834 23.5745 54.9512 22.0743C55.0191 20.5717 55.0752 19.0574 55.1314 17.5314C55.1548 17.2712 55.1922 16.9992 55.232 16.7156C55.2718 16.432 55.342 16.1718 55.4496 15.9374C55.5572 15.7029 55.7164 15.5154 55.9293 15.3771C56.1422 15.2341 56.423 15.1638 56.7693 15.1638C57.0595 15.1638 57.2794 15.2529 57.4268 15.4334C57.5742 15.6139 57.6866 15.8342 57.7661 16.0944C57.8199 16.1976 57.8527 16.3007 57.8667 16.4062C57.8808 16.5093 57.8995 16.6265 57.9276 16.7531C58.0609 17.454 58.1405 18.1525 58.1686 18.8511C58.1943 19.5496 58.1826 20.2505 58.1288 20.9491C58.0492 21.9078 58.0024 22.8572 57.9884 23.8019C57.9744 24.7465 57.9018 25.6865 57.7685 26.6172C57.7146 27.0578 57.7287 27.3345 57.8082 27.4517C57.8878 27.5689 58.1148 27.6251 58.4845 27.6251H58.7653C59.6685 27.5993 60.5693 27.5712 61.4585 27.5478C62.3523 27.522 63.2485 27.4845 64.1564 27.4306C64.4466 27.4306 64.6805 27.4165 64.8537 27.3907C65.0268 27.3673 65.1532 27.3134 65.2328 27.236C65.3123 27.1586 65.3591 27.0367 65.3732 26.8656C65.3872 26.6992 65.3942 26.4718 65.3942 26.1882C65.3404 24.9458 65.3334 23.6964 65.3732 22.4399C65.4129 21.1835 65.4457 19.9388 65.4738 18.6964L65.4667 18.694Z" fill="white"/>
<path d="M85.6227 22.1566C85.6485 20.6423 85.6906 19.1069 85.7467 17.5528C85.8006 16.3901 85.8497 15.2321 85.8895 14.0788C85.9293 12.9255 85.962 11.7675 85.9924 10.6048C85.9924 10.2133 85.9433 9.98361 85.8497 9.90391C85.7538 9.82655 85.4987 9.79139 85.0892 9.79139C84.0784 9.7656 83.0746 9.74451 82.0778 9.73044C81.081 9.71638 80.0935 9.66012 79.1108 9.55698C78.4275 9.47962 77.7513 9.41399 77.0844 9.36241C76.4152 9.3085 75.7366 9.28271 75.058 9.28271C74.1268 9.3085 73.268 9.50306 72.4771 9.8664C71.6839 10.2274 70.9796 10.6939 70.3665 11.2635C69.7535 11.8355 69.227 12.4918 68.7894 13.2443C68.3519 13.9967 68.0102 14.7703 67.7669 15.5767C67.4112 16.7393 67.2732 17.9044 67.3574 19.0717C67.4416 20.2344 67.561 21.3995 67.7271 22.5668C67.7809 23.1107 67.9166 23.6217 68.1343 24.0999C68.3542 24.5804 68.5999 25.0516 68.8737 25.5157C69.3066 26.294 69.957 26.8823 70.8181 27.2832C71.6792 27.684 72.5731 27.8833 73.502 27.8833C74.3748 27.8833 75.1516 27.7098 75.8349 27.3629C76.5181 27.0113 77.171 26.5401 77.8027 25.9423C77.9385 25.8158 78.0601 25.6845 78.1701 25.5556C78.2801 25.4243 78.4439 25.3212 78.6638 25.2438C78.6638 25.504 78.6568 25.7408 78.6428 25.9611C78.6264 26.1814 78.6053 26.3948 78.5796 26.6034C78.5539 27.0183 78.5866 27.2621 78.6826 27.3418C78.7762 27.4191 79.0429 27.4684 79.4805 27.4965H80.138C80.7113 27.4965 81.2845 27.4754 81.8578 27.4402C82.4311 27.4004 83.0044 27.3793 83.5776 27.3793C83.8514 27.3793 84.1252 27.3863 84.3989 27.4004C84.668 27.4145 84.9418 27.4473 85.2156 27.4965C85.2717 27.4965 85.3115 27.5035 85.3396 27.5176C85.3653 27.5317 85.4051 27.5387 85.4636 27.5387C85.8474 27.5387 85.9971 27.2808 85.9129 26.7604C85.6929 25.2063 85.5993 23.6732 85.6251 22.1613L85.6227 22.1566ZM78.493 17.2433C78.4392 17.8411 78.3924 18.4224 78.3526 18.9897C78.3082 19.5617 78.1935 20.1313 78.0016 20.7009C77.8917 21.0642 77.7092 21.3784 77.4471 21.6526C77.1874 21.9222 76.8411 22.0605 76.4035 22.0605C76.1578 22.0605 75.9542 21.9714 75.7904 21.7862C75.6243 21.6057 75.4839 21.3924 75.3599 21.1486C75.2359 20.9025 75.147 20.6446 75.0931 20.3704C75.037 20.1008 74.9972 19.8852 74.9691 19.7281C74.8849 18.7951 74.9949 17.8551 75.2967 16.8964C75.5167 16.301 75.87 15.7829 76.3637 15.3423C76.8527 14.9016 77.4401 14.6812 78.1233 14.6812C78.3409 14.6812 78.4626 14.8875 78.4907 15.3024V17.2433H78.493Z" fill="white"/>
<path d="M106.782 14.4441C106.703 13.8721 106.553 13.3424 106.333 12.8501C106.113 12.3602 105.854 11.8679 105.554 11.3733C105.116 10.6255 104.461 10.0606 103.586 9.68554C102.713 9.30813 101.822 9.12061 100.921 9.12061C99.964 9.12061 99.0795 9.35502 98.2746 9.81915C97.4673 10.288 96.7771 10.867 96.2038 11.5702C95.93 11.9031 95.7264 12.0742 95.5907 12.0742C95.4808 12.0742 95.317 11.9851 95.097 11.7999C94.8771 11.6194 94.6594 11.4132 94.4395 11.1787C94.2219 10.9443 94.016 10.7146 93.8264 10.4802C93.6322 10.2458 93.5129 10.0934 93.4567 10.0161C93.3468 9.88479 93.2391 9.77461 93.1291 9.68554C93.0192 9.59646 92.8694 9.54958 92.6799 9.54958C92.4599 9.57536 92.247 9.58943 92.0434 9.58943H91.407C90.6442 9.58943 89.9469 9.53551 89.3174 9.43237H89.1139C88.7044 9.43237 88.5102 9.67851 88.5406 10.1708C88.674 11.4413 88.7582 12.7024 88.7839 13.9565C88.8097 15.213 88.798 16.4741 88.7442 17.7446C88.6599 19.1675 88.6412 20.5763 88.6833 21.9757C88.7231 23.3728 88.7161 24.7723 88.6599 26.167C88.5804 27.6696 88.4961 29.1628 88.4166 30.6537C88.3323 32.1398 88.2621 33.6377 88.2107 35.1356C88.1849 35.5505 88.1966 35.8107 88.2504 35.9139C88.3066 36.017 88.4844 36.0686 88.7839 36.0686C90.4242 36.0686 92.0387 36.0311 93.6229 35.9561H93.7469C93.9668 35.9561 94.1844 35.9865 94.4044 36.0522C94.6243 36.1154 94.8279 36.1483 95.0221 36.1483C95.2959 36.1483 95.5112 36.0592 95.675 35.874C95.9207 35.6162 96.0189 35.2927 95.9651 34.9059C95.909 34.5144 95.8551 34.1417 95.799 33.7807C95.6352 32.4586 95.5954 31.1319 95.675 29.7981C95.7592 28.4643 95.8411 27.0859 95.9207 25.663C96.1663 25.8693 96.3769 26.0475 96.5571 26.1881C96.7326 26.3311 96.9034 26.4647 97.0695 26.596C97.5329 26.9078 98.0663 27.1609 98.6677 27.3531C99.2691 27.5477 99.8845 27.6438 100.514 27.6438C101.305 27.6438 102.037 27.4727 102.709 27.1398C103.376 26.8023 103.972 26.3616 104.492 25.8201C105.009 25.2763 105.456 24.6668 105.823 23.994C106.193 23.3236 106.474 22.6602 106.663 22.0132C106.993 20.7474 107.15 19.4839 107.136 18.2275C107.122 16.9711 107.005 15.7123 106.785 14.4418L106.782 14.4441ZM99.4235 18.7127C99.3533 19.3339 99.1825 19.9457 98.9111 20.5388C98.7753 20.8224 98.6045 21.1061 98.3986 21.3944C98.195 21.678 97.8581 21.8093 97.3948 21.7812C96.9268 21.7273 96.6413 21.5397 96.5337 21.2162C96.4237 20.8928 96.2997 20.574 96.164 20.2645C96.0798 20.0583 96.047 19.8262 96.061 19.566C96.0751 19.3081 96.0938 19.0339 96.1242 18.7502C96.0938 18.3095 96.1312 17.8595 96.2248 17.3906C96.3208 16.9265 96.4378 16.4718 96.5758 16.0311C96.7654 15.4638 97.1889 15.0981 97.8464 14.9457C97.9026 14.9457 97.9423 14.9387 97.9704 14.9246C97.9961 14.9106 98.0242 14.9035 98.0546 14.9035C98.3284 14.9035 98.5718 15.0348 98.7917 15.295C98.9555 15.5247 99.1053 15.7732 99.241 16.0287C99.3767 16.2889 99.4609 16.5608 99.4867 16.8445C99.5124 17.4657 99.4937 18.0869 99.4258 18.708L99.4235 18.7127Z" fill="white"/>
<path d="M35.8061 18.0026C36.2483 18.0026 36.6929 18.0026 37.1398 18.0002C36.9456 18.169 36.7491 18.3378 36.5548 18.5066C36.2928 18.4292 36.033 18.3565 35.771 18.2839C35.7406 18.4128 35.6938 18.5347 35.6282 18.6495C35.8576 18.7761 36.0892 18.9004 36.3162 19.0316C36.3326 19.2895 36.3536 19.545 36.3723 19.8029C36.0681 19.4958 35.7663 19.1934 35.4598 18.884C35.4504 18.9004 35.434 18.9168 35.42 18.9308C35.7242 19.2356 36.0284 19.5403 36.3326 19.8427C36.0752 19.8239 35.8201 19.8029 35.5627 19.7841C35.441 19.5661 35.3147 19.3411 35.193 19.1184C35.0713 19.1981 34.9356 19.2614 34.7859 19.2965C34.8514 19.5262 34.9193 19.7607 34.9801 19.9904C34.8116 20.1849 34.6431 20.3818 34.4747 20.5764C34.477 20.1615 34.477 19.7513 34.4817 19.3411H34.4185C34.4185 19.7513 34.4208 20.1638 34.4208 20.5764C34.2524 20.3818 34.0839 20.1849 33.9154 19.9904C33.9809 19.7607 34.0488 19.5262 34.1143 19.2965C33.9529 19.2567 33.8078 19.191 33.6744 19.0973C33.5481 19.327 33.4241 19.5473 33.2977 19.7771C33.0403 19.7958 32.7806 19.8169 32.5279 19.8357C32.8367 19.5286 33.1503 19.2121 33.4615 18.9051C33.4428 18.8886 33.4287 18.8746 33.4194 18.8582C33.1082 19.1723 32.8016 19.4817 32.4904 19.7958C32.5091 19.538 32.5302 19.2825 32.5466 19.0246C32.7853 18.891 33.0239 18.7597 33.2603 18.6261C33.2041 18.5277 33.1643 18.4198 33.1339 18.3073C32.8765 18.3847 32.6144 18.4573 32.3524 18.5323C32.1582 18.3636 31.9616 18.1948 31.7674 18.026C32.2096 18.026 32.6542 18.0284 33.0965 18.0284C33.0941 18.0119 33.0941 17.9908 33.0941 17.9744C33.0941 17.958 33.0941 17.944 33.0965 17.9276C32.6542 17.9276 32.2096 17.9299 31.7674 17.9299C31.9616 17.7611 32.1582 17.5923 32.3524 17.4236C32.6144 17.5009 32.8742 17.5736 33.1339 17.6463C33.1737 17.4939 33.2369 17.3509 33.3234 17.222L33.3071 17.2384C33.0684 17.1048 32.8344 16.9735 32.5957 16.8399C32.577 16.582 32.5559 16.3218 32.5372 16.0687C32.8555 16.3828 33.1713 16.7039 33.4872 17.0227C33.5013 17.0063 33.5176 16.9923 33.534 16.9805C33.2135 16.6617 32.8999 16.3476 32.577 16.0288C32.8344 16.0476 33.0894 16.0687 33.3468 16.0851C33.4802 16.3242 33.6112 16.5633 33.747 16.8C33.7329 16.8094 33.7212 16.8235 33.7095 16.8329C33.8312 16.7532 33.9669 16.6946 34.112 16.657C34.0418 16.4062 33.9692 16.1531 33.9014 15.8976C34.0699 15.703 34.2383 15.5061 34.4068 15.3115C34.4045 15.7499 34.4045 16.1835 34.3998 16.6172C34.4162 16.6149 34.4326 16.6149 34.4489 16.6149C34.4723 16.6149 34.4957 16.6149 34.5191 16.6172C34.5168 16.1835 34.5168 15.7499 34.5121 15.3115C34.6806 15.5061 34.8491 15.703 35.0175 15.8976C34.9473 16.1531 34.8748 16.4086 34.8023 16.6594C34.9356 16.6969 35.0573 16.7485 35.1673 16.8188C35.3007 16.5797 35.4317 16.3406 35.5651 16.1038C35.8225 16.0851 36.0775 16.0663 36.3349 16.0476C36.0167 16.3617 35.7055 16.6735 35.3896 16.9899C35.4036 17.0063 35.42 17.0204 35.4317 17.0368C35.7499 16.718 36.0611 16.4039 36.3747 16.0851C36.356 16.3429 36.3349 16.6031 36.3185 16.861C36.0798 16.9946 35.8412 17.1259 35.6048 17.2595C35.6821 17.3814 35.7406 17.5173 35.7733 17.665C36.0354 17.5877 36.2951 17.515 36.5572 17.44C36.7514 17.6088 36.9479 17.7775 37.1422 17.9463C36.6952 17.944 36.253 17.944 35.8084 17.944V18.0026H35.8061Z" fill="#E9B32A"/>
<path d="M44.7188 22.072C44.7398 20.5577 44.7796 19.0294 44.8428 17.4752C44.8943 16.3055 44.9458 15.1428 44.9902 13.9942C45.0323 12.8456 45.0627 11.6853 45.0932 10.5179C45.0932 10.1334 45.0417 9.90372 44.9458 9.82402C44.8428 9.73964 44.5831 9.69979 44.1666 9.69979C43.1159 9.67869 42.0864 9.65994 41.0592 9.65056C40.0296 9.62946 39.0094 9.58024 37.9892 9.47006C37.2826 9.39974 36.5876 9.32942 35.8997 9.28019C35.2047 9.23096 34.5074 9.1958 33.8125 9.1958C32.8438 9.22862 31.9593 9.41849 31.1497 9.78417C30.326 10.1452 29.6006 10.6093 28.9665 11.1836C28.3324 11.7485 27.7919 12.4119 27.345 13.162C26.8864 13.9169 26.5354 14.6951 26.285 15.4898C25.9223 16.6595 25.7749 17.8175 25.8568 18.9872C25.9434 20.1499 26.0767 21.3196 26.2429 22.4776C26.2944 23.0214 26.4394 23.5371 26.6711 24.0106C26.8887 24.4958 27.1508 24.967 27.4292 25.4311C27.8761 26.2094 28.5407 26.7931 29.4369 27.1986C30.319 27.5995 31.2456 27.8034 32.2026 27.8034C33.1058 27.8034 33.9084 27.6299 34.6127 27.2783C35.3194 26.9244 35.998 26.4508 36.6414 25.8554C36.7865 25.7359 36.9105 25.6046 37.0228 25.471C37.1305 25.3397 37.306 25.2413 37.5212 25.1592C37.5212 25.4194 37.5212 25.6538 37.5002 25.8742C37.4908 26.0969 37.4698 26.3078 37.437 26.5188C37.4159 26.9337 37.4464 27.1775 37.5399 27.2572C37.6429 27.3369 37.9143 27.3885 38.373 27.4072H39.0492C39.6412 27.4072 40.2332 27.3861 40.8275 27.358C41.4102 27.3182 42.0022 27.2971 42.5941 27.2971C42.8773 27.2971 43.1557 27.2971 43.4482 27.3182C43.7267 27.3275 44.0098 27.358 44.2882 27.4072C44.3397 27.4072 44.3818 27.4166 44.4146 27.4283C44.445 27.4494 44.4871 27.4494 44.5386 27.4494C44.9317 27.4494 45.0908 27.1986 45.0066 26.6735C44.7749 25.1194 44.6837 23.5863 44.7141 22.0744L44.7188 22.072ZM37.5727 20.0022C35.9231 22.4846 34.6595 24.388 33.2766 24.2474C31.1894 24.0294 28.7255 19.1442 30.6115 15.8461C32.6402 12.3064 38.8409 12.1189 40.0086 13.8325C40.8603 15.0678 39.2481 17.494 37.5727 20.0022Z" fill="white"/>
</svg>
