<svg width="14" height="19" viewBox="0 0 14 19" fill="none" xmlns="http://www.w3.org/2000/svg">
<path d="M8.49975 9.14004C9.32879 8.29281 9.32879 6.91917 8.49975 6.07193C7.6707 5.22469 6.32655 5.22469 5.49751 6.07193C4.66846 6.91917 4.66846 8.29281 5.49751 9.14004C6.32655 9.98728 7.6707 9.98728 8.49975 9.14004Z" stroke="#2D317B" stroke-width="2" stroke-linecap="round" stroke-linejoin="round"/>
<path d="M6.99995 1.68985C10.4476 1.68985 13.1309 4.66638 12.995 7.99003C12.77 13.5569 6.99995 17.3101 6.99995 17.3101" stroke="#2D317B" stroke-width="2" stroke-linecap="round" stroke-linejoin="round"/>
<path d="M1.38702 10.1942C1.46345 10.4372 1.54836 10.6759 1.63753 10.9102C3.18725 14.8283 6.99999 17.3102 6.99999 17.3102" stroke="#2D317B" stroke-width="2" stroke-linecap="round" stroke-linejoin="round"/>
<path d="M7.00002 1.68985C3.55243 1.68985 0.869074 4.66638 1.00494 7.99003" stroke="#2D317B" stroke-width="2" stroke-linecap="round" stroke-linejoin="round"/>
</svg>
