<svg width="19" height="19" viewBox="0 0 19 19" fill="none" xmlns="http://www.w3.org/2000/svg">
<path d="M3.11798 4.13011C1.96053 5.5929 1.26514 7.4615 1.26514 9.49997C1.26514 14.1903 4.95253 17.9936 9.5 17.9936C14.0475 17.9936 17.7349 14.1903 17.7349 9.49997C17.7349 4.8096 14.0475 1.00635 9.5 1.00635C7.70663 1.00635 6.05051 1.59618 4.69633 2.60126" stroke="white" stroke-width="2" stroke-linecap="round" stroke-linejoin="round"/>
<path d="M9.36739 1.02515C7.46423 3.05418 6.1924 6.39028 6.1924 9.49989C6.1924 12.6189 7.66095 16.526 9.36739 17.9935" stroke="white" stroke-width="2" stroke-linecap="round" stroke-linejoin="round"/>
<path d="M9.63274 1.02515C11.5359 3.05418 12.8077 6.39028 12.8077 9.49989C12.8077 12.6189 11.3392 16.526 9.63274 17.9935" stroke="white" stroke-width="2" stroke-linecap="round" stroke-linejoin="round"/>
<path d="M2.12068 9.5H16.8794" stroke="white" stroke-width="2" stroke-linecap="round" stroke-linejoin="round"/>
</svg>
