<svg width="482" height="328" viewBox="0 0 482 328" fill="none" xmlns="http://www.w3.org/2000/svg">
<path d="M447.622 311.292C470.032 301.275 475.643 277.348 463.371 263.095C452.443 250.402 428.398 246.623 410.071 257.418C405.78 247.028 398.509 244.12 396.746 243.483C383.876 238.845 363.451 246.84 351.863 265.966C333.608 259.571 313.299 263.712 302.258 275.482C289.876 288.679 296.725 308.974 297.307 310.722C347.983 312.166 396.949 309.848 447.628 311.292H447.622Z" stroke="#1A1A1A" stroke-width="3" stroke-miterlimit="10"/>
<path d="M61.6631 245.211V305.441C61.6631 305.441 75.2421 304.981 81.4486 305.441V244.317C68.8939 245.136 61.6631 245.208 61.6631 245.208V245.211Z" fill="white" stroke="#1A1A1A" stroke-width="3" stroke-linecap="round" stroke-linejoin="round"/>
<path d="M137.981 238.249C135.513 238.611 133.091 238.955 130.713 239.279V305.69C133.074 305.568 135.496 305.427 137.981 305.262V238.249Z" fill="white" stroke="#1A1A1A" stroke-width="3" stroke-linecap="round" stroke-linejoin="round"/>
<path d="M204.606 225.234C199.149 226.58 193.759 227.836 188.455 229.007V299.527C193.698 298.691 199.083 297.759 204.606 296.723V225.237V225.234Z" fill="white" stroke="#1A1A1A" stroke-width="3" stroke-linecap="round" stroke-linejoin="round"/>
<path d="M454.156 57.6074L381.067 92.87L427.504 97.3404C383.515 154.11 318.088 189.092 254.677 210.643V285.149C259.955 283.703 265.317 282.16 270.759 280.517C396.009 242.705 442.935 103.093 442.935 103.093L475.353 135.242L454.153 57.6045L454.156 57.6074Z" fill="white" stroke="#1A1A1A" stroke-width="3" stroke-linecap="round" stroke-linejoin="round"/>
<path d="M124.521 164.492H82.0852V325.924H124.521V164.492Z" stroke="#1A1A1A" stroke-width="3" stroke-linecap="round" stroke-linejoin="round"/>
<path d="M182.347 84.0941L188.255 95.5262V325.927H182.347V84.0941Z" fill="#2D317B" stroke="#1A1A1A" stroke-width="3" stroke-miterlimit="10"/>
<path d="M248.705 118.793L254.611 130.222V325.927H248.705V118.793Z" fill="#2D317B" stroke="#1A1A1A" stroke-width="3" stroke-miterlimit="10"/>
<path d="M124.521 164.492L130.429 175.924V325.927H124.521V164.492Z" fill="#2D317B" stroke="#1A1A1A" stroke-width="3" stroke-miterlimit="10"/>
<path d="M182.347 84.0941H137.889V325.924H182.347V84.0941Z" stroke="#1A1A1A" stroke-width="3" stroke-linecap="round" stroke-linejoin="round"/>
<path d="M248.705 118.793H204.247V325.927H248.705V118.793Z" stroke="#1A1A1A" stroke-width="3" stroke-linecap="round" stroke-linejoin="round"/>
<path d="M391.637 39.4248C390.661 31.9944 383.85 26.7573 376.423 27.7295L248.737 44.4219C247.855 44.5376 246.995 44.7372 246.179 45.0121C236.642 19.9142 212.363 2.07314 183.915 2.07314C147.142 2.07314 117.331 31.8845 117.331 68.6575C117.331 105.431 147.142 135.245 183.915 135.245C220.688 135.245 248.983 106.929 250.444 71.4468C251.043 71.4468 251.645 71.4121 252.256 71.3311L379.938 54.6358C387.369 53.6665 392.603 46.8524 391.637 39.4248ZM186.186 119.759C185.434 119.794 184.676 119.811 183.918 119.811C155.715 119.811 132.77 96.8659 132.77 68.6604C132.77 40.4549 155.715 17.5127 183.918 17.5127C184.676 17.5127 185.434 17.53 186.186 17.5647C213.341 18.7539 235.068 41.2159 235.068 68.6604C235.068 96.1049 213.341 118.57 186.186 119.759Z" fill="white" stroke="#1A1A1A" stroke-width="3" stroke-linecap="round" stroke-linejoin="round"/>
<path d="M186.186 119.759C185.434 119.794 184.676 119.811 183.918 119.811C155.715 119.811 132.77 96.8659 132.77 68.6604C132.77 40.4549 155.715 17.5126 183.918 17.5126C184.676 17.5126 185.434 17.53 186.186 17.5647C159.031 18.7539 137.31 41.2159 137.31 68.6604C137.31 96.1049 159.031 118.57 186.186 119.759Z" fill="#2D317B" stroke="#1A1A1A" stroke-width="3" stroke-miterlimit="10"/>
<path d="M336.716 308.867V325.927C336.716 325.927 364.782 324.275 369.183 324.46C373.584 324.645 373.564 319.897 371.568 319.003C359.806 317.97 351.481 314.602 351.481 314.602L346.597 310.131L336.716 308.87V308.867Z" fill="#2D317B" stroke="#1A1A1A" stroke-width="3" stroke-miterlimit="10"/>
<path d="M332.954 272.731V312.351H351.024V274.198L332.954 272.731Z" fill="white" stroke="#1A1A1A" stroke-width="3" stroke-linecap="round" stroke-linejoin="round"/>
<path d="M320.136 308.867V325.927C320.136 325.927 292.07 324.275 287.669 324.46C283.268 324.642 283.288 319.897 285.285 319.003C297.046 317.97 305.371 314.602 305.371 314.602L310.255 310.131L320.136 308.87V308.867Z" fill="#2D317B" stroke="#1A1A1A" stroke-width="3" stroke-miterlimit="10"/>
<path d="M323.901 272.731V312.351H305.828V274.198L323.901 272.731Z" fill="white" stroke="#1A1A1A" stroke-width="3" stroke-linecap="round" stroke-linejoin="round"/>
<path d="M279.257 119.519C279.257 119.519 262.232 133.7 276.384 140.916L278.45 142.013L291.965 119.519L283.383 113.879L279.257 119.519Z" fill="white" stroke="#1A1A1A" stroke-width="3" stroke-linecap="round" stroke-linejoin="round"/>
<path d="M353.272 107.135C353.272 107.135 379.137 124.056 374.837 200.709C371.197 265.584 365.242 294.634 365.242 294.634L297.828 296.654C297.828 296.654 279.084 159.498 280.174 145.87C281.61 118.793 292.602 119.105 292.602 119.105L353.272 107.135Z" fill="white" stroke="#1A1A1A" stroke-width="3" stroke-linecap="round" stroke-linejoin="round"/>
<path d="M297.668 123.156C297.668 123.156 327.934 141.992 366.102 114.739L361.469 110.37L297.668 123.156Z" fill="#25383F" stroke="#1A1A1A" stroke-linecap="round" stroke-linejoin="round"/>
<path d="M249.22 98.6511L283.155 64.1669C283.155 64.1669 293.427 61.4152 294.894 70.9549L267.744 99.5713L286.639 114.062L278.447 121.767C278.447 121.767 244.125 103.828 249.218 98.654L249.22 98.6511Z" fill="#2D317B" stroke="#1A1A1A" stroke-width="3" stroke-miterlimit="10"/>
<path d="M346.956 42.3096C346.956 42.3096 340.529 43.7737 339.566 38.062C338.602 32.3503 335.709 31.6154 333.139 33.3022C331.936 32.3503 330.57 28.9215 338.119 27.5587C345.671 26.1988 350.251 26.9308 351.776 28.8347C353.304 30.7386 354.024 39.8212 354.024 39.8212L346.956 42.3125V42.3096Z" fill="white" stroke="#1A1A1A" stroke-width="3" stroke-linecap="round" stroke-linejoin="round"/>
<path d="M314.338 58.4812L349.375 57.6102L343.689 42.9809C343.689 42.9809 342.129 38.2125 347.725 37.2952C353.321 36.378 354.971 41.8814 354.971 41.8814L361.848 61.7826C361.848 61.7826 363.59 66.4614 354.511 67.5609C345.431 68.6604 321.675 68.6604 321.675 68.6604L314.338 58.4812Z" fill="#2D317B" stroke="#1A1A1A" stroke-width="3" stroke-miterlimit="10"/>
<path d="M285.172 60.0841L316.54 57.6073C316.54 57.6073 359.05 94.7536 365.242 111.675C319.844 143.043 285.175 119.93 285.175 119.93V60.0841H285.172Z" fill="#2D317B" stroke="#1A1A1A" stroke-width="3" stroke-miterlimit="10"/>
<path d="M262.886 40.8716C262.886 40.8716 256.833 70.8623 269.214 68.1106C281.595 65.3589 285.172 57.1039 285.172 57.1039L262.883 40.8687L262.886 40.8716Z" fill="white" stroke="#1A1A1A" stroke-width="3" stroke-linecap="round" stroke-linejoin="round"/>
<path d="M260.592 40.1367C260.592 40.1367 270.496 24.9112 283.887 28.7624C297.278 32.6136 319.639 56.8782 326.803 53.5507C318.007 79.0219 303.415 90.5784 283.106 68.9353C262.794 47.2893 260.592 40.1367 260.592 40.1367Z" fill="#25383F" stroke="#1A1A1A" stroke-linecap="round" stroke-linejoin="round"/>
<path d="M171.227 45.1857C164.558 35.047 150.496 54.2307 149.454 61.7624C147.813 67.4394 148.276 88.3591 158.626 84.994C161.543 83.8598 162.987 80.5757 161.852 77.662C159.992 72.6071 159.555 69.2246 160.371 64.8381C161.401 59.8064 165.024 55.3447 169.031 52.8592C171.742 51.3401 172.729 47.9143 171.227 45.1886V45.1857Z" fill="white" stroke="#1A1A1A" stroke-width="3" stroke-linecap="round" stroke-linejoin="round"/>
<path d="M254.677 311.292H480" stroke="#1A1A1A" stroke-width="3" stroke-linecap="round" stroke-linejoin="round"/>
<path d="M107.351 140.589C107.351 139.29 106.897 138.196 105.985 137.305C105.074 136.414 103.537 135.609 101.376 134.889C98.3668 133.972 96.1736 132.774 94.7963 131.298C93.419 129.822 92.7303 127.947 92.7303 125.673C92.7303 123.399 93.4045 121.457 94.7529 119.973C96.1012 118.489 97.9559 117.606 100.314 117.326V112.684H103.471V117.346C105.844 117.67 107.69 118.665 109.012 120.332C110.331 121.998 110.994 124.279 110.994 127.175H107.096C107.096 125.178 106.622 123.59 105.676 122.415C104.73 121.238 103.451 120.65 101.842 120.65C100.233 120.65 98.876 121.084 97.9849 121.955C97.0937 122.826 96.651 124.038 96.651 125.595C96.651 127.039 97.1197 128.188 98.0601 129.044C99.0005 129.901 100.546 130.679 102.701 131.379C104.854 132.079 106.535 132.849 107.745 133.691C108.951 134.533 109.842 135.511 110.415 136.625C110.988 137.742 111.275 139.047 111.275 140.546C111.275 142.933 110.557 144.854 109.125 146.309C107.69 147.765 105.681 148.627 103.098 148.893V152.941H99.9611V148.893C97.3338 148.653 95.2766 147.718 93.7864 146.087C92.2963 144.455 91.5498 142.241 91.5498 139.446H95.4704C95.4704 141.411 95.9855 142.921 97.0156 143.98C98.0456 145.039 99.5097 145.569 101.402 145.569C103.294 145.569 104.706 145.123 105.765 144.235C106.824 143.344 107.354 142.131 107.354 140.592L107.351 140.589Z" fill="white" stroke="#1A1A1A" stroke-width="3" stroke-linecap="round" stroke-linejoin="round"/>
<path d="M87.8142 184.575H113.06" stroke="#1A1A1A" stroke-width="3" stroke-linecap="round" stroke-linejoin="round"/>
<path d="M87.8142 208.562H113.06" stroke="#1A1A1A" stroke-width="3" stroke-linecap="round" stroke-linejoin="round"/>
<path d="M87.8142 232.549H113.06" stroke="#1A1A1A" stroke-width="3" stroke-linecap="round" stroke-linejoin="round"/>
<path d="M87.8142 256.533H113.06" stroke="#1A1A1A" stroke-width="3" stroke-linecap="round" stroke-linejoin="round"/>
<path d="M87.8142 280.52H113.06" stroke="#1A1A1A" stroke-width="3" stroke-linecap="round" stroke-linejoin="round"/>
<path d="M87.8142 304.507H113.06" stroke="#1A1A1A" stroke-width="3" stroke-linecap="round" stroke-linejoin="round"/>
<path d="M146.031 184.575H171.276" stroke="#1A1A1A" stroke-width="3" stroke-linecap="round" stroke-linejoin="round"/>
<path d="M146.031 208.562H171.276" stroke="#1A1A1A" stroke-width="3" stroke-linecap="round" stroke-linejoin="round"/>
<path d="M146.031 232.549H171.276" stroke="#1A1A1A" stroke-width="3" stroke-linecap="round" stroke-linejoin="round"/>
<path d="M146.031 256.533H171.276" stroke="#1A1A1A" stroke-width="3" stroke-linecap="round" stroke-linejoin="round"/>
<path d="M146.031 280.52H171.276" stroke="#1A1A1A" stroke-width="3" stroke-linecap="round" stroke-linejoin="round"/>
<path d="M146.031 304.507H171.276" stroke="#1A1A1A" stroke-width="3" stroke-linecap="round" stroke-linejoin="round"/>
<path d="M211.027 184.575H236.272" stroke="#1A1A1A" stroke-width="3" stroke-linecap="round" stroke-linejoin="round"/>
<path d="M211.027 208.562H236.272" stroke="#1A1A1A" stroke-width="3" stroke-linecap="round" stroke-linejoin="round"/>
<path d="M211.027 232.549H236.272" stroke="#1A1A1A" stroke-width="3" stroke-linecap="round" stroke-linejoin="round"/>
<path d="M211.027 256.533H236.272" stroke="#1A1A1A" stroke-width="3" stroke-linecap="round" stroke-linejoin="round"/>
<path d="M211.027 280.52H236.272" stroke="#1A1A1A" stroke-width="3" stroke-linecap="round" stroke-linejoin="round"/>
<path d="M211.027 304.507H236.272" stroke="#1A1A1A" stroke-width="3" stroke-linecap="round" stroke-linejoin="round"/>
<path d="M203.093 311.292H188.455" stroke="#1A1A1A" stroke-width="3" stroke-linecap="round" stroke-linejoin="round"/>
<path d="M137.889 311.292H130.429" stroke="#1A1A1A" stroke-width="3" stroke-linecap="round" stroke-linejoin="round"/>
<path d="M81.4487 311.292H2" stroke="#1A1A1A" stroke-width="3" stroke-linecap="round" stroke-linejoin="round"/>
<path d="M45.3673 300.418H23.186V325.782H45.3673V300.418Z" fill="#2D317B" stroke="#1A1A1A" stroke-width="3" stroke-miterlimit="10"/>
<path d="M70.2337 71.8866C70.2337 85.1763 59.4614 95.9486 46.1717 95.9486C32.882 95.9486 22.1125 85.1763 22.1125 71.8866C22.1125 58.5969 32.8849 47.8246 46.1717 47.8246C48.6687 47.8246 51.079 48.2036 53.3446 48.9125L46.1717 71.8866L67.8264 61.3891C69.3657 64.5633 70.2308 68.1251 70.2308 71.8866H70.2337Z" fill="white" stroke="#1A1A1A" stroke-width="3" stroke-linecap="round" stroke-linejoin="round"/>
<path d="M71.3302 57.2081L49.6755 67.7056L56.8484 44.7315C63.2198 46.7193 68.4541 51.2852 71.3302 57.2052V57.2081Z" fill="#2D317B" stroke="#1A1A1A" stroke-width="3" stroke-miterlimit="10"/>
<path d="M464.653 200.712V225.234H424.006V200.712H428.06L444.33 212.972L460.44 200.712H464.653Z" fill="#2D317B" stroke="#1A1A1A" stroke-width="3" stroke-miterlimit="10"/>
<path d="M464.15 196.071L460.44 198.895L444.329 211.155L428.059 198.895L424.984 196.578L464.15 196.071Z" fill="#D1E0E6"/>
<path d="M45.0867 245.211C54.2417 245.211 61.6633 237.789 61.6633 228.634C61.6633 219.479 54.2417 212.058 45.0867 212.058C35.9316 212.058 28.51 219.479 28.51 228.634C28.51 237.789 35.9316 245.211 45.0867 245.211Z" fill="#2D317B" stroke="#1A1A1A" stroke-width="3" stroke-miterlimit="10"/>
</svg>
