<svg width="429" height="328" viewBox="0 0 429 328" fill="none" xmlns="http://www.w3.org/2000/svg">
<path d="M60.7849 92.6822C73.7037 92.6822 84.1764 81.5994 84.1764 67.928C84.1764 54.2567 73.7037 43.1738 60.7849 43.1738C47.8661 43.1738 37.3933 54.2567 37.3933 67.928C37.3933 81.5994 47.8661 92.6822 60.7849 92.6822Z" fill="white" stroke="#1A1A1A" stroke-width="3" stroke-linecap="round" stroke-linejoin="round"/>
<path d="M59.7047 51.0552V69.8144L70.76 81.5109" fill="white"/>
<path d="M59.7047 51.0552V69.8144L70.76 81.5109" stroke="#1A1A1A" stroke-width="3" stroke-linecap="round" stroke-linejoin="round"/>
<path d="M267.654 78.9204V149.687H428.368V78.9204H267.654ZM422.13 143.65H273.892V84.9573H422.13V143.65Z" fill="#2D317B"/>
<path d="M422.13 84.9575H273.892V143.65H422.13V84.9575Z" fill="#63B4FF"/>
<path d="M422.13 84.9575H273.892V143.65H422.13V84.9575Z" fill="white" stroke="#1A1A1A" stroke-width="3" stroke-linecap="round" stroke-linejoin="round"/>
<path d="M279.586 121.872L289.875 115.321L296.636 116.959L302.146 111.5L312.229 114.913L324.499 108.498L333.463 110.955L340.298 100.309L344.78 102.221L353.912 99.4906L359.458 101.539L366.349 105.36L372.904 105.497L378.619 101.947L384.67 105.634L392.065 107.545L399.459 103.177V98.1267L404.501 93.7583L409.376 92.8025C409.376 92.8025 411.899 89.5269 412.739 89.5269H416.436" stroke="#1A1A1A" stroke-width="3" stroke-linecap="round" stroke-linejoin="round"/>
<path d="M280.896 131.109L288.534 136.447L295.205 130.561H303.994L314.416 125.771L324.499 127.688L331.334 122.624L348.012 123.72L356.77 119.477L368.871 116.875L373.746 112.769L387.696 117.87L392.569 111.291L402.317 106.064L416.436 109.348" stroke="#1A1A1A" stroke-width="3" stroke-linecap="round" stroke-linejoin="round"/>
<path d="M406.07 127.238H384.221V129.729H406.07V127.238Z" fill="#25383F" stroke="#1A1A1A" stroke-linecap="round" stroke-linejoin="round"/>
<path d="M406.07 133.957H384.221V136.447H406.07V133.957Z" fill="#25383F" stroke="#1A1A1A" stroke-linecap="round" stroke-linejoin="round"/>
<path d="M312.382 223.507L307.475 247.585H303.036L307.943 223.507H312.382Z" fill="#2D317B" stroke="#1A1A1A" stroke-width="2" stroke-linecap="round" stroke-linejoin="round"/>
<path d="M319.508 223.507L314.601 247.585H310.161L315.068 223.507H319.508Z" fill="#2D317B" stroke="#1A1A1A" stroke-width="2" stroke-linecap="round" stroke-linejoin="round"/>
<path d="M321.726 247.585H317.289L322.194 223.507H326.633L321.726 247.585Z" fill="white" stroke="#1A1A1A" stroke-width="2" stroke-linecap="round" stroke-linejoin="round"/>
<path d="M328.854 247.585H324.415L329.319 223.507H333.759L328.854 247.585Z" fill="white" stroke="#1A1A1A" stroke-width="2" stroke-linecap="round" stroke-linejoin="round"/>
<path d="M340.884 223.507L335.98 247.585H331.54L336.447 223.507H340.884Z" fill="#2D317B" stroke="#1A1A1A" stroke-width="2" stroke-linecap="round" stroke-linejoin="round"/>
<path d="M352.917 247.585H357.356L352.449 223.507H348.012L352.917 247.585Z" fill="white" stroke="#1A1A1A" stroke-width="2" stroke-linecap="round" stroke-linejoin="round"/>
<path d="M350.231 247.585H345.791L340.884 223.507H345.324L350.231 247.585Z" fill="#2D317B" stroke="#1A1A1A" stroke-width="2" stroke-miterlimit="10"/>
<path d="M252.584 309.771V326.406H233.991C235.658 316.35 243.359 311.196 252.584 309.771Z" fill="white" stroke="#1A1A1A" stroke-width="2" stroke-linecap="round" stroke-linejoin="round"/>
<path d="M419.927 326.253H366.196V300.338H359.186V326.253H286.099V326.406H259.593V309.374C268.525 309.676 277.809 312.896 283.917 318.106C286.87 311.75 290.216 306.026 293.871 300.909C294.009 300.719 294.146 300.526 294.283 300.338C294.925 299.453 295.577 298.586 296.238 297.736C297.297 296.375 298.377 295.062 299.481 293.793C323.136 266.602 356.553 260.64 382.251 269.408C383.08 269.69 383.899 269.986 384.709 270.299C407.15 278.952 423.012 299.137 419.927 326.253Z" fill="white" stroke="#1A1A1A" stroke-width="2" stroke-linecap="round" stroke-linejoin="round"/>
<path d="M30.0328 326.406C30.0328 326.406 38.933 308.619 51.4383 300.567C68.3171 289.698 88.4232 290.274 102.772 296.199C121.589 303.969 137.916 326.398 137.929 326.406H30.0354H30.0328Z" fill="white" stroke="#1A1A1A" stroke-width="2" stroke-linecap="round" stroke-linejoin="round"/>
<path d="M259.593 309.374V326.406H252.584V309.771C254.85 309.418 257.209 309.293 259.593 309.374Z" fill="#2D317B" stroke="#1A1A1A" stroke-linecap="round" stroke-linejoin="round"/>
<path d="M259.593 300.338V309.374C257.209 309.293 254.85 309.419 252.584 309.771V300.338H259.593Z" fill="#2D317B" stroke="#1A1A1A" stroke-linecap="round" stroke-linejoin="round"/>
<path d="M259.593 294.815H252.584V300.338H259.593V294.815Z" fill="#25383F" stroke="#1A1A1A" stroke-linecap="round" stroke-linejoin="round"/>
<path d="M366.196 300.338H359.186V326.252H366.196V300.338Z" fill="#2D317B" stroke="#1A1A1A" stroke-linecap="round" stroke-linejoin="round"/>
<path d="M366.196 294.815H359.186V300.338H366.196V294.815Z" fill="#25383F" stroke="#1A1A1A" stroke-linecap="round" stroke-linejoin="round"/>
<path d="M366.196 326.252H359.186V326.406H366.196V326.252Z" fill="#25383F" stroke="#1A1A1A" stroke-linecap="round" stroke-linejoin="round"/>
<path d="M384.709 263.949V283.974C384.709 292.999 377.774 300.338 369.249 300.338H246.996C238.47 300.338 231.535 292.999 231.535 283.974V263.949C231.535 254.927 238.47 247.585 246.996 247.585H369.249C377.774 247.585 384.709 254.927 384.709 263.949Z" fill="white" stroke="#1A1A1A" stroke-width="2" stroke-linecap="round" stroke-linejoin="round"/>
<path d="M369.246 250.187H246.996C239.814 250.187 233.991 256.348 233.991 263.949V283.974C233.991 291.575 239.814 297.736 246.996 297.736H369.246C376.428 297.736 382.251 291.575 382.251 283.974V263.949C382.251 256.348 376.428 250.187 369.246 250.187Z" fill="white" stroke="#1A1A1A" stroke-width="2" stroke-linecap="round" stroke-linejoin="round"/>
<path d="M218.94 326.406H215.699C215.699 326.406 211.579 326.406 206.15 324.458C200.717 322.513 197.125 317.272 197.125 317.272L196.716 321.124C195.715 319.679 194.326 317.848 192.667 316.143L192.472 308.256C192.472 308.256 192.514 308.22 192.606 308.161C193.66 308.332 200.611 309.645 203.141 314.715C205.722 312.82 208.788 312.535 209.538 312.493C209.593 312.53 209.652 312.566 209.71 312.605C215.47 316.048 219.817 323.829 219.817 323.829C219.817 323.829 221.919 326.018 218.94 326.406Z" fill="#2D317B" stroke="#1A1A1A" stroke-linecap="round" stroke-linejoin="round"/>
<path d="M192.606 308.161C193.446 307.619 198.353 305.162 209.538 312.493L192.606 308.161Z" fill="#25383F"/>
<path d="M192.606 308.161C193.446 307.619 198.353 305.162 209.538 312.493" stroke="#1A1A1A" stroke-linecap="round" stroke-linejoin="round"/>
<path d="M196.716 321.124L196.161 326.322H192.918L192.667 316.144L196.716 321.124Z" fill="#25383F" stroke="#1A1A1A" stroke-linecap="round" stroke-linejoin="round"/>
<path d="M209.71 312.488C209.71 312.488 209.649 312.488 209.538 312.493C208.788 312.535 205.722 312.82 203.141 314.715C200.611 309.645 193.66 308.332 192.606 308.161C192.519 308.145 192.472 308.139 192.472 308.139C192.472 308.139 192.472 305.216 191.994 300.464C191.368 294.229 189.918 284.852 186.564 274.816C188.188 274.816 197.31 274.57 197.31 274.57C197.31 274.57 198.924 288.133 202.251 299.128C204.164 305.456 206.646 310.931 209.71 312.488Z" fill="white" stroke="#1A1A1A" stroke-width="2" stroke-linecap="round" stroke-linejoin="round"/>
<path d="M97.1174 240.816L80.8329 292.007L70.0073 326.034H67.0995L75.086 292.323L88.6213 235.179C91.2729 237.18 94.104 239.069 97.1174 240.816Z" fill="white" stroke="#1A1A1A" stroke-width="2" stroke-linecap="round" stroke-linejoin="round"/>
<path d="M159.081 326.035H156.176L148.028 300.422L132.872 252.775C135.806 253.195 138.832 253.513 141.954 253.726L149.431 285.288L153.3 301.616L159.084 326.035H159.081Z" fill="white" stroke="#1A1A1A" stroke-width="2" stroke-linecap="round" stroke-linejoin="round"/>
<path d="M161.4 229.662C158.952 227.06 155.563 225.447 151.816 225.447C150.973 225.447 150.141 225.439 149.32 225.422C140.922 225.254 133.645 224.234 127.331 222.624C127.164 222.582 127.001 222.54 126.837 222.499C120.675 220.886 115.433 218.714 110.904 216.179C110.309 215.844 109.726 215.506 109.155 215.156C109.087 215.117 109.018 215.075 108.949 215.033C105.804 213.108 103.02 210.998 100.524 208.748C97.8992 206.381 95.5989 203.857 93.56 201.224C92.9129 200.388 92.2923 199.539 91.6954 198.681C90.6522 199.555 89.5509 200.416 88.3836 201.258C95.48 217.574 112.28 230.939 121.853 232.378C123.533 229.584 125.041 226.923 126.399 224.393C137.169 226.028 146.248 232.18 149.08 254.036C149.983 254.053 150.897 254.061 151.816 254.061C154.687 254.061 157.349 253.114 159.538 251.501C160.204 251.009 160.827 250.453 161.4 249.846C163.832 247.258 165.335 243.689 165.335 239.754C165.335 235.819 163.832 232.25 161.4 229.662Z" fill="#63B4FF"/>
<path d="M98.6757 235.917L97.1175 240.816C94.104 239.069 91.2729 237.18 88.6213 235.179L89.2842 232.378L98.6757 235.917Z" fill="#2D317B"/>
<path d="M149.08 254.036C146.65 253.991 144.276 253.888 141.951 253.726L137.507 234.958L128.746 239.821L132.869 252.775C129.018 252.23 125.326 251.515 121.787 250.643C112.787 248.427 104.768 245.182 97.7275 241.168C97.5242 241.051 97.3208 240.936 97.1174 240.816L98.6757 235.917L89.2842 232.378L88.6213 235.179C87.3509 234.22 86.1229 233.236 84.9344 232.23C79.8187 227.895 75.4637 223.144 71.7847 218.228C66.8777 211.674 63.175 204.841 60.3729 198.245C56.6384 189.444 54.486 181.062 53.213 174.077C51.5201 164.765 51.3855 157.915 51.3828 155.74C51.3828 155.394 51.3855 155.164 51.3881 155.061C51.5571 147.16 57.7424 140.902 65.2059 141.078C72.651 141.254 78.5537 147.766 78.419 155.637H78.4216V155.74C78.4216 156.263 78.4454 158.675 78.8336 162.263C79.2192 165.852 79.9693 170.615 81.3769 175.844C82.3119 179.332 83.5399 183.024 85.1272 186.727C86.8597 190.768 89.0174 194.818 91.6954 198.681C90.6522 199.555 89.5509 200.416 88.3836 201.258C95.48 217.574 112.28 230.939 121.853 232.378C123.533 229.584 125.041 226.923 126.398 224.393C137.169 226.028 146.248 232.18 149.08 254.036Z" fill="#2D317B"/>
<path d="M155.085 92.2268H155.083C155.083 92.2268 153.646 105.754 147.926 115.078C147.128 116.377 146.249 117.593 145.279 118.68C148.707 120.156 151.053 125.078 151.544 128.555C151.684 129.536 151.676 130.402 151.504 131.045C151.446 131.263 151.325 131.472 151.142 131.668C150.144 132.758 147.35 133.51 143.597 133.932C143.214 133.977 142.823 134.016 142.419 134.052C142.411 130.922 142.419 128.163 142.427 126.263L142.166 126.221C141.476 127.263 140.09 128.577 137.686 127.97C135.679 127.465 133.622 125.461 132.13 123.686L132.098 123.677C133.223 126.347 134.536 130.142 135.79 134.343C135.051 134.348 134.298 134.343 133.54 134.332C132.056 134.306 130.542 134.25 129.021 134.164C125.598 133.965 122.147 133.613 118.956 133.105C118.143 132.976 117.345 132.836 116.571 132.688C111.157 131.646 106.805 130.117 105.159 128.124C104.856 127.755 104.581 127.389 104.335 127.026C99.9434 120.503 105.191 114.991 115.222 113.057C111.358 108.476 111.641 94.8847 123.557 90.4325C123.731 71.8913 142.432 64.9181 153.171 73.3726C165.216 82.8584 155.281 92.0479 155.085 92.2268Z" fill="#25383F" stroke="#1A1A1A" stroke-linecap="round" stroke-linejoin="round"/>
<path d="M201.306 169.818L198.113 180.575C194.505 180.83 189.973 180.916 187.322 180.947C185.97 180.961 185.109 180.961 185.109 180.961L184.562 180.117L181.43 175.271C181.43 175.271 182.254 174.715 183.611 173.932C185.035 173.113 187.047 172.046 189.313 171.12C192.039 170.005 195.129 169.091 197.999 169.058C199.336 169.041 200.426 169.329 201.306 169.818Z" fill="white" stroke="#1A1A1A" stroke-width="2" stroke-linecap="round" stroke-linejoin="round"/>
<path d="M203.419 179.72C203.012 179.994 201.892 180.206 200.395 180.374L203.065 171.377C205.188 174.253 204.665 178.882 203.419 179.72Z" fill="white" stroke="#1A1A1A" stroke-width="2" stroke-linecap="round" stroke-linejoin="round"/>
<path d="M187.33 180.961L187.322 180.947L186.738 179.846L183.611 173.932L183.051 172.873C183.051 172.873 173.58 173.898 169.793 172.286C169.397 172.115 169.025 171.626 168.673 170.877C168.383 170.257 168.103 169.455 167.834 168.51C167.675 167.959 167.519 167.361 167.369 166.721C165.079 157.14 163.193 138.163 158.595 132.593C157.634 131.428 154.737 129.941 151.544 128.554C151.013 128.322 150.474 128.096 149.935 127.872C147.231 126.754 144.511 125.757 142.731 125.125C142.628 125.089 142.527 125.052 142.432 125.019C141.365 124.642 140.708 124.421 140.708 124.421C140.496 125.159 136.59 124.39 132.056 123.571C132.048 123.571 132.037 123.568 132.029 123.568C131.681 123.507 131.332 123.443 130.978 123.381C126.517 122.593 121.692 121.875 119.273 122.548C119.175 122.576 119.08 122.604 118.99 122.638C118.119 122.948 117.636 123.482 117.71 124.32C117.889 126.358 117.247 129.343 116.571 132.688C115.494 138.012 114.329 144.248 116.257 149.01C121.124 161.022 130.194 173.557 137.729 182.775C137.863 182.94 137.998 183.105 138.133 183.267C138.286 183.451 138.436 183.636 138.587 183.817C139.245 184.614 139.889 185.383 140.517 186.12C141.096 186.805 141.661 187.462 142.21 188.091C144.466 190.696 146.41 192.822 147.809 194.323C149.299 195.916 150.176 196.802 150.176 196.802L157.481 194.323L158.97 193.817C158.97 193.817 157.523 192.839 154.911 190.36C152.92 188.689 151.639 186.5 150.857 184.077C150.825 183.98 150.796 183.882 150.767 183.781C150.709 183.597 150.656 183.412 150.606 183.225C149.36 178.608 149.774 173.297 150.495 169.164C151.203 165.086 152.207 162.154 152.207 162.154C152.207 162.154 152.682 164.988 153.699 168.7C154.7 172.344 156.221 176.836 158.326 180.315C159.131 181.654 160.027 182.845 161.012 183.781C161.205 183.966 161.4 184.139 161.601 184.304C162.224 184.812 162.879 185.218 163.571 185.497C167.081 186.917 172.189 186.38 176.808 185.329C178.828 184.871 180.756 184.315 182.415 183.781C182.555 183.736 182.692 183.692 182.827 183.647C185.777 182.68 187.787 181.827 187.787 181.827L187.33 180.961ZM135.79 134.343C134.536 130.142 133.223 126.346 132.098 123.677L132.13 123.686C133.622 125.46 135.679 127.464 137.686 127.97C140.09 128.577 141.476 127.263 142.165 126.221L142.427 126.263C142.419 128.163 142.411 130.922 142.419 134.052C142.43 140.732 142.498 149.094 142.736 154.337C143.048 161.243 142.923 167.275 142.82 170.271L139.833 170.704C140.256 166.769 140.586 162.574 140.607 158.923C140.642 153.091 138.341 142.881 135.79 134.343Z" fill="white" stroke="#1A1A1A" stroke-width="2" stroke-linecap="round" stroke-linejoin="round"/>
<path d="M142.419 134.052C140.404 134.236 138.156 134.331 135.79 134.342C134.536 130.142 133.223 126.346 132.098 123.677L132.13 123.686C133.622 125.46 135.679 127.464 137.686 127.97C140.09 128.577 141.476 127.263 142.165 126.221L142.427 126.263C142.419 128.163 142.411 130.922 142.419 134.052Z" fill="#2D317B" stroke="#1A1A1A" stroke-width="2" stroke-linecap="round" stroke-linejoin="round"/>
<path d="M132.13 123.686L140.607 125.969L142.165 126.22C141.476 127.263 140.09 128.577 137.686 127.97C135.679 127.464 133.622 125.46 132.13 123.686Z" fill="#63B4FF" stroke="#1A1A1A" stroke-width="2" stroke-linecap="round" stroke-linejoin="round"/>
<path d="M142.821 170.271L139.834 170.704C140.256 166.769 140.586 162.573 140.607 158.923C140.642 153.09 138.341 142.881 135.79 134.342C138.156 134.331 140.404 134.236 142.419 134.052C142.43 140.732 142.498 149.094 142.736 154.337C143.048 161.243 142.924 167.274 142.821 170.271Z" fill="#2D317B" stroke="#1A1A1A" stroke-width="2" stroke-linecap="round" stroke-linejoin="round"/>
<path d="M135.79 134.342C138.341 142.881 140.642 153.09 140.607 158.923C140.586 162.573 140.256 166.769 139.833 170.704L139.131 170.804C139.131 170.804 134.8 141.71 133.54 134.331C133.397 133.501 133.294 132.945 133.241 132.738C132.716 130.698 131.752 123.585 131.752 123.585L132.098 123.677C133.223 126.346 134.536 130.142 135.79 134.342Z" fill="#63B4FF" stroke="#1A1A1A" stroke-width="2" stroke-linecap="round" stroke-linejoin="round"/>
<path d="M142.82 170.271C142.923 167.275 143.048 161.243 142.736 154.337C142.498 149.094 142.43 140.732 142.419 134.052C142.411 130.922 142.419 128.163 142.427 126.263L143.491 126.433L143.597 133.932L144.104 170.086L142.82 170.271Z" fill="#63B4FF" stroke="#1A1A1A" stroke-width="2" stroke-linecap="round" stroke-linejoin="round"/>
<path d="M188.159 312.493C187.409 312.535 184.345 312.82 181.762 314.715C179.232 309.645 172.284 308.332 171.23 308.161C172.07 307.619 176.974 305.162 188.159 312.493Z" fill="#25383F" stroke="#1A1A1A" stroke-linecap="round" stroke-linejoin="round"/>
<path d="M197.564 326.406H194.32C194.32 326.406 193.813 326.406 192.918 326.322L192.667 316.144L196.716 321.124C197.812 322.706 198.438 323.829 198.438 323.829C198.438 323.829 200.543 326.018 197.564 326.406Z" fill="#25383F" stroke="#1A1A1A" stroke-linecap="round" stroke-linejoin="round"/>
<path d="M188.331 312.488C188.331 312.488 188.27 312.488 188.159 312.493C187.409 312.535 184.345 312.82 181.762 314.715C179.232 309.645 172.284 308.332 171.23 308.161C171.143 308.145 171.095 308.139 171.095 308.139V272.06C172.72 272.06 177.769 272.823 177.769 272.823C177.769 272.823 179.293 289.592 182.639 301.437C184.153 306.803 186.041 311.158 188.331 312.488Z" fill="white" stroke="#1A1A1A" stroke-width="2" stroke-linecap="round" stroke-linejoin="round"/>
<path d="M221.38 296.012C221.38 296.012 213.278 297.563 202.251 299.128C199.037 299.584 195.578 300.042 191.994 300.464C188.938 300.822 185.793 301.155 182.639 301.437C178.752 301.784 174.856 302.055 171.095 302.203C169.711 302.259 168.349 302.295 167.01 302.317C166.054 302.329 165.113 302.334 164.186 302.329C163.241 302.323 162.311 302.306 161.4 302.278C158.463 302.189 155.73 301.976 153.297 301.616C151.325 301.322 149.552 300.928 148.029 300.422C148.647 295.003 149.111 289.97 149.431 285.288C150.324 272.345 150.131 262.116 149.082 254.036C146.251 232.18 137.171 226.029 126.401 224.394C122.271 223.765 117.889 223.801 113.516 223.871C111.16 220.822 109.715 217.926 108.992 215.187C108.978 215.137 108.965 215.084 108.952 215.033C105.505 201.464 119.846 191.819 129.219 187.09C132.045 185.665 134.417 184.687 135.716 184.181C136.4 183.915 136.786 183.781 136.786 183.781L137.803 183.801C137.879 183.804 137.958 183.806 138.045 183.806C138.207 183.812 138.386 183.815 138.59 183.818C139.868 183.846 142.052 183.893 145.786 183.969C146.528 183.985 147.331 184.002 148.203 184.019C149.027 184.038 149.912 184.058 150.86 184.078C153.789 184.139 157.328 184.214 161.603 184.304C164.939 184.374 168.721 184.455 173.013 184.544C174.309 184.684 175.577 184.95 176.81 185.33C181.541 186.789 185.814 189.952 189.667 194.323C213.729 221.627 221.383 296.012 221.383 296.012H221.38Z" fill="white" stroke="#1A1A1A" stroke-width="2" stroke-linecap="round" stroke-linejoin="round"/>
<path d="M164.186 302.328C163.241 302.323 162.311 302.306 161.4 302.278C158.463 302.189 155.73 301.976 153.297 301.616C151.325 301.322 149.552 300.928 148.029 300.422C148.647 295.003 149.111 289.969 149.431 285.288C150.324 272.345 150.131 262.116 149.082 254.036C146.251 232.18 137.171 226.028 126.401 224.393C122.271 223.764 117.889 223.801 113.516 223.871C111.16 220.821 109.715 217.926 108.992 215.187C109.047 215.176 109.103 215.167 109.158 215.156C113.751 214.309 122.342 213.264 131.02 215.044C137.649 216.406 144.331 219.416 149.323 225.422C150.094 226.35 150.823 227.347 151.507 228.421C155.104 234.072 157.687 242.362 159.541 251.501C160.267 255.084 160.882 258.798 161.403 262.535C163.539 277.901 164.07 293.659 164.189 302.328H164.186Z" fill="white" stroke="#1A1A1A" stroke-width="2" stroke-linecap="round" stroke-linejoin="round"/>
<path d="M131.018 215.045C129.951 217.417 128.731 219.941 127.331 222.624C127.03 223.206 126.718 223.795 126.399 224.393C125.041 226.923 123.533 229.584 121.853 232.378C112.28 230.939 95.4801 217.574 88.3837 201.257C89.551 200.416 90.6523 199.555 91.6956 198.681C104.75 187.716 108.255 174.483 109.037 166.051C109.515 160.93 108.989 157.582 108.989 157.582L135.714 184.181L138.138 186.593L138.17 186.626C138.17 186.626 139.699 195.743 131.018 215.045Z" fill="white" stroke="#1A1A1A" stroke-width="2" stroke-linecap="round" stroke-linejoin="round"/>
<path d="M142.438 123.878C142.601 124.669 142.736 125.108 142.736 125.108C142.736 125.108 142.733 125.114 142.731 125.125C142.707 125.192 142.612 125.446 142.427 125.784C142.356 125.919 142.269 126.067 142.166 126.22C141.476 127.263 140.09 128.576 137.686 127.97C135.679 127.464 133.622 125.46 132.13 123.685C132.111 123.663 132.093 123.644 132.074 123.621C132.061 123.604 132.045 123.585 132.029 123.568C130.762 122.042 129.93 120.717 129.93 120.717L130.183 120.055L135.159 107.076L137.686 100.482C137.686 100.482 140.391 102.964 142.736 110.6C142.411 111.919 142.192 113.196 142.052 114.412C141.569 118.657 142.076 122.129 142.438 123.878Z" fill="white" stroke="#1A1A1A" stroke-width="2" stroke-linecap="round" stroke-linejoin="round"/>
<path d="M155.133 88.5067C155.133 88.5067 155.666 116.324 145.747 115.368C135.824 114.412 133.717 102.775 133.717 102.775C133.717 102.775 127.402 102.965 127.402 98.0009C127.402 93.0372 133.175 94.9461 133.175 94.9461C133.175 94.9461 134.683 82.3664 148.884 87.3944C153.567 83.8756 154.269 85.9829 155.133 88.5039V88.5067Z" fill="white" stroke="#1A1A1A" stroke-width="2" stroke-linecap="round" stroke-linejoin="round"/>
<path d="M146.161 136.254L150.63 143.023L146.058 169.804L145.636 172.28H142.736C142.736 172.28 142.776 171.556 142.82 170.273C142.923 167.274 143.048 161.243 142.736 154.337C142.498 149.094 142.43 140.731 142.419 134.052C142.411 130.921 142.419 128.163 142.427 126.262V125.785C142.43 125.505 142.432 125.251 142.432 125.019C142.435 124.507 142.438 124.122 142.438 123.878C142.44 123.686 142.44 123.585 142.44 123.585L149.402 127.355C149.597 127.473 149.777 127.649 149.935 127.872C150.543 128.708 150.913 130.198 151.142 131.668C151.472 133.789 151.504 135.866 151.504 135.866L146.161 136.254Z" fill="white" stroke="#1A1A1A" stroke-width="2" stroke-linecap="round" stroke-linejoin="round"/>
<path d="M234.419 2V53.6828" stroke="#1A1A1A" stroke-width="3" stroke-linecap="round" stroke-linejoin="round"/>
<path d="M251.583 64.8231H217.255L234.419 52.7129L251.583 64.8231Z" fill="#2D317B" stroke="#1A1A1A" stroke-width="2" stroke-linecap="round" stroke-linejoin="round"/>
<path d="M284.768 2V53.6828" stroke="#1A1A1A" stroke-width="3" stroke-linecap="round" stroke-linejoin="round"/>
<path d="M301.932 64.8231H267.604L284.768 52.7129L301.932 64.8231Z" fill="#2D317B" stroke="#1A1A1A" stroke-width="2" stroke-linecap="round" stroke-linejoin="round"/>
<path d="M141.952 253.726C138.83 253.513 135.803 253.195 132.869 252.775L128.746 239.821L137.507 234.958L141.952 253.726Z" fill="#2D317B" stroke="#1A1A1A" stroke-width="2" stroke-linecap="round" stroke-linejoin="round"/>
<path d="M192.918 326.322C191.267 326.166 188.296 325.721 184.771 324.458C179.338 322.513 175.746 317.272 175.746 317.272L174.782 326.322H171.542L171.095 308.256C171.095 308.256 171.138 308.22 171.23 308.161C172.284 308.332 179.232 309.645 181.762 314.715C184.345 312.82 187.409 312.535 188.159 312.493C188.214 312.53 188.273 312.566 188.331 312.605C189.899 313.544 191.365 314.805 192.667 316.143L192.918 326.322Z" fill="#2D317B" stroke="#1A1A1A" stroke-width="2" stroke-linecap="round" stroke-linejoin="round"/>
<path d="M215.7 326.406H197.564H194.32H137.929H30.0328H1" stroke="#1A1A1A" stroke-width="2" stroke-linecap="round" stroke-linejoin="round"/>
<path d="M424.819 326.406H366.196H359.186H286.099H259.593" stroke="#1A1A1A" stroke-width="2" stroke-linecap="round" stroke-linejoin="round"/>
<path d="M252.584 326.406H233.991H218.94" stroke="#1A1A1A" stroke-width="2" stroke-linecap="round" stroke-linejoin="round"/>
<path d="M299.478 194.575H293.871V325.755H299.478V194.575Z" fill="white" stroke="#1A1A1A" stroke-width="2" stroke-linecap="round" stroke-linejoin="round"/>
<path d="M167.007 194.575H161.4V325.755H167.007V194.575Z" fill="white" stroke="#1A1A1A" stroke-width="2" stroke-linecap="round" stroke-linejoin="round"/>
<path d="M313.248 183.781H147.107C144.356 183.781 142.126 186.141 142.126 189.052C142.126 191.964 144.356 194.323 147.107 194.323H313.248C315.999 194.323 318.229 191.964 318.229 189.052C318.229 186.141 315.999 183.781 313.248 183.781Z" fill="#25383F" stroke="#1A1A1A" stroke-linecap="round" stroke-linejoin="round"/>
<path d="M203.065 171.377L200.395 180.374C199.705 180.45 198.932 180.517 198.113 180.575L201.306 169.818C202.027 170.22 202.608 170.757 203.065 171.377Z" fill="#2D317B" stroke="#1A1A1A" stroke-width="2" stroke-linecap="round" stroke-linejoin="round"/>
<path d="M212.279 140.324L203.065 171.378C202.608 170.757 202.027 170.22 201.306 169.818L210.058 140.324H212.279Z" fill="#2D317B" stroke="#1A1A1A" stroke-width="2" stroke-linecap="round" stroke-linejoin="round"/>
<path d="M256.709 140.324L244.648 180.961H197.999L198.113 180.575C198.932 180.517 199.705 180.45 200.395 180.374L203.065 171.378L212.279 140.324H256.709Z" fill="#63B4FF" stroke="#1A1A1A" stroke-width="2" stroke-linecap="round" stroke-linejoin="round"/>
<path d="M258.931 140.324L246.872 180.961H200.22L200.395 180.374L203.065 171.378L212.279 140.324H258.931Z" fill="white" stroke="#1A1A1A" stroke-width="2" stroke-linecap="round" stroke-linejoin="round"/>
<path d="M246.872 180.961H200.22V183.647H246.872V180.961Z" fill="white" stroke="#1A1A1A" stroke-width="2" stroke-linecap="round" stroke-linejoin="round"/>
<path d="M200.22 180.961H165.311V183.647H200.22V180.961Z" fill="white" stroke="#1A1A1A" stroke-width="2" stroke-linecap="round" stroke-linejoin="round"/>
<path d="M140.607 158.923C140.586 162.574 140.256 166.769 139.833 170.704C139.263 176.022 138.521 180.869 138.133 183.267C138.098 183.462 138.069 183.644 138.043 183.806C137.935 184.471 137.869 184.843 137.869 184.843L137.8 183.801C137.781 183.532 137.758 183.197 137.729 182.775C137.61 180.958 137.38 177.543 136.952 171.123C136.857 169.72 136.754 168.172 136.64 166.467C136.115 162.02 126.293 141.131 126.293 141.131L129.021 134.164L130.157 131.265L126.293 132.04L119.273 122.548L117.414 120.036L130.157 120.024C130.157 120.024 130.175 120.044 130.183 120.055C130.68 120.617 131.327 121.855 132.056 123.571C132.061 123.588 132.069 123.605 132.074 123.621C132.082 123.638 132.09 123.658 132.098 123.677C133.223 126.346 134.536 130.142 135.79 134.343C138.341 142.881 140.642 153.091 140.607 158.923Z" fill="white" stroke="#1A1A1A" stroke-width="2" stroke-linecap="round" stroke-linejoin="round"/>
<path d="M165.311 169.242C165.311 169.242 175.939 165.966 180.085 166.212C184.232 166.458 193.811 173.135 191.883 176.721C189.955 180.307 182.011 181.358 177.748 178.451C173.134 174.558 172.609 174.309 171.557 174.309C170.506 174.309 164.205 176.162 164.205 176.162L165.311 169.239V169.242Z" fill="white" stroke="#1A1A1A" stroke-width="2" stroke-linecap="round" stroke-linejoin="round"/>
<path d="M118.991 122.479C118.991 122.479 99.9989 123.032 99.719 135.771C99.41 149.865 114.731 183.633 127.402 186.769C140.074 189.905 167.791 176.107 167.791 176.107L169.426 166.431L133.078 171.685L118.924 143.158" fill="white"/>
<path d="M118.991 122.479C118.991 122.479 99.9989 123.032 99.719 135.771C99.41 149.865 114.731 183.633 127.402 186.769C140.074 189.905 167.791 176.107 167.791 176.107L169.426 166.431L133.078 171.685L118.924 143.158" stroke="#1A1A1A" stroke-width="2" stroke-linecap="round" stroke-linejoin="round"/>
<path d="M290.868 167.878H278.952V183.647H290.868V167.878Z" fill="white" stroke="#1A1A1A" stroke-width="2" stroke-linecap="round" stroke-linejoin="round"/>
<path d="M277.669 159.966L281.173 167.879H283.276L278.952 159.226C278.952 159.226 277.201 158.913 277.666 159.966H277.669Z" fill="white" stroke="#1A1A1A" stroke-width="2" stroke-linecap="round" stroke-linejoin="round"/>
<path d="M286.08 167.878L290.868 153.848H295.366L290.723 167.568L286.08 167.878Z" fill="white" stroke="#1A1A1A" stroke-width="2" stroke-linecap="round" stroke-linejoin="round"/>
<path d="M283.276 160.058L283.656 167.725H284.472L284.181 159.874L283.276 160.058Z" fill="white" stroke="#1A1A1A" stroke-width="2" stroke-linecap="round" stroke-linejoin="round"/>
</svg>
