<svg width="550" height="367" viewBox="0 0 550 367" fill="none" xmlns="http://www.w3.org/2000/svg">
<path d="M547.999 363.811H479.604H441.589" stroke="#1A1A1A" stroke-width="3" stroke-linecap="round" stroke-linejoin="round"/>
<path d="M2.00128 363.811H87.4122H204.201H300.95" stroke="#1A1A1A" stroke-width="3" stroke-linecap="round" stroke-linejoin="round"/>
<path d="M417.371 363.811H417.31" stroke="#1A1A1A" stroke-width="3" stroke-linecap="round" stroke-linejoin="round"/>
<path d="M492.943 338.293C490.01 324.975 468.77 313.076 441.918 315.966L441.863 323.632C451.467 323.65 464.072 326.373 471.313 338.767C476.186 350.174 473.389 363.748 473.389 363.748H441.589V363.811H417.371V283.705C417.35 283.687 417.328 283.672 417.31 283.657C414.758 281.553 412.601 280.23 411.336 279.499C410.03 278.745 408.672 278.047 407.269 277.404C387.23 268.174 357.524 269.835 328.442 283.126C319.098 287.389 309.82 292.857 300.95 299.55C296.132 303.185 291.431 307.18 286.905 311.543C285.174 307.965 272.119 282.241 240.282 267C233.358 263.685 225.547 260.865 216.767 258.878C209.831 257.308 202.777 256.369 195.72 256.034C190.512 255.783 185.299 255.865 180.124 256.263C160.966 257.737 142.323 263.564 126.327 273.198C126.324 273.198 126.324 273.201 126.324 273.201C120.314 276.812 114.684 280.967 109.534 285.628C87.2855 274.34 60.0019 277.262 45.8004 290.088C28.0207 306.144 31.3003 337.209 59.6247 353.063C64.6995 356.617 77.842 361.701 87.4122 363.811C87.5932 363.854 87.7712 363.893 87.9492 363.929H479.453C479.496 363.896 479.547 363.857 479.604 363.811C481.955 361.973 495.679 350.72 492.943 338.293ZM86.9777 335.277C88.447 331.675 95.7363 324.166 101.2 318.855C109.06 325.066 115.411 329.371 119.949 332.197L116.85 335.868C126.942 341.961 132.66 353.969 122.899 363.582C122.899 363.582 85.5506 338.773 86.9777 335.277ZM202.916 344.878L226.941 343.202L227.194 347.701C238.713 345.198 251.108 350.001 250.604 363.694C250.604 363.694 212.422 363.811 204.201 363.811C202.891 360.427 202.774 351.738 202.916 344.878ZM300.95 363.811V351.46H417.31V363.811H300.95Z" fill="white" stroke="#1A1A1A" stroke-width="3" stroke-linecap="round" stroke-linejoin="round"/>
<path d="M108.707 228.562C108.707 240.594 98.9616 250.349 86.9385 250.349C74.9154 250.349 65.1702 240.594 65.1702 228.562C65.1702 216.53 74.9154 206.778 86.9385 206.778C98.9616 206.778 108.707 216.533 108.707 228.562Z" fill="#2D317B"/>
<path d="M122.899 363.582C122.899 363.582 85.5506 338.773 86.9777 335.277C88.447 331.675 95.7363 324.166 101.2 318.855C109.06 325.066 115.411 329.371 119.948 332.197L116.85 335.869C126.942 341.961 132.66 353.969 122.899 363.582Z" fill="#2D317B" stroke="#1A1A1A" stroke-linecap="round" stroke-linejoin="round"/>
<path d="M126.39 324.558L119.949 332.197C115.411 329.371 109.06 325.066 101.2 318.855C104.694 315.458 107.44 312.965 107.44 312.965L126.39 324.558Z" fill="#25383F" stroke="#1A1A1A" stroke-linecap="round" stroke-linejoin="round"/>
<path d="M189.049 56.4961C189.049 56.4961 186.258 56.4961 187.272 60.3275C188.286 64.1589 191.423 63.235 191.423 63.235L189.049 56.4961Z" fill="white" stroke="#1A1A1A" stroke-width="3" stroke-linecap="round" stroke-linejoin="round"/>
<path d="M142.716 85.9728C140.836 89.0223 139.816 92.6906 139.279 96.1386C138.953 90.1605 141.331 85.9879 141.331 85.9879L142.716 85.9728Z" fill="white" stroke="#1A1A1A" stroke-width="3" stroke-linecap="round" stroke-linejoin="round"/>
<path d="M175.798 111.591C177.011 115.833 178.945 121.183 181.841 125.803C176.715 126.648 170.563 125.745 163.226 122.448C153.327 117.998 147.338 113.043 143.823 108.258L175.798 111.591Z" fill="white" stroke="#1A1A1A" stroke-width="3" stroke-linecap="round" stroke-linejoin="round"/>
<path d="M209.77 57.0486C210.057 59.5757 207.731 65.7349 202.252 66.6497C202.306 66.7946 202.357 66.9456 202.412 67.0966C206.37 78.6179 205.86 108.049 192.594 120.449C192.157 110.96 191.318 101.872 189.827 93.4273C192.32 90.9938 193.771 84.6202 192.682 71.1725C192.386 69.3912 192.516 67.5736 192.992 65.8224C193.43 64.1921 194.166 62.616 195.128 61.1789C198.266 56.4809 203.806 53.2292 209.297 54.2014C211.083 54.5124 212.35 54.8717 213.011 55.237C214.242 55.9103 213.361 56.6078 209.77 57.0486Z" fill="white" stroke="#1A1A1A" stroke-width="3" stroke-linecap="round" stroke-linejoin="round"/>
<path d="M197.376 68.0658C194.628 67.7035 192.347 65.8527 191.423 63.235L181.603 35.3645C180.945 33.5016 181.06 31.4968 181.923 29.7215C182.786 27.9462 184.291 26.6178 186.162 25.9867L198.378 21.8474C199.437 21.4881 200.577 21.3764 201.682 21.5213C204.361 21.8746 206.621 23.668 207.577 26.1981L217.871 53.4497C218.565 55.2854 218.499 57.278 217.69 59.0654C216.882 60.8528 215.424 62.2145 213.587 62.9029L200.9 67.6582C199.778 68.0778 198.559 68.2167 197.376 68.0627V68.0658Z" fill="white" stroke="#1A1A1A" stroke-width="3" stroke-linecap="round" stroke-linejoin="round"/>
<path d="M198.315 61.2967L211.315 56.4236C213.457 55.6205 214.543 53.2293 213.735 51.0856L204.693 27.1129C203.905 25.0266 201.609 23.9397 199.497 24.6553L186.949 28.9064C184.771 29.643 183.612 32.0192 184.369 34.193L192.956 58.7877C193.722 60.9796 196.139 62.1119 198.311 61.2997L198.315 61.2967Z" fill="white" stroke="#1A1A1A" stroke-width="3" stroke-linecap="round" stroke-linejoin="round"/>
<path d="M206.527 63.2833C207.354 63.2833 208.024 62.6128 208.024 61.7857C208.024 60.9587 207.354 60.2882 206.527 60.2882C205.701 60.2882 205.031 60.9587 205.031 61.7857C205.031 62.6128 205.701 63.2833 206.527 63.2833Z" fill="white" stroke="#1A1A1A" stroke-width="3" stroke-linecap="round" stroke-linejoin="round"/>
<path d="M186.282 227.593C185.887 236.992 183.591 246.696 180.124 256.263C165.075 297.79 127.941 336.717 127.941 336.717C127.941 336.717 125.126 335.419 119.949 332.197C115.411 329.371 109.06 325.066 101.2 318.855C99.5771 317.575 97.8905 316.21 96.1436 314.764C108.14 300.492 118.591 286.667 126.324 273.201C126.324 273.201 126.324 273.198 126.327 273.198C130.602 265.75 134.047 258.41 136.461 251.164C145.41 224.299 146.891 204.387 146.547 192.364C146.297 183.585 145.075 179.01 145.075 179.01C145.075 179.01 170.334 172.314 182.843 204.819C185.613 212.02 186.617 219.698 186.282 227.593Z" fill="white" stroke="#1A1A1A" stroke-width="3" stroke-linecap="round" stroke-linejoin="round"/>
<path d="M250.604 363.694C250.604 363.694 212.422 363.811 204.201 363.811C202.891 360.427 202.774 351.738 202.916 344.878L226.941 343.202L227.194 347.701C238.713 345.198 251.108 350.001 250.604 363.694Z" fill="#2D317B" stroke="#1A1A1A" stroke-linecap="round" stroke-linejoin="round"/>
<path d="M226.941 343.202L202.916 344.878C203.024 339.682 203.278 335.533 203.278 335.533L226.22 330.395L226.941 343.202Z" fill="#25383F" stroke="#1A1A1A" stroke-linecap="round" stroke-linejoin="round"/>
<path d="M239.552 342.321L226.941 343.202L202.916 344.878L194.175 345.488C194.175 345.488 198.022 287.703 195.72 256.034C195.24 249.47 194.498 244.027 193.403 240.455C192.102 236.21 189.538 231.847 186.282 227.593C173.586 211.002 150.358 196.057 150.358 196.057C148.973 195.085 147.7 193.829 146.547 192.364C139.662 183.621 137.001 167.35 139.919 158.443L156.139 155.608C156.105 155.566 156.069 155.521 156.033 155.479C154.316 153.404 152.768 151.339 151.381 149.289C157.436 147.982 164.562 149.356 172.084 152.819C177.325 155.228 182.755 158.649 188.144 162.879C207.912 178.398 227.146 204.816 234.486 232.221C237.419 242.97 239.226 254.977 240.282 267C243.586 304.58 239.552 342.321 239.552 342.321Z" fill="white" stroke="#1A1A1A" stroke-width="3" stroke-linecap="round" stroke-linejoin="round"/>
<path d="M183.054 42.7435C183.054 42.7435 182.303 47.3388 181.352 53.1176C180.619 57.5558 179.768 62.6976 179.047 66.9909C172.796 64.5876 166.376 63.0931 159.629 63.2954L167.359 49.5066L171.164 42.7224L183.054 42.7435Z" fill="white" stroke="#1A1A1A" stroke-width="3" stroke-linecap="round" stroke-linejoin="round"/>
<path d="M141.331 85.9879C141.331 85.9879 138.953 90.1604 139.279 96.1385C139.816 92.6906 140.836 89.0222 142.716 85.9728L141.331 85.9879ZM192.989 135.467C188.253 133.979 184.608 130.223 181.841 125.802C178.945 121.183 177.011 115.833 175.798 111.591L143.823 108.258C142.399 106.322 141.382 104.411 140.673 102.576C139.789 100.29 139.388 98.1161 139.279 96.1385C138.326 102.292 138.914 107.747 138.914 107.747L139.922 107.853C139.104 116.995 140.048 132.578 151.381 149.289C152.768 151.339 154.316 153.404 156.033 155.478C156.069 155.521 156.105 155.566 156.139 155.608L172.084 152.819L192.965 149.165C193.013 144.558 193.032 139.984 192.989 135.467Z" fill="#63B4FF"/>
<path d="M139.279 96.1385C138.953 90.1604 141.331 85.9879 141.331 85.9879L142.716 85.9728C140.836 89.0222 139.816 92.6906 139.279 96.1385ZM139.279 96.1385C139.388 98.1161 139.789 100.29 140.673 102.576C141.382 104.411 142.399 106.322 143.823 108.258L175.798 111.591C177.011 115.833 178.945 121.183 181.841 125.802C184.608 130.223 188.253 133.979 192.989 135.467C193.032 139.984 193.013 144.558 192.965 149.165L172.084 152.819L156.139 155.608C156.105 155.566 156.069 155.521 156.033 155.478C154.316 153.404 152.768 151.339 151.381 149.289C140.048 132.578 139.104 116.995 139.922 107.853L138.914 107.747C138.914 107.747 138.326 102.292 139.279 96.1385Z" stroke="#1A1A1A" stroke-width="2" stroke-linecap="round" stroke-linejoin="round"/>
<path d="M156.139 155.608L139.919 158.443C140.549 156.514 141.442 154.929 142.61 153.842C145.147 151.481 148.107 149.993 151.381 149.289C152.768 151.339 154.316 153.404 156.033 155.478C156.069 155.521 156.105 155.566 156.139 155.608Z" fill="#2D317B" stroke="#1A1A1A" stroke-width="2" stroke-linecap="round" stroke-linejoin="round"/>
<path d="M192.989 135.467C188.253 133.979 184.608 130.223 181.841 125.803C186.11 125.102 189.661 123.194 192.594 120.449C192.823 125.362 192.944 130.38 192.989 135.467Z" fill="#2D317B" stroke="#1A1A1A" stroke-width="2" stroke-linecap="round" stroke-linejoin="round"/>
<path d="M179.047 66.9909C178.203 72.03 177.536 75.9037 177.451 76.1271C177.201 76.7853 154.506 72.4316 154.506 72.4316L159.629 63.2954C166.376 63.0931 172.796 64.5876 179.047 66.9909Z" fill="#2D317B" stroke="#1A1A1A" stroke-width="2" stroke-linecap="round" stroke-linejoin="round"/>
<path d="M189.827 93.4273C184.451 98.6777 174.238 85.6075 174.238 85.6075L173.538 85.6165C170.835 83.2857 167.094 81.3051 161.986 79.9736C151.737 77.2985 145.953 80.7224 142.716 85.9728L141.331 85.9879C141.331 85.9879 138.953 90.1605 139.279 96.1385C138.326 102.292 138.914 107.747 138.914 107.747L139.922 107.853C139.104 116.995 140.048 132.578 151.381 149.289C148.107 149.993 145.147 151.481 142.61 153.842C141.442 154.929 140.549 156.514 139.919 158.443L133.091 159.639C133.091 159.639 94.8885 112.892 145.437 66.2753C150.346 64.343 155.061 63.4312 159.629 63.2953L154.506 72.4315C154.506 72.4315 177.201 76.7853 177.451 76.1271C177.536 75.9037 178.203 72.03 179.047 66.9909C180.124 67.4015 181.196 67.8423 182.264 68.3073C185.785 75.6863 188.195 84.1703 189.827 93.4273Z" fill="#2D317B" stroke="#1A1A1A" stroke-width="2" stroke-linecap="round" stroke-linejoin="round"/>
<path d="M192.594 120.449C189.661 123.194 186.11 125.102 181.841 125.803C178.945 121.183 177.011 115.833 175.798 111.591L177.868 111.805C177.868 111.805 185.042 95.5287 173.538 85.6165L174.238 85.6075C174.238 85.6075 184.451 98.6777 189.827 93.4273C191.318 101.872 192.157 110.96 192.594 120.449Z" fill="#2D317B" stroke="#1A1A1A" stroke-width="2" stroke-linecap="round" stroke-linejoin="round"/>
<path d="M191.396 23.1698C191.396 23.1698 194.966 54.3011 186.032 53.7123C177.098 53.1236 163.748 48.2898 163.748 48.2898C163.748 48.2898 152.527 13.469 191.396 23.1698Z" fill="white" stroke="#1A1A1A" stroke-width="3" stroke-linecap="round" stroke-linejoin="round"/>
<path d="M155.65 38.8547L165.863 45.2253C165.863 45.2253 168.222 29.6883 172.165 35.1682C176.112 40.6481 173.553 40.4247 173.553 40.4247L176.441 41.5297C176.441 41.5297 176.833 31.8531 181.543 31.3912C186.252 30.9292 192.624 34.504 198.143 22.0678L201.247 14.9424C201.247 14.9424 189.224 19.2176 180.318 14.8579C171.411 10.4981 149.413 15.673 155.65 38.8517V38.8547Z" fill="#25383F" stroke="#1A1A1A" stroke-linecap="round" stroke-linejoin="round"/>
<path d="M243.067 127.807C241.199 129.531 234.858 131.288 230.887 127.403C224.853 136.506 206.723 156.079 188.144 162.879C176.748 167.051 165.184 166.417 156.139 155.608C156.105 155.566 156.069 155.521 156.033 155.479C154.316 153.404 152.768 151.339 151.381 149.289C140.048 132.578 139.104 116.995 139.922 107.853C140.112 105.722 140.398 103.94 140.673 102.576C141.382 104.411 142.399 106.322 143.823 108.258L175.798 111.591C177.011 115.833 178.945 121.183 181.841 125.803C184.608 130.223 188.252 133.979 192.989 135.467C199.944 137.656 209.251 134.966 221.588 122.339C227.858 115.924 241.064 117.554 245.085 125.745C247.381 130.398 246.872 131.865 243.067 127.807Z" fill="white" stroke="#1A1A1A" stroke-width="3" stroke-linecap="round" stroke-linejoin="round"/>
<path d="M177.868 111.805L175.798 111.591C174.534 107.198 174.039 103.986 174.039 103.986L141.439 99.4838C141.439 99.4838 141.068 100.583 140.673 102.576C139.789 100.29 139.388 98.1161 139.279 96.1385C139.816 92.6906 140.836 89.0222 142.716 85.9728L173.538 85.6165C185.042 95.5287 177.868 111.805 177.868 111.805Z" fill="#2D317B" stroke="#1A1A1A" stroke-width="2" stroke-linecap="round" stroke-linejoin="round"/>
<path d="M173.538 85.6165L142.716 85.9728C145.953 80.7223 151.737 77.2985 161.986 79.9736C167.094 81.305 170.835 83.2857 173.538 85.6165Z" fill="#2D317B" stroke="#1A1A1A" stroke-width="2" stroke-linecap="round" stroke-linejoin="round"/>
<path d="M175.798 111.591L143.823 108.258C142.399 106.322 141.382 104.411 140.673 102.576C141.068 100.583 141.439 99.4839 141.439 99.4839L174.039 103.986C174.039 103.986 174.534 107.198 175.798 111.591Z" fill="#2D317B" stroke="#1A1A1A" stroke-width="2" stroke-linecap="round" stroke-linejoin="round"/>
<path d="M143.823 108.258L139.922 107.853L138.914 107.747C138.914 107.747 138.326 102.292 139.279 96.1385C139.388 98.1161 139.789 100.29 140.673 102.576C141.382 104.411 142.399 106.322 143.823 108.258Z" fill="#63B4FF" stroke="#1A1A1A" stroke-width="2" stroke-linecap="round" stroke-linejoin="round"/>
<path d="M473.389 363.748H441.589L441.863 323.632C451.467 323.65 464.072 326.373 471.313 338.767C476.186 350.174 473.389 363.748 473.389 363.748Z" fill="#2D317B" stroke="#1A1A1A" stroke-linecap="round" stroke-linejoin="round"/>
<path d="M417.371 263.573V364.602H300.95V363.811H417.31V351.46H300.95V263.573H417.371Z" fill="white" stroke="#1A1A1A" stroke-width="3" stroke-linecap="round" stroke-linejoin="round"/>
<path d="M377.648 100.906H309.187V160.315H377.648V100.906Z" fill="white" stroke="#1A1A1A" stroke-width="3" stroke-linecap="round" stroke-linejoin="round"/>
<path d="M317.813 113.185C318.458 113.801 368.355 155.771 368.355 155.771" stroke="#1A1A1A" stroke-width="3" stroke-linecap="round" stroke-linejoin="round"/>
<path d="M320.178 154.911L368.358 113.185" stroke="#1A1A1A" stroke-width="3" stroke-linecap="round" stroke-linejoin="round"/>
<path d="M377.648 100.906H309.187V107.53H377.648V100.906Z" fill="white" stroke="#1A1A1A" stroke-width="3" stroke-linecap="round" stroke-linejoin="round"/>
<path d="M262.208 2.40048C248.637 2.6541 237.564 13.7347 237.313 27.3152C237.208 33.1363 239.057 38.5195 242.249 42.8521C243.369 44.3738 241.845 48.791 239.495 52.719C238.333 54.6604 240.331 56.958 242.421 56.0975C247.342 54.0746 253.153 51.3754 254.405 51.8072C257.051 52.722 259.896 53.2111 262.859 53.19C276.551 53.1024 287.811 41.9735 288.064 28.2753C288.333 13.8675 276.605 2.13479 262.208 2.40048ZM274.327 26.0773L270.308 29.9962C269.922 30.3737 269.747 30.9141 269.838 31.4455L270.788 36.9797C271.017 38.3142 269.615 39.3347 268.417 38.7037L263.451 36.0891C262.974 35.8385 262.404 35.8385 261.93 36.0891L256.964 38.7037C255.763 39.3347 254.363 38.3142 254.592 36.9797L255.54 31.4455C255.63 30.9141 255.455 30.3737 255.069 29.9962L251.053 26.0773C250.082 25.1323 250.619 23.4838 251.958 23.2875L257.51 22.4814C258.044 22.4029 258.503 22.0708 258.741 21.5877L261.224 16.5516C261.824 15.3379 263.556 15.3379 264.154 16.5516L266.637 21.5877C266.875 22.0708 267.337 22.4029 267.868 22.4814L273.419 23.2875C274.762 23.4838 275.296 25.1323 274.327 26.0773Z" fill="white" stroke="#1A1A1A" stroke-width="3" stroke-linecap="round" stroke-linejoin="round"/>
<path d="M270.308 29.9962C269.922 30.3736 269.747 30.9141 269.838 31.4455L270.788 36.9797C271.017 38.3142 269.615 39.3347 268.417 38.7037L263.451 36.089C262.974 35.8384 262.404 35.8384 261.93 36.089L256.964 38.7037C255.763 39.3347 254.363 38.3142 254.592 36.9797L255.54 31.4455C255.63 30.9141 255.455 30.3736 255.069 29.9962L251.053 26.0773C250.082 25.1322 250.619 23.4837 251.958 23.2875L257.51 22.4814C258.044 22.4029 258.503 22.0707 258.741 21.5877L261.224 16.5516C261.824 15.3379 263.556 15.3379 264.154 16.5516L266.637 21.5877C266.875 22.0707 267.337 22.4029 267.868 22.4814L273.419 23.2875C274.762 23.4837 275.296 25.1322 274.327 26.0773L270.308 29.9962Z" fill="#2D317B"/>
<path d="M294.382 106.92C285.3 117.174 269.518 118.321 259.049 109.493C256.783 107.584 254.936 105.362 253.515 102.947C252.846 101.806 246.673 100.082 241.619 98.4241C239.471 97.7206 239.444 94.6712 241.586 93.9496C245.921 92.4913 249.949 90.1212 250.082 88.2342C250.465 82.866 252.55 77.5673 256.409 73.2105C265.409 63.0448 281.022 61.8099 291.507 70.4358C302.631 79.5871 303.934 96.1295 294.385 106.914L294.382 106.92Z" fill="white" stroke="#1A1A1A" stroke-width="3" stroke-linecap="round" stroke-linejoin="round"/>
<path d="M256.391 98.9102H265.686C265.686 98.9102 269.382 106.193 279.311 105.205C279.547 86.5827 279.351 85.9547 279.351 85.9547L273.811 86.0694C273.811 86.0694 277.833 83.5 277.89 78.479C277.948 73.4581 277.948 73.7117 277.948 73.7117C277.89 70.6864 272.245 70.457 272.414 73.7117V77.3378C272.414 77.3378 264.887 82.875 265.4 86.012H256.388V98.9102H256.391Z" fill="white" stroke="#1A1A1A" stroke-width="3" stroke-linecap="round" stroke-linejoin="round"/>
<path d="M288.01 85.0036H279.311C277.898 85.0036 276.753 86.1492 276.753 87.5624C276.753 88.9756 277.898 90.1212 279.311 90.1212H288.01C289.423 90.1212 290.568 88.9756 290.568 87.5624C290.568 86.1492 289.423 85.0036 288.01 85.0036Z" fill="white" stroke="#1A1A1A" stroke-width="3" stroke-linecap="round" stroke-linejoin="round"/>
<path d="M288.01 90.1212H279.311C277.898 90.1212 276.753 91.2668 276.753 92.68C276.753 94.0932 277.898 95.2388 279.311 95.2388H288.01C289.423 95.2388 290.568 94.0932 290.568 92.68C290.568 91.2668 289.423 90.1212 288.01 90.1212Z" fill="white" stroke="#1A1A1A" stroke-width="3" stroke-linecap="round" stroke-linejoin="round"/>
<path d="M288.01 95.2388H279.311C277.898 95.2388 276.753 96.3844 276.753 97.7976C276.753 99.2108 277.898 100.356 279.311 100.356H288.01C289.423 100.356 290.568 99.2108 290.568 97.7976C290.568 96.3844 289.423 95.2388 288.01 95.2388Z" fill="white" stroke="#1A1A1A" stroke-width="3" stroke-linecap="round" stroke-linejoin="round"/>
<path d="M288.01 100.356H279.311C277.898 100.356 276.753 101.502 276.753 102.915C276.753 104.328 277.898 105.474 279.311 105.474H288.01C289.423 105.474 290.568 104.328 290.568 102.915C290.568 101.502 289.423 100.356 288.01 100.356Z" fill="white" stroke="#1A1A1A" stroke-width="3" stroke-linecap="round" stroke-linejoin="round"/>
<path d="M417.31 351.46H300.95V363.811H417.31V351.46Z" fill="#2D317B" stroke="#1A1A1A" stroke-linecap="round" stroke-linejoin="round"/>
<path d="M417.371 351.46V364.603H300.95V363.811H417.31V351.46H417.371Z" fill="#25383F" stroke="#1A1A1A" stroke-linecap="round" stroke-linejoin="round"/>
<path d="M417.371 263.573L417.31 263.655L407.269 277.404L403.091 283.126H317.813L300.95 263.573H417.371Z" fill="white" stroke="#1A1A1A" stroke-width="3" stroke-linecap="round" stroke-linejoin="round"/>
<path d="M409.653 316.162H393.306V322.046H409.653V316.162Z" fill="white" stroke="#1A1A1A" stroke-width="3" stroke-linecap="round" stroke-linejoin="round"/>
<path d="M409.653 325.778H393.306V345.578H409.653V325.778Z" fill="white" stroke="#1A1A1A" stroke-width="3" stroke-linecap="round" stroke-linejoin="round"/>
<path d="M328.925 336.539H319.891V345.578H328.925V336.539Z" fill="white" stroke="#1A1A1A" stroke-width="3" stroke-linecap="round" stroke-linejoin="round"/>
<path d="M343.693 336.539H334.66V345.578H343.693V336.539Z" fill="white" stroke="#1A1A1A" stroke-width="3" stroke-linecap="round" stroke-linejoin="round"/>
<path d="M428.845 325.208V363.748H441.589V363.811H417.371V283.705C423.716 288.959 432.459 299.037 435.953 316.838C437.968 316.464 439.96 316.177 441.918 315.966L441.863 323.632C434.462 323.616 428.845 325.208 428.845 325.208Z" fill="#2D317B" stroke="#1A1A1A" stroke-width="2" stroke-linecap="round" stroke-linejoin="round"/>
<path d="M441.863 323.632L441.589 363.748H428.845V325.208C428.845 325.208 434.463 323.616 441.863 323.632Z" fill="#2D317B" stroke="#1A1A1A" stroke-width="2" stroke-linecap="round" stroke-linejoin="round"/>
<path d="M442.286 262.459L441.918 315.966C439.96 316.177 437.968 316.464 435.953 316.838C432.459 299.037 423.716 288.959 417.371 283.705V263.573H417.31L442.286 262.459Z" fill="#2D317B" stroke="#1A1A1A" stroke-width="2" stroke-linecap="round" stroke-linejoin="round"/>
<path d="M441.589 363.811V363.929L441.583 364.602H417.31V263.573H417.371V363.811H441.589Z" fill="#63B4FF" stroke="#1A1A1A" stroke-width="2" stroke-linecap="round" stroke-linejoin="round"/>
<path d="M389.088 117.288V160.315H377.648V100.906L389.088 117.288Z" fill="#2D317B" stroke="#1A1A1A" stroke-width="2" stroke-linecap="round" stroke-linejoin="round"/>
<path d="M328.17 161.429V262.459H444.594V161.429H328.17ZM356.018 197.322L365.649 207.4H358.598V233.477H376.35V207.4H369.299L378.93 197.322L388.56 207.4H381.512V233.477H389.318V239.021H347.018V233.477H353.438V207.4H346.387L356.018 197.322Z" fill="white" stroke="#1A1A1A" stroke-width="3" stroke-linecap="round" stroke-linejoin="round"/>
<path d="M389.318 233.477V239.021H347.018V233.477H353.438V207.4H346.387L356.018 197.322L365.649 207.4H358.598V233.477H376.35V207.4H369.299L378.93 197.322L388.56 207.4H381.512V233.477H389.318Z" fill="#2D317B"/>
<path d="M373.84 246.693H346.84V255.439H373.84V246.693Z" fill="white" stroke="#1A1A1A" stroke-width="3" stroke-linecap="round" stroke-linejoin="round"/>
<path d="M434.197 246.693H381.253V255.439H434.197V246.693Z" fill="white" stroke="#1A1A1A" stroke-width="3" stroke-linecap="round" stroke-linejoin="round"/>
<path d="M444.594 161.429H328.17V174.971H444.594V161.429Z" fill="white" stroke="#1A1A1A" stroke-width="3" stroke-linecap="round" stroke-linejoin="round"/>
<path d="M458.439 171.957L444.594 161.429V262.459H458.439V171.957Z" fill="white" stroke="#1A1A1A" stroke-width="3" stroke-linecap="round" stroke-linejoin="round"/>
</svg>
