<svg width="428" height="356" viewBox="0 0 428 356" fill="none" xmlns="http://www.w3.org/2000/svg">
<path d="M221.014 96.6818H79.5012C75.4913 96.6818 72.7078 93.5981 73.2837 89.7919L84.6664 14.4372C85.2423 10.6309 88.9572 7.54729 92.9671 7.54729H234.48C238.489 7.54729 241.273 10.6309 240.697 14.4372L229.314 89.7919C228.738 93.5981 225.024 96.6818 221.014 96.6818Z" fill="#1A1A1A" stroke="#1A1A1A" stroke-width="2" stroke-linecap="round" stroke-linejoin="round"/>
<path d="M231.945 7.06218H95.8641C90.3551 7.06218 85.8892 11.324 85.8892 16.5812V87.1661C85.8892 92.4233 90.3551 96.6851 95.8641 96.6851H231.945C237.454 96.6851 241.92 92.4233 241.92 87.1661V16.5812C241.92 11.324 237.454 7.06218 231.945 7.06218Z" fill="white" stroke="#1A1A1A" stroke-width="2" stroke-linecap="round" stroke-linejoin="round"/>
<path d="M223.093 12.9954H104.719C99.2105 12.9954 94.7445 17.2572 94.7445 22.5144V81.2295C94.7445 86.4867 99.2105 90.7485 104.719 90.7485H223.093C228.602 90.7485 233.068 86.4867 233.068 81.2295V22.5144C233.068 17.2572 228.602 12.9954 223.093 12.9954Z" fill="white" stroke="#1A1A1A" stroke-width="2" stroke-linecap="round" stroke-linejoin="round"/>
<path d="M90.4432 37.1457H90.4396C89.6935 37.1457 89.0887 37.7228 89.0887 38.4348V56.3906C89.0887 57.1025 89.6935 57.6797 90.4396 57.6797H90.4432C91.1892 57.6797 91.794 57.1025 91.794 56.3906V38.4348C91.794 37.7228 91.1892 37.1457 90.4432 37.1457Z" fill="#1A1A1A" stroke="#1A1A1A" stroke-width="2" stroke-linecap="round" stroke-linejoin="round"/>
<path d="M90.4396 66.5982C91.2544 66.5982 91.9149 65.9679 91.9149 65.1904C91.9149 64.4129 91.2544 63.7826 90.4396 63.7826C89.6248 63.7826 88.9644 64.4129 88.9644 65.1904C88.9644 65.9679 89.6248 66.5982 90.4396 66.5982Z" fill="#1A1A1A" stroke="#1A1A1A" stroke-width="2" stroke-linecap="round" stroke-linejoin="round"/>
<path d="M117.311 27.0975H109.974C107.606 27.0975 105.686 28.9292 105.686 31.1887V36.6572C105.686 38.9167 107.606 40.7484 109.974 40.7484H117.311C119.679 40.7484 121.598 38.9167 121.598 36.6572V31.1887C121.598 28.9292 119.679 27.0975 117.311 27.0975Z" fill="#1A1A1A" stroke="#1A1A1A" stroke-width="2" stroke-linecap="round" stroke-linejoin="round"/>
<path d="M142.877 27.0975H135.54C133.172 27.0975 131.253 28.9292 131.253 31.1887V36.6572C131.253 38.9167 133.172 40.7484 135.54 40.7484H142.877C145.245 40.7484 147.165 38.9167 147.165 36.6572V31.1887C147.165 28.9292 145.245 27.0975 142.877 27.0975Z" fill="#1A1A1A" stroke="#1A1A1A" stroke-width="2" stroke-linecap="round" stroke-linejoin="round"/>
<path d="M168.448 27.0975H161.111C158.743 27.0975 156.823 28.9292 156.823 31.1887V36.6572C156.823 38.9167 158.743 40.7484 161.111 40.7484H168.448C170.816 40.7484 172.735 38.9167 172.735 36.6572V31.1887C172.735 28.9292 170.816 27.0975 168.448 27.0975Z" fill="#1A1A1A" stroke="#1A1A1A" stroke-width="2" stroke-linecap="round" stroke-linejoin="round"/>
<path d="M194.014 27.0975H186.677C184.309 27.0975 182.39 28.9292 182.39 31.1887V36.6572C182.39 38.9167 184.309 40.7484 186.677 40.7484H194.014C196.382 40.7484 198.302 38.9167 198.302 36.6572V31.1887C198.302 28.9292 196.382 27.0975 194.014 27.0975Z" fill="white" stroke="#1A1A1A" stroke-width="2" stroke-linecap="round" stroke-linejoin="round"/>
<path d="M219.585 27.0975H212.247C209.88 27.0975 207.96 28.9292 207.96 31.1887V36.6572C207.96 38.9167 209.88 40.7484 212.247 40.7484H219.585C221.952 40.7484 223.872 38.9167 223.872 36.6572V31.1887C223.872 28.9292 221.952 27.0975 219.585 27.0975Z" fill="white" stroke="#1A1A1A" stroke-width="2" stroke-linecap="round" stroke-linejoin="round"/>
<path d="M117.311 48.198H109.974C107.606 48.198 105.686 50.0297 105.686 52.2892V57.7577C105.686 60.0172 107.606 61.8489 109.974 61.8489H117.311C119.679 61.8489 121.598 60.0172 121.598 57.7577V52.2892C121.598 50.0297 119.679 48.198 117.311 48.198Z" fill="white" stroke="#1A1A1A" stroke-width="2" stroke-linecap="round" stroke-linejoin="round"/>
<path d="M142.877 48.198H135.54C133.172 48.198 131.253 50.0297 131.253 52.2892V57.7577C131.253 60.0172 133.172 61.8489 135.54 61.8489H142.877C145.245 61.8489 147.165 60.0172 147.165 57.7577V52.2892C147.165 50.0297 145.245 48.198 142.877 48.198Z" fill="white" stroke="#1A1A1A" stroke-width="2" stroke-linecap="round" stroke-linejoin="round"/>
<path d="M168.448 48.198H161.111C158.743 48.198 156.823 50.0297 156.823 52.2892V57.7577C156.823 60.0172 158.743 61.8489 161.111 61.8489H168.448C170.816 61.8489 172.735 60.0172 172.735 57.7577V52.2892C172.735 50.0297 170.816 48.198 168.448 48.198Z" fill="white" stroke="#1A1A1A" stroke-width="2" stroke-linecap="round" stroke-linejoin="round"/>
<path d="M194.014 48.198H186.677C184.309 48.198 182.39 50.0297 182.39 52.2892V57.7577C182.39 60.0172 184.309 61.8489 186.677 61.8489H194.014C196.382 61.8489 198.302 60.0172 198.302 57.7577V52.2892C198.302 50.0297 196.382 48.198 194.014 48.198Z" fill="white" stroke="#1A1A1A" stroke-width="2" stroke-linecap="round" stroke-linejoin="round"/>
<path d="M219.585 48.198H212.247C209.88 48.198 207.96 50.0297 207.96 52.2892V57.7577C207.96 60.0172 209.88 61.8489 212.247 61.8489H219.585C221.952 61.8489 223.872 60.0172 223.872 57.7577V52.2892C223.872 50.0297 221.952 48.198 219.585 48.198Z" fill="white" stroke="#1A1A1A" stroke-width="2" stroke-linecap="round" stroke-linejoin="round"/>
<path d="M117.311 69.2986H109.974C107.606 69.2986 105.686 71.1302 105.686 73.3897V78.8582C105.686 81.1177 107.606 82.9494 109.974 82.9494H117.311C119.679 82.9494 121.598 81.1177 121.598 78.8582V73.3897C121.598 71.1302 119.679 69.2986 117.311 69.2986Z" fill="white" stroke="#1A1A1A" stroke-width="2" stroke-linecap="round" stroke-linejoin="round"/>
<path d="M142.877 69.2986H135.54C133.172 69.2986 131.253 71.1302 131.253 73.3897V78.8582C131.253 81.1177 133.172 82.9494 135.54 82.9494H142.877C145.245 82.9494 147.165 81.1177 147.165 78.8582V73.3897C147.165 71.1302 145.245 69.2986 142.877 69.2986Z" fill="white" stroke="#1A1A1A" stroke-width="2" stroke-linecap="round" stroke-linejoin="round"/>
<path d="M168.448 69.2986H161.111C158.743 69.2986 156.823 71.1302 156.823 73.3897V78.8582C156.823 81.1177 158.743 82.9494 161.111 82.9494H168.448C170.816 82.9494 172.735 81.1177 172.735 78.8582V73.3897C172.735 71.1302 170.816 69.2986 168.448 69.2986Z" fill="white" stroke="#1A1A1A" stroke-width="2" stroke-linecap="round" stroke-linejoin="round"/>
<path d="M194.014 69.2986H186.677C184.309 69.2986 182.39 71.1302 182.39 73.3897V78.8582C182.39 81.1177 184.309 82.9494 186.677 82.9494H194.014C196.382 82.9494 198.302 81.1177 198.302 78.8582V73.3897C198.302 71.1302 196.382 69.2986 194.014 69.2986Z" fill="white" stroke="#1A1A1A" stroke-width="2" stroke-linecap="round" stroke-linejoin="round"/>
<path d="M219.585 69.2986H212.247C209.88 69.2986 207.96 71.1302 207.96 73.3897V78.8582C207.96 81.1177 209.88 82.9494 212.247 82.9494H219.585C221.952 82.9494 223.872 81.1177 223.872 78.8582V73.3897C223.872 71.1302 221.952 69.2986 219.585 69.2986Z" fill="white" stroke="#1A1A1A" stroke-width="2" stroke-linecap="round" stroke-linejoin="round"/>
<path d="M119.49 17.9924C120.64 17.9924 121.573 17.1023 121.573 16.0044C121.573 14.9065 120.64 14.0165 119.49 14.0165C118.339 14.0165 117.407 14.9065 117.407 16.0044C117.407 17.1023 118.339 17.9924 119.49 17.9924Z" fill="white" stroke="#1A1A1A" stroke-width="2" stroke-linecap="round" stroke-linejoin="round"/>
<path d="M114.225 7.15038C114.229 7.10967 114.449 5.80361 115.174 4.57557C115.533 3.96156 116.017 3.36789 116.632 2.94045C117.25 2.51301 118 2.23484 118.996 2.23145C119.12 2.23145 119.245 2.23483 119.376 2.24501C120.059 2.29589 120.677 2.54355 121.253 2.9642C122.113 3.59179 122.846 4.62306 123.351 5.83752C123.855 7.0486 124.133 8.43269 124.133 9.73197C124.133 10.4342 124.051 11.1127 123.891 11.7267C123.649 12.6494 123.223 13.4161 122.636 13.9385C122.341 14.1997 122.007 14.4067 121.616 14.5491C121.225 14.6916 120.777 14.773 120.254 14.773C120.123 14.773 119.988 14.7662 119.845 14.7561C119.376 15.1462 119.383 15.5601 119.742 15.9875C119.917 16.0011 120.087 16.0078 120.254 16.0078C121.139 16.0078 121.936 15.8179 122.608 15.4685C123.112 15.2072 123.546 14.8578 123.905 14.4508C124.445 13.8401 124.822 13.1006 125.068 12.2966C125.313 11.4926 125.427 10.6208 125.427 9.73197C125.427 7.77796 124.886 5.72219 123.894 4.0769C123.397 3.25255 122.782 2.52997 122.042 1.9872C121.307 1.44442 120.436 1.08143 119.472 1.01697C119.309 1.0068 119.149 1.00002 118.996 1.00002C117.716 1.00002 116.65 1.39014 115.832 1.97362C115.217 2.40785 114.734 2.94384 114.353 3.49341C113.781 4.31775 113.436 5.17941 113.226 5.83752C113.017 6.49564 112.945 6.95701 112.942 6.97737L114.222 7.15376L114.225 7.15038Z" fill="#1A1A1A" stroke="#1A1A1A" stroke-width="2" stroke-linecap="round" stroke-linejoin="round"/>
<path d="M168.43 17.9924C169.58 17.9924 170.513 17.1023 170.513 16.0044C170.513 14.9065 169.58 14.0165 168.43 14.0165C167.28 14.0165 166.347 14.9065 166.347 16.0044C166.347 17.1023 167.28 17.9924 168.43 17.9924Z" fill="white" stroke="#1A1A1A" stroke-width="2" stroke-linecap="round" stroke-linejoin="round"/>
<path d="M163.165 7.15038C163.169 7.10967 163.389 5.80361 164.114 4.57557C164.473 3.96156 164.957 3.36789 165.572 2.94045C166.19 2.51301 166.94 2.23484 167.936 2.23145C168.06 2.23145 168.185 2.23483 168.316 2.24501C168.999 2.29589 169.617 2.54355 170.193 2.9642C171.053 3.59179 171.786 4.62306 172.291 5.83752C172.795 7.0486 173.073 8.43269 173.073 9.73197C173.073 10.4342 172.991 11.1127 172.831 11.7267C172.589 12.6494 172.163 13.4161 171.576 13.9385C171.281 14.1997 170.947 14.4067 170.556 14.5491C170.165 14.6916 169.717 14.773 169.194 14.773C169.063 14.773 168.928 14.7662 168.785 14.7561C168.316 15.1462 168.323 15.5601 168.682 15.9875C168.857 16.0011 169.027 16.0078 169.194 16.0078C170.079 16.0078 170.876 15.8179 171.548 15.4685C172.052 15.2072 172.486 14.8578 172.845 14.4508C173.385 13.8401 173.762 13.1006 174.008 12.2966C174.253 11.4926 174.367 10.6208 174.367 9.73197C174.367 7.77796 173.826 5.72219 172.834 4.0769C172.337 3.25255 171.722 2.52997 170.982 1.9872C170.246 1.44442 169.376 1.08143 168.412 1.01697C168.249 1.0068 168.089 1.00002 167.936 1.00002C166.656 1.00002 165.59 1.39014 164.772 1.97362C164.157 2.40785 163.673 2.94384 163.293 3.49341C162.721 4.31775 162.376 5.17941 162.166 5.83752C161.956 6.49564 161.885 6.95701 161.882 6.97737L163.162 7.15376L163.165 7.15038Z" fill="#1A1A1A" stroke="#1A1A1A" stroke-width="2" stroke-linecap="round" stroke-linejoin="round"/>
<path d="M217.37 17.9924C218.52 17.9924 219.453 17.1023 219.453 16.0044C219.453 14.9065 218.52 14.0165 217.37 14.0165C216.219 14.0165 215.287 14.9065 215.287 16.0044C215.287 17.1023 216.219 17.9924 217.37 17.9924Z" fill="white" stroke="#1A1A1A" stroke-width="2" stroke-linecap="round" stroke-linejoin="round"/>
<path d="M212.105 7.15038C212.109 7.10967 212.329 5.80361 213.054 4.57557C213.413 3.96156 213.897 3.36789 214.512 2.94045C215.13 2.51301 215.88 2.23484 216.876 2.23145C217 2.23145 217.125 2.23483 217.256 2.24501C217.939 2.29589 218.557 2.54355 219.133 2.9642C219.993 3.59179 220.726 4.62306 221.231 5.83752C221.735 7.0486 222.013 8.43269 222.013 9.73197C222.013 10.4342 221.931 11.1127 221.771 11.7267C221.529 12.6494 221.103 13.4161 220.516 13.9385C220.221 14.1997 219.887 14.4067 219.496 14.5491C219.105 14.6916 218.657 14.773 218.134 14.773C218.003 14.773 217.868 14.7662 217.725 14.7561C217.256 15.1462 217.263 15.5601 217.622 15.9875C217.797 16.0011 217.967 16.0078 218.134 16.0078C219.019 16.0078 219.816 15.8179 220.488 15.4685C220.992 15.2072 221.426 14.8578 221.785 14.4508C222.325 13.8401 222.702 13.1006 222.948 12.2966C223.193 11.4926 223.307 10.6208 223.307 9.73197C223.307 7.77796 222.766 5.72219 221.774 4.0769C221.277 3.25255 220.662 2.52997 219.922 1.9872C219.187 1.44442 218.316 1.08143 217.352 1.01697C217.189 1.0068 217.029 1.00002 216.876 1.00002C215.596 1.00002 214.53 1.39014 213.712 1.97362C213.097 2.40785 212.614 2.94384 212.233 3.49341C211.661 4.31775 211.316 5.17941 211.106 5.83752C210.897 6.49564 210.825 6.95701 210.822 6.97737L212.102 7.15376L212.105 7.15038Z" fill="#1A1A1A" stroke="#1A1A1A" stroke-width="2" stroke-linecap="round" stroke-linejoin="round"/>
<path d="M187.996 31.1209L190.698 34.425L194.078 29.3161" stroke="#1A1A1A" stroke-width="2" stroke-linecap="round" stroke-linejoin="round"/>
<path d="M213.886 31.1209L216.588 34.425L219.969 29.3161" stroke="#1A1A1A" stroke-width="2" stroke-linecap="round" stroke-linejoin="round"/>
<path d="M110.752 52.6285L113.454 55.9326L116.834 50.8237" stroke="#1A1A1A" stroke-width="2" stroke-linecap="round" stroke-linejoin="round"/>
<path d="M136.639 52.6285L139.344 55.9326L142.721 50.8237" stroke="#1A1A1A" stroke-width="2" stroke-linecap="round" stroke-linejoin="round"/>
<path d="M161.885 52.6285L164.591 55.9326L167.968 50.8237" stroke="#1A1A1A" stroke-width="2" stroke-linecap="round" stroke-linejoin="round"/>
<path d="M187.776 52.6285L190.477 55.9326L193.858 50.8237" stroke="#1A1A1A" stroke-width="2" stroke-linecap="round" stroke-linejoin="round"/>
<path d="M149.447 271.813H385.942C386.554 270.391 399.468 239.117 381.072 216.029C363.681 194.202 325.328 188.489 294.607 208.474C291.884 205.448 277.07 189.592 253.811 189.008C230.381 188.418 207.939 203.572 198.401 227.071C185.109 219.038 167.886 220.296 156.386 229.975C144.129 240.291 141.096 257.887 149.447 271.813Z" stroke="#1A1A1A" stroke-width="2" stroke-linecap="round" stroke-linejoin="round"/>
<path d="M1.5 203.368V196.74L106.689 162.836L150.986 185.935L203.047 142.353L326.657 140.029L387.545 53.9854L370.496 48.7951V42.1664L410.076 29.3161L414.946 57.9307V64.5594L400.332 58.08L339.444 160.367L214.234 163.501L153.115 216.154L109.202 192.91L10.0246 239.904L1.5 203.368Z" fill="#1A1A1A" stroke="#1A1A1A" stroke-width="2" stroke-linecap="round" stroke-linejoin="round"/>
<path d="M1.5 196.74L106.689 156.208L150.986 179.306L203.047 135.724L326.657 133.401L387.545 47.3567L370.496 42.1664L410.076 22.6908L414.946 57.9307L400.332 51.4513L339.444 153.738L214.234 156.873L153.115 209.525L109.202 186.281L10.0246 233.275L1.5 196.74Z" fill="white" stroke="#1A1A1A" stroke-width="2" stroke-linecap="round" stroke-linejoin="round"/>
<path d="M134.541 271.287C133.141 268.929 131.74 266.571 130.343 264.21C128.676 261.402 126.969 258.487 126.621 255.275C126.269 252.062 127.638 248.446 130.698 247.069C132.945 246.058 135.881 246.292 137.552 244.541C139.909 242.072 137.794 237.943 139.131 234.856C140.162 232.475 143.18 231.267 145.853 231.634C148.526 232 150.84 233.642 152.621 235.579C154.296 237.404 155.657 239.84 154.992 242.18C154.239 244.847 151.079 246.577 150.794 249.325C150.599 251.211 151.854 252.948 153.229 254.315C154.605 255.679 156.208 256.927 157.019 258.657C158.526 261.866 156.727 265.781 153.841 267.966C150.954 270.15 147.239 271.012 143.652 271.813" fill="#1A1A1A"/>
<path d="M134.541 271.287C133.141 268.929 131.74 266.571 130.343 264.21C128.676 261.402 126.969 258.487 126.621 255.275C126.269 252.062 127.638 248.446 130.698 247.069C132.945 246.058 135.881 246.292 137.552 244.541C139.909 242.072 137.794 237.943 139.131 234.856C140.162 232.475 143.18 231.267 145.853 231.634C148.526 232 150.84 233.642 152.621 235.579C154.296 237.404 155.657 239.84 154.992 242.18C154.239 244.847 151.079 246.577 150.794 249.325C150.599 251.211 151.854 252.948 153.229 254.315C154.605 255.679 156.208 256.927 157.019 258.657C158.526 261.866 156.727 265.781 153.841 267.966C150.954 270.15 147.239 271.012 143.652 271.813" stroke="#1A1A1A" stroke-width="2" stroke-linecap="round" stroke-linejoin="round"/>
<path d="M143.243 253.352C141.843 259.865 140.943 266.477 140.556 273.115" stroke="white" stroke-width="2" stroke-linecap="round" stroke-linejoin="round"/>
<path d="M135.675 257.517C136.788 260.615 136.731 263.966 137.136 267.219C137.541 270.473 138.558 273.896 141.206 275.979" stroke="white" stroke-width="2" stroke-linecap="round" stroke-linejoin="round"/>
<path d="M148.792 263.352C144.53 267.046 142.159 272.641 142.532 278.123" stroke="white" stroke-width="2" stroke-linecap="round" stroke-linejoin="round"/>
<path d="M129.678 272.071C133.521 264.424 131.807 254.563 125.583 248.507C123.702 246.679 121.484 245.193 119.611 243.361C117.741 241.526 116.184 239.199 116.127 236.637C116.066 233.951 117.659 231.359 117.3 228.692C116.788 224.906 112.725 222.661 109.124 220.995C107.638 220.31 106.106 219.611 104.46 219.509C102.814 219.411 101.004 220.055 100.258 221.46C99.0386 223.746 101.019 226.952 99.2946 228.923C98.1108 230.28 95.8002 230.117 94.2076 229.218C92.615 228.319 91.4454 226.877 89.9879 225.792C86.657 223.309 81.7904 222.919 78.0258 224.757C74.2612 226.596 71.7621 230.534 71.6945 234.568C71.595 240.349 76.7176 245.746 82.7467 246.319C84.5739 246.492 86.4508 246.282 88.2283 246.726C90.0057 247.171 91.7369 248.565 91.6587 250.315C91.5556 252.622 88.7011 253.725 87.144 255.495C84.6805 258.298 85.8678 262.857 88.7295 265.289C91.5912 267.722 95.5691 268.505 99.3764 268.939C103.18 269.374 107.119 269.574 110.578 271.141C110.578 271.141 111.26 271.348 111.562 272.22" fill="white"/>
<path d="M129.678 272.071C133.521 264.424 131.807 254.563 125.583 248.507C123.702 246.679 121.484 245.193 119.611 243.361C117.741 241.526 116.184 239.199 116.127 236.637C116.066 233.951 117.659 231.359 117.3 228.692C116.788 224.906 112.725 222.661 109.124 220.995C107.638 220.31 106.106 219.611 104.46 219.509C102.814 219.411 101.004 220.055 100.258 221.46C99.0386 223.746 101.019 226.952 99.2946 228.923C98.1108 230.28 95.8002 230.117 94.2076 229.218C92.615 228.319 91.4454 226.877 89.9879 225.792C86.657 223.309 81.7904 222.919 78.0258 224.757C74.2612 226.596 71.7621 230.534 71.6945 234.568C71.595 240.349 76.7176 245.746 82.7467 246.319C84.5739 246.492 86.4508 246.282 88.2283 246.726C90.0057 247.171 91.7369 248.565 91.6587 250.315C91.5556 252.622 88.7011 253.725 87.144 255.495C84.6805 258.298 85.8678 262.857 88.7295 265.289C91.5912 267.722 95.5691 268.505 99.3764 268.939C103.18 269.374 107.119 269.574 110.578 271.141C110.578 271.141 111.26 271.348 111.562 272.22" stroke="#1A1A1A" stroke-width="2" stroke-linecap="round" stroke-linejoin="round"/>
<path d="M99.6572 243.395C104.03 245.814 107.67 249.423 110.037 253.687C111.033 255.478 111.815 257.392 113.105 259.003C114.392 260.608 116.159 261.88 117.112 263.688C117.908 265.201 118.05 266.938 118.338 268.61C118.626 270.283 119.127 272.03 120.428 273.18" stroke="#1A1A1A" stroke-width="2" stroke-linecap="round" stroke-linejoin="round"/>
<path d="M116.557 247.008C117.783 249.606 119.013 252.205 120.24 254.803C121.203 256.846 122.17 258.891 122.892 261.022C123.61 263.145 124.076 265.34 124.538 267.525C124.925 269.346 125.309 271.168 125.697 272.99" stroke="#1A1A1A" stroke-width="2" stroke-linecap="round" stroke-linejoin="round"/>
<path d="M99.4617 255.57C100.905 256.924 102.348 258.277 103.792 259.631C105.523 261.252 107.258 262.881 108.793 264.672C111.445 267.762 113.489 271.324 114.783 275.12" stroke="#1A1A1A" stroke-width="2" stroke-linecap="round" stroke-linejoin="round"/>
<path d="M83.7029 271.813H385.946C385.946 271.813 425.604 279.781 402.444 298.378C385.722 312.918 313.87 297.507 310.063 304.044C306.256 310.581 308.844 323.221 323.764 330.338C338.683 337.455 338.531 356.632 296.818 353.728C255.108 350.824 216.748 329.612 176.56 336.295C136.372 342.978 125.565 320.171 149.159 314.502C172.753 308.837 195.742 294.453 165.902 294.165C136.063 293.877 41.8194 295.118 83.6994 271.813H83.7029Z" fill="white" stroke="#1A1A1A" stroke-width="2" stroke-linecap="round" stroke-linejoin="round"/>
<path d="M277.078 234.256C275.318 234.636 274.035 235.345 273.978 235.307L272.677 244.284L276.502 245.552C278.35 241.926 279.115 237.523 277.078 234.252V234.256Z" fill="#1A1A1A" stroke="#1A1A1A" stroke-width="2" stroke-linecap="round" stroke-linejoin="round"/>
<path d="M284.379 236.4C282.158 233.822 279.253 233.788 277.078 234.256C279.115 237.526 278.347 241.926 276.502 245.556L277.49 245.885C277.49 245.885 278.279 246.692 281.806 250.268C285.332 253.843 295.958 259.909 298.976 257.48C301.99 255.048 288.396 241.061 284.379 236.403V236.4Z" fill="white" stroke="#1A1A1A" stroke-width="2" stroke-linecap="round" stroke-linejoin="round"/>
<path d="M243.022 167.596C243.022 167.596 237.039 195.515 218.724 212.365C223.68 212.738 260.992 230.575 274.667 234.066C279.555 238.673 273.448 246.682 273.448 246.682C273.448 246.682 212.439 241.305 195.617 223.641C178.799 205.977 208.006 159.766 211.305 155.339C215.628 149.718 231.156 134.059 231.156 134.059" fill="#2D317B"/>
<path d="M243.022 167.596C243.022 167.596 237.039 195.515 218.724 212.365C223.68 212.738 260.992 230.575 274.667 234.066C279.555 238.673 273.448 246.682 273.448 246.682C273.448 246.682 212.439 241.305 195.617 223.641C178.799 205.977 208.006 159.766 211.305 155.339C215.628 149.718 231.156 134.059 231.156 134.059" stroke="#1A1A1A" stroke-width="2" stroke-miterlimit="10"/>
<path d="M293.469 166.833C294.002 167.779 286.239 173.733 283.192 167.487C280.146 161.239 286.199 155.132 286.199 155.132C290.984 147.608 294.507 138.099 296.21 132.471C299.406 121.918 284.742 103.321 284.742 103.321L298.435 99.4024C314.905 125.622 314.279 131.952 292.63 156.659C292.477 156.886 292.328 157.202 292.172 157.575C293.999 158.06 295.14 160.041 295.14 160.041C295.14 160.041 294.077 160.363 292.63 161.31C291.567 161.815 291.567 164.142 293.466 166.829L293.469 166.833Z" fill="white" stroke="#1A1A1A" stroke-width="2" stroke-linecap="round" stroke-linejoin="round"/>
<path d="M226.694 94.0255C226.694 94.3173 213.097 111.944 204.366 110.295C195.639 108.65 196.45 80.5612 196.652 73.8782C196.855 67.1953 195.131 60.9974 193.101 63.8063C191.071 66.6152 192.493 74.0716 192.493 74.0716C192.493 74.0716 183.563 73.1048 185.39 80.5612C187.218 88.0176 188.536 85.5005 189.855 87.6309C189.549 95.1857 188.231 122.006 201.423 124.041C214.615 126.077 231.97 110.102 234.099 105.064C236.232 100.027 226.691 94.0221 226.691 94.0221L226.694 94.0255Z" fill="white" stroke="#1A1A1A" stroke-width="2" stroke-linecap="round" stroke-linejoin="round"/>
<path d="M261.209 304.339C258.329 307.188 253.111 308.481 248.99 307.327L249.733 309.811C249.733 309.811 246.69 312.521 243.338 316.107C239.99 319.689 232.681 328.021 238.514 328.794C244.348 329.568 263.939 314.848 264.749 311.361C265.218 309.353 263.093 306.445 261.205 304.342L261.209 304.339Z" fill="white" stroke="#1A1A1A" stroke-width="2" stroke-linecap="round" stroke-linejoin="round"/>
<path d="M261.209 304.339C259.819 302.788 258.56 301.672 258.56 301.672L248.614 306.072L248.987 307.324C253.107 308.477 258.326 307.185 261.205 304.335L261.209 304.339Z" fill="#1A1A1A" stroke="#1A1A1A" stroke-width="2" stroke-linecap="round" stroke-linejoin="round"/>
<path d="M229.84 159.495C229.84 159.495 205.141 191.746 209.78 227.773C214.416 263.8 246.893 305.255 247.096 305.835C247.298 306.415 257.853 306.222 261.102 301.961C254.607 288.981 228.219 231.84 236.95 220.412C245.677 208.983 276.733 176.83 265.364 149.905C246.083 145.837 235.933 142.35 235.933 142.35" fill="#2D317B"/>
<path d="M229.84 159.495C229.84 159.495 205.141 191.746 209.78 227.773C214.416 263.8 246.893 305.255 247.096 305.835C247.298 306.415 257.853 306.222 261.102 301.961C254.607 288.981 228.219 231.84 236.95 220.412C245.677 208.983 276.733 176.83 265.364 149.905C246.083 145.837 235.933 142.35 235.933 142.35" stroke="#1A1A1A" stroke-miterlimit="10"/>
<path d="M229.737 100.902L223.139 96.5427C223.139 96.5427 234.607 76.7855 253.79 74.5567" fill="white"/>
<path d="M229.737 100.902L223.139 96.5427C223.139 96.5427 234.607 76.7855 253.79 74.5567" stroke="#1A1A1A" stroke-width="2" stroke-linecap="round" stroke-linejoin="round"/>
<path d="M238.44 88.6011C238.44 88.6011 229.382 97.1736 228.774 107.052C228.166 116.931 232.581 128.892 225.88 137.997C229.634 147.974 245.976 152.042 265.965 150.977C273.068 146.136 282.506 115.723 279.666 100.614C276.825 85.5039 276.011 75.9171 276.011 75.9171L253.786 74.5601" fill="white"/>
<path d="M238.44 88.6011C238.44 88.6011 229.382 97.1736 228.774 107.052C228.166 116.931 232.581 128.892 225.88 137.997C229.634 147.974 245.976 152.042 265.965 150.977C273.068 146.136 282.506 115.723 279.666 100.614C276.825 85.5039 276.011 75.9171 276.011 75.9171L253.786 74.5601" stroke="#1A1A1A" stroke-width="2" stroke-linecap="round" stroke-linejoin="round"/>
<path d="M253.79 74.5567C272.972 72.3279 271.262 71.7852 271.262 71.7852C271.262 71.7852 291.795 82.0606 299.406 99.7858C298.645 102.981 285.755 106.421 285.755 106.421C285.755 106.421 281.098 103.565 275.201 96.01" fill="white"/>
<path d="M253.79 74.5567C272.972 72.3279 271.262 71.7852 271.262 71.7852C271.262 71.7852 291.795 82.0606 299.406 99.7858C298.645 102.981 285.755 106.421 285.755 106.421C285.755 106.421 281.098 103.565 275.201 96.01" stroke="#1A1A1A" stroke-width="2" stroke-linecap="round" stroke-linejoin="round"/>
<path d="M257.924 61.9439C257.924 61.9439 256.324 64.4848 252.449 64.9563C242.866 65.4245 238.44 47.7061 238.44 47.7061L254.728 37.5358L266.146 53.4426C266.146 53.4426 271.066 65.9367 272.083 70.5842C273.1 75.2318 254.12 80.8496 253.132 77.7015C252.144 74.5533 252.865 65.0988 252.865 65.0988" fill="white"/>
<path d="M257.924 61.9439C257.924 61.9439 256.324 64.4848 252.449 64.9563C242.866 65.4245 238.44 47.7061 238.44 47.7061L254.728 37.5358L266.146 53.4426C266.146 53.4426 271.066 65.9367 272.083 70.5842C273.1 75.2318 254.12 80.8496 253.132 77.7015C252.144 74.5533 252.865 65.0988 252.865 65.0988" stroke="#1A1A1A" stroke-width="2" stroke-linecap="round" stroke-linejoin="round"/>
<path d="M253.036 66.9069C253.036 66.9069 256.481 66.5202 258.056 62.2085C256.659 63.6129 255.048 64.7765 253.036 65.1124C253.157 66.0317 253.036 66.9035 253.036 66.9035V66.9069Z" fill="#1A1A1A" stroke="#1A1A1A" stroke-width="2" stroke-linecap="round" stroke-linejoin="round"/>
<path d="M230.519 48.0691C230.519 48.0691 231.209 56.4958 236.84 52.4249C242.471 48.3575 245.567 41.8204 250.437 46.0812C253.025 48.985 253.584 48.6967 253.786 48.5508C253.989 48.405 252.72 46.3729 253.786 44.2425C254.853 42.1121 260.331 45.1619 259.318 49.0359C258.304 52.91 259.979 57.7509 263.53 62.2085C267.081 66.6627 275.428 77.7761 278.93 78.6479C286.541 76.47 292.175 77.196 293.85 70.9472C295.524 64.7019 301.08 60.7769 304.735 60.7769L307.323 60.5598C307.323 60.5598 303.06 52.7133 285.705 53.368C268.35 54.0227 269.136 42.8517 264.166 35.5716C258.61 27.4367 248.337 27.9456 241.333 33.0307C235.703 32.376 229.378 38.2618 230.519 48.0691Z" fill="#1A1A1A" stroke="#1A1A1A" stroke-width="2" stroke-linecap="round" stroke-linejoin="round"/>
<path d="M250.1 75.2182C250.1 75.2182 249.097 79.669 253.256 79.7267C247.981 89.897 249.804 92.638 249.804 92.638C249.804 92.638 254.966 84.5744 256.64 80.6494C264.621 81.8469 273.096 73.8511 273.096 73.8511" stroke="#1A1A1A" stroke-width="2" stroke-linecap="round" stroke-linejoin="round"/>
<path d="M249.933 313.295L243.744 312.084L247.601 316.578C247.601 316.578 241.056 315.038 241.056 315.232C241.056 315.425 245.066 319.204 245.066 319.204L239.485 318.237" stroke="#1A1A1A" stroke-width="2" stroke-linecap="round" stroke-linejoin="round"/>
<path d="M280.736 247.968L280.281 251.408L283.53 250.197C283.53 250.197 283.277 253.636 283.53 253.925C283.782 254.213 288.908 252.52 288.908 252.52V257.12L291.496 256.008" stroke="#1A1A1A" stroke-width="2" stroke-linecap="round" stroke-linejoin="round"/>
<path d="M364.712 212.958C364.712 212.958 354.361 196.835 360.297 195.233C366.234 193.636 377.652 211.503 377.652 211.503" stroke="#1A1A1A" stroke-width="2" stroke-linecap="round" stroke-linejoin="round"/>
<path d="M370.293 277.023L367.25 210.536L389.372 210.343L392.824 275.619L370.293 277.023Z" fill="white" stroke="#1A1A1A" stroke-width="2" stroke-linecap="round" stroke-linejoin="round"/>
<path d="M363.344 210.343L367.251 210.536L370.293 277.023L365.626 274.459L357.709 276.199L363.344 210.343Z" fill="#1A1A1A" stroke="#1A1A1A" stroke-width="2" stroke-linecap="round" stroke-linejoin="round"/>
<path d="M386.024 212.375C386.024 212.375 391.505 194.07 381.914 192.472C372.323 190.874 370.293 212.375 370.293 212.375" stroke="#1A1A1A" stroke-width="2" stroke-linecap="round" stroke-linejoin="round"/>
<path d="M380.748 233.275L387.584 232.716V236.685L380.748 237.071V233.275Z" stroke="#1A1A1A" stroke-width="2" stroke-linecap="round" stroke-linejoin="round"/>
<path d="M323.003 227.631C323.003 227.631 322.082 217.046 324.158 215.282C328.609 211.507 332.747 214.265 334.571 225.599" stroke="#1A1A1A" stroke-width="2" stroke-linecap="round" stroke-linejoin="round"/>
<path d="M325.893 224.214L331.375 277.023H363.344L341.879 224.214H325.893Z" fill="white" stroke="#1A1A1A" stroke-width="2" stroke-linecap="round" stroke-linejoin="round"/>
<path d="M328.94 226.759C328.94 226.759 326.657 211.503 334.571 210.343C342.484 209.183 340.202 226.759 340.202 226.759" stroke="#1A1A1A" stroke-width="2" stroke-linecap="round" stroke-linejoin="round"/>
<path d="M316.913 275.571C316.913 275.571 332.135 277.461 331.375 277.023C330.614 276.586 325.893 224.214 325.893 224.214L324.372 225.887L321.478 224.214L316.91 275.571H316.913Z" fill="#1A1A1A" stroke="#1A1A1A" stroke-width="2" stroke-linecap="round" stroke-linejoin="round"/>
<path d="M337.084 241.142L345.15 240.413L346.142 243.683L338.68 244.338L337.084 241.142Z" fill="white" stroke="#1A1A1A" stroke-width="2" stroke-linecap="round" stroke-linejoin="round"/>
<path d="M414.36 166.178L409.209 162.796C408.381 162.249 407.321 162.131 406.379 162.473L400.538 164.604C398.171 165.469 395.789 163.366 396.511 161.045L398.292 155.326C398.58 154.403 398.37 153.406 397.737 152.659L393.809 148.015C392.217 146.132 393.574 143.323 396.113 143.259L402.366 143.106C403.372 143.083 404.303 142.587 404.851 141.78L408.263 136.78C409.646 134.751 412.867 135.117 413.713 137.4L415.796 143.028C416.13 143.934 416.912 144.626 417.886 144.874L423.926 146.424C426.375 147.055 427.005 150.091 424.992 151.563L420.03 155.193C419.23 155.777 418.782 156.7 418.835 157.66L419.155 163.62C419.283 166.039 416.454 167.548 414.363 166.174L414.36 166.178Z" fill="white" stroke="#1A1A1A" stroke-width="2" stroke-linecap="round" stroke-linejoin="round"/>
<path d="M42.342 103.67C56.007 103.67 67.1231 114.278 67.1231 127.318C67.1231 140.358 56.007 150.966 42.342 150.966C28.6771 150.966 17.561 140.358 17.561 127.318C17.561 114.278 28.6771 103.67 42.342 103.67ZM42.342 102.652C28.0656 102.652 16.4945 113.694 16.4945 127.318C16.4945 140.942 28.0656 151.984 42.342 151.984C56.6184 151.984 68.1895 140.942 68.1895 127.318C68.1895 113.694 56.6184 102.652 42.342 102.652Z" fill="black"/>
<path d="M42.3422 112.677C50.8028 112.677 57.685 119.244 57.685 127.318C57.685 135.392 50.8028 141.96 42.3422 141.96C33.8816 141.96 26.9993 135.392 26.9993 127.318C26.9993 119.244 33.8816 112.677 42.3422 112.677ZM42.3422 111.659C33.2808 111.659 25.9329 118.671 25.9329 127.318C25.9329 135.965 33.2808 142.977 42.3422 142.977C51.4035 142.977 58.7515 135.965 58.7515 127.318C58.7515 118.671 51.4035 111.659 42.3422 111.659Z" fill="black"/>
<path d="M42.342 122.532C45.1077 122.532 47.358 124.679 47.358 127.318C47.358 129.957 45.1077 132.105 42.342 132.105C39.5763 132.105 37.3261 129.957 37.3261 127.318C37.3261 124.679 39.5763 122.532 42.342 122.532ZM42.342 121.514C38.9827 121.514 36.2596 124.112 36.2596 127.318C36.2596 130.524 38.9827 133.123 42.342 133.123C45.7014 133.123 48.4244 130.524 48.4244 127.318C48.4244 124.112 45.7014 121.514 42.342 121.514Z" fill="black"/>
<path d="M42.3419 127.318V87.8989H62.6971L57.2937 92.655L62.6971 98.6222H43.5221V127.318H42.3419Z" fill="white"/>
<path d="M42.3422 127.318H42.5199V88.0685H62.2424L57.0451 92.6414L62.3099 98.4526H43.3447V127.149H42.3422V127.318H42.5199H42.3422V127.488H43.7001V98.7884L63.0884 98.7918L57.5393 92.6686L63.1524 87.7293H42.1644V127.488H42.3422V127.318Z" fill="black"/>
<path d="M13.1992 127.827H21.3079V126.809H13.1992" fill="black"/>
<path d="M65.1467 127.827H73.259V126.809H65.1467" fill="black"/>
<path d="M43.7603 155.974V148.236H42.6938V155.974" fill="black"/>
</svg>
