<svg width="42" height="38" viewBox="0 0 42 38" fill="none" xmlns="http://www.w3.org/2000/svg">
<g clip-path="url(#clip0_384_377)">
<path d="M27.31 24.29C31.3251 24.29 34.58 21.0351 34.58 17.02C34.58 13.0049 31.3251 9.75 27.31 9.75C23.2949 9.75 20.04 13.0049 20.04 17.02C20.04 21.0351 23.2949 24.29 27.31 24.29Z" stroke="#2D317B" stroke-width="4" stroke-linecap="round" stroke-linejoin="round"/>
<path d="M39.9999 35.37C39.9999 29.25 35.0399 24.29 28.9199 24.29H25.4599C19.3399 24.29 14.3799 29.25 14.3799 35.37" stroke="#2D317B" stroke-width="4" stroke-linecap="round" stroke-linejoin="round"/>
<path d="M11.9401 13.18C15.0274 13.18 17.5301 10.6773 17.5301 7.59C17.5301 4.50273 15.0274 2 11.9401 2C8.85283 2 6.3501 4.50273 6.3501 7.59C6.3501 10.6773 8.85283 13.18 11.9401 13.18Z" stroke="#2D317B" stroke-width="4" stroke-linecap="round" stroke-linejoin="round"/>
<path d="M13.1898 13.19H10.5298C5.81977 13.19 2.00977 17.01 2.00977 21.71" stroke="#2D317B" stroke-width="4" stroke-linecap="round" stroke-linejoin="round"/>
<path d="M9.58984 13.19H12.2498C14.8398 13.19 17.1598 14.35 18.7198 16.17" stroke="#2D317B" stroke-width="4" stroke-linecap="round" stroke-linejoin="round"/>
</g>
<defs>
<clipPath id="clip0_384_377">
<rect width="42" height="37.37" fill="white"/>
</clipPath>
</defs>
</svg>
