<svg width="23" height="23" viewBox="0 0 23 23" fill="none" xmlns="http://www.w3.org/2000/svg">
<path d="M11.0222 3.79047H21.8204" stroke="#5A6881" stroke-width="2" stroke-linecap="round" stroke-linejoin="round"/>
<path d="M1.17944 3.79047H7.33637" stroke="#5A6881" stroke-width="2" stroke-linecap="round" stroke-linejoin="round"/>
<path d="M9.43579 19.2094H21.8204" stroke="#5A6881" stroke-width="2" stroke-linecap="round" stroke-linejoin="round"/>
<path d="M1.17944 19.2094H5.76765" stroke="#5A6881" stroke-width="2" stroke-linecap="round" stroke-linejoin="round"/>
<path d="M19.7563 11.497H21.8205" stroke="#5A6881" stroke-width="2" stroke-linecap="round" stroke-linejoin="round"/>
<path d="M1.17944 11.497H15.9171" stroke="#5A6881" stroke-width="2" stroke-linecap="round" stroke-linejoin="round"/>
<path d="M11.8124 4.08043C11.972 4.08043 12.1014 3.95062 12.1014 3.79049C12.1014 3.63036 11.972 3.50055 11.8124 3.50055C11.6528 3.50055 11.5234 3.63036 11.5234 3.79049C11.5234 3.95062 11.6528 4.08043 11.8124 4.08043Z" stroke="#5A6881" stroke-width="6.9" stroke-linecap="round" stroke-linejoin="round"/>
<path d="M15.6281 11.787C15.7877 11.787 15.9171 11.6572 15.9171 11.4971C15.9171 11.337 15.7877 11.2072 15.6281 11.2072C15.4685 11.2072 15.3391 11.337 15.3391 11.4971C15.3391 11.6572 15.4685 11.787 15.6281 11.787Z" stroke="#5A6881" stroke-width="6.9" stroke-linecap="round" stroke-linejoin="round"/>
<path d="M10.173 19.4994C10.3326 19.4994 10.462 19.3696 10.462 19.2095C10.462 19.0494 10.3326 18.9196 10.173 18.9196C10.0134 18.9196 9.88403 19.0494 9.88403 19.2095C9.88403 19.3696 10.0134 19.4994 10.173 19.4994Z" stroke="#5A6881" stroke-width="6.9" stroke-linecap="round" stroke-linejoin="round"/>
</svg>
