<svg width="15" height="16" viewBox="0 0 15 16" fill="none" xmlns="http://www.w3.org/2000/svg">
<path d="M3.42251 1.69995C4.65101 1.69995 5.64501 2.69745 5.64501 3.92245V6.14495H3.42251C2.19401 6.14495 1.20001 5.14745 1.20001 3.92245C1.20001 2.69395 2.19751 1.69995 3.42251 1.69995Z" stroke="#12AF22" stroke-width="2" stroke-linecap="round" stroke-linejoin="round"/>
<path d="M3.42251 9.85498H5.64501V12.0775C5.64501 13.306 4.64751 14.3 3.42251 14.3C2.19401 14.3 1.20001 13.3025 1.20001 12.0775C1.20001 10.849 2.19751 9.85498 3.42251 9.85498Z" stroke="#12AF22" stroke-width="2" stroke-linecap="round" stroke-linejoin="round"/>
<path d="M11.5775 1.69995C12.806 1.69995 13.8 2.69745 13.8 3.92245C13.8 5.15095 12.8025 6.14495 11.5775 6.14495H9.35501V3.92245C9.35501 2.69395 10.3525 1.69995 11.5775 1.69995Z" stroke="#12AF22" stroke-width="2" stroke-linecap="round" stroke-linejoin="round"/>
<path d="M5.64502 6.14502H6.85252H9.35502V9.85502H6.91202H6.50952H5.64502V6.14502Z" stroke="#12AF22" stroke-width="2" stroke-linecap="round" stroke-linejoin="round"/>
<path d="M9.35501 9.85498H11.5775C12.806 9.85498 13.8 10.8525 13.8 12.0775C13.8 13.306 12.8025 14.3 11.5775 14.3C10.349 14.3 9.35501 13.3025 9.35501 12.0775V9.85498Z" stroke="#12AF22" stroke-width="2" stroke-linecap="round" stroke-linejoin="round"/>
</svg>
