<svg width="20" height="19" viewBox="0 0 20 19" fill="none" xmlns="http://www.w3.org/2000/svg">
<path d="M3.61798 4.13011C2.46053 5.5929 1.76514 7.4615 1.76514 9.49997C1.76514 14.1903 5.45253 17.9936 10 17.9936C14.5475 17.9936 18.2349 14.1903 18.2349 9.49997C18.2349 4.8096 14.5475 1.00635 10 1.00635C8.20663 1.00635 6.55051 1.59618 5.19633 2.60126" stroke="white" stroke-width="2" stroke-linecap="round" stroke-linejoin="round"/>
<path d="M9.86741 1.02515C7.96424 3.05418 6.69241 6.39028 6.69241 9.49989C6.69241 12.6189 8.16096 16.526 9.86741 17.9935" stroke="white" stroke-width="2" stroke-linecap="round" stroke-linejoin="round"/>
<path d="M10.1328 1.02515C12.0359 3.05418 13.3077 6.39028 13.3077 9.49989C13.3077 12.6189 11.8392 16.526 10.1328 17.9935" stroke="white" stroke-width="2" stroke-linecap="round" stroke-linejoin="round"/>
<path d="M2.62067 9.5H17.3794" stroke="white" stroke-width="2" stroke-linecap="round" stroke-linejoin="round"/>
</svg>
