<svg width="20" viewBox="0 0 21 20" fill="none" xmlns="http://www.w3.org/2000/svg">
<g clip-path="url(#clip0_266_805)">
<path d="M20.4155 10.0611C20.4155 4.50451 15.911 0 10.3544 0C4.79778 0 0.293274 4.50451 0.293274 10.0611C0.293274 15.0829 3.97248 19.2452 8.78234 20V12.9694H6.22776V10.0611H8.78234V7.84452C8.78234 5.32296 10.2844 3.93012 12.5826 3.93012C13.6833 3.93012 14.8347 4.12663 14.8347 4.12663V6.60261H13.566C12.3162 6.60261 11.9264 7.37816 11.9264 8.17381V10.0611H14.7168L14.2708 12.9694H11.9264V20C16.7363 19.2452 20.4155 15.0829 20.4155 10.0611Z" fill="white"/>
</g>
<defs>
<clipPath id="clip0_266_805">
<rect width="20" height="20" fill="white" transform="translate(0.293274)"/>
</clipPath>
</defs>
</svg>
