<svg width="20" viewBox="0 0 21 20" fill="none" xmlns="http://www.w3.org/2000/svg">
<g clip-path="url(#clip0_266_815)">
<path d="M10.2933 1.80184C12.9634 1.80184 13.2796 1.812 14.3341 1.86011C15.3091 1.90461 15.8386 2.06752 16.191 2.20443C16.6577 2.38583 16.9909 2.60257 17.3408 2.95248C17.6907 3.30239 17.9074 3.63555 18.0888 4.10229C18.2258 4.4547 18.3887 4.98419 18.4332 5.95914C18.4813 7.01364 18.4914 7.32989 18.4914 10C18.4914 12.6701 18.4813 12.9864 18.4332 14.0409C18.3887 15.0158 18.2258 15.5453 18.0888 15.8978C17.9074 16.3645 17.6907 16.6976 17.3408 17.0476C16.9909 17.3975 16.6577 17.6142 16.191 17.7956C15.8386 17.9325 15.3091 18.0954 14.3341 18.1399C13.2798 18.188 12.9635 18.1982 10.2933 18.1982C7.62297 18.1982 7.30672 18.188 6.25242 18.1399C5.27743 18.0954 4.74793 17.9325 4.39556 17.7956C3.92879 17.6142 3.59563 17.3975 3.24571 17.0476C2.8958 16.6976 2.67907 16.3645 2.4977 15.8978C2.36075 15.5453 2.19784 15.0158 2.15334 14.0409C2.10523 12.9864 2.09507 12.6701 2.09507 10C2.09507 7.32989 2.10523 7.01364 2.15334 5.95918C2.19784 4.98419 2.36075 4.4547 2.4977 4.10229C2.67907 3.63555 2.8958 3.30239 3.24571 2.95248C3.59563 2.60257 3.92879 2.38583 4.39556 2.20443C4.74793 2.06752 5.27743 1.90461 6.25238 1.86011C7.30688 1.812 7.62313 1.80184 10.2933 1.80184ZM10.2933 0C7.5774 0 7.23689 0.0115116 6.17029 0.0601777C5.10586 0.108764 4.37897 0.277786 3.74285 0.525007C3.08527 0.780564 2.52759 1.1225 1.97166 1.67843C1.41573 2.23436 1.0738 2.79203 0.818241 3.44962C0.57102 4.08573 0.401999 4.81263 0.353412 5.87705C0.304746 6.94362 0.293274 7.28416 0.293274 10C0.293274 12.7159 0.304746 13.0564 0.353412 14.123C0.401999 15.1874 0.57102 15.9143 0.818241 16.5504C1.0738 17.208 1.41573 17.7657 1.97166 18.3216C2.52759 18.8775 3.08527 19.2195 3.74285 19.475C4.37897 19.7223 5.10586 19.8913 6.17029 19.9399C7.23689 19.9885 7.5774 20 10.2933 20C13.0091 20 13.3497 19.9885 14.4162 19.9399C15.4806 19.8913 16.2075 19.7223 16.8437 19.475C17.5012 19.2195 18.0589 18.8775 18.6148 18.3216C19.1708 17.7657 19.5127 17.208 19.7683 16.5504C20.0155 15.9143 20.1845 15.1874 20.2331 14.123C20.2818 13.0564 20.2933 12.7159 20.2933 10C20.2933 7.28416 20.2818 6.94362 20.2331 5.87705C20.1845 4.81263 20.0155 4.08573 19.7683 3.44962C19.5127 2.79203 19.1708 2.23436 18.6148 1.67843C18.0589 1.1225 17.5012 0.780564 16.8437 0.525007C16.2075 0.277786 15.4806 0.108764 14.4162 0.0601777C13.3497 0.0115116 13.0091 0 10.2933 0ZM10.2933 4.86487C7.4572 4.86487 5.1581 7.16397 5.1581 10C5.1581 12.8361 7.4572 15.1352 10.2933 15.1352C13.1293 15.1352 15.4284 12.8361 15.4284 10C15.4284 7.16397 13.1293 4.86487 10.2933 4.86487ZM10.2933 13.3334C8.45232 13.3334 6.9599 11.841 6.9599 10C6.9599 8.15908 8.45232 6.66667 10.2933 6.66667C12.1342 6.66667 13.6266 8.15908 13.6266 10C13.6266 11.841 12.1342 13.3334 10.2933 13.3334ZM16.8313 4.66199C16.8313 5.32474 16.294 5.86201 15.6313 5.86201C14.9685 5.86201 14.4313 5.32474 14.4313 4.66199C14.4313 3.99924 14.9685 3.462 15.6313 3.462C16.294 3.462 16.8313 3.99924 16.8313 4.66199Z" fill="white"/>
</g>
<defs>
<clipPath id="clip0_266_815">
<rect width="20" height="20" fill="white" transform="translate(0.293274)"/>
</clipPath>
</defs>
</svg>
