<svg width="20" viewBox="0 0 21 20" fill="none" xmlns="http://www.w3.org/2000/svg">
<path d="M17.3342 17.0413H14.3708V12.4004C14.3708 11.2937 14.3511 9.86913 12.8296 9.86913C11.2862 9.86913 11.05 11.0749 11.05 12.3198V17.041H8.08664V7.49745H10.9315V8.80167H10.9713C11.5514 7.80983 12.63 7.21744 13.7782 7.26007C16.7817 7.26007 17.3355 9.23569 17.3355 11.8059L17.3342 17.0413ZM4.74297 6.19292C3.79321 6.19309 3.02314 5.42328 3.02297 4.47351C3.0228 3.52373 3.79259 2.75365 4.74235 2.75348C5.6921 2.75331 6.46217 3.52311 6.46234 4.47289C6.46242 4.92899 6.28132 5.36644 5.95888 5.68901C5.63643 6.01157 5.19905 6.19284 4.74297 6.19292ZM6.22465 17.0413H3.25819V7.49745H6.22465V17.0413ZM18.8116 0.00149131H1.7691C0.963633 -0.00759854 0.303104 0.637609 0.293274 1.44308V18.5566C0.302768 19.3625 0.963243 20.0083 1.7691 19.9999H18.8116C19.619 20.0099 20.2821 19.3641 20.2933 18.5566V1.44185C20.2818 0.634783 19.6186 -0.0103876 18.8116 0.000126709" fill="white"/>
</svg>
