<svg width="20" viewBox="0 0 21 17" fill="none" xmlns="http://www.w3.org/2000/svg">
<path d="M20.2933 1.92406C19.5574 2.25041 18.7666 2.47098 17.9366 2.57017C18.7838 2.06233 19.4344 1.2582 19.7407 0.300084C18.9479 0.770255 18.0698 1.11175 17.1351 1.2958C16.3866 0.498336 15.3202 0 14.1401 0C11.8739 0 10.0367 1.83716 10.0367 4.10315C10.0367 4.42474 10.0731 4.73792 10.143 5.03822C6.73279 4.86711 3.70935 3.23355 1.68557 0.751088C1.33238 1.35711 1.13003 2.06196 1.13003 2.81393C1.13003 4.23746 1.85449 5.4934 2.95548 6.2292C2.28281 6.20791 1.65016 6.02334 1.09689 5.71601C1.0966 5.73313 1.0966 5.75032 1.0966 5.76759C1.0966 7.75566 2.51098 9.4141 4.38808 9.79099C4.04374 9.88478 3.68125 9.93489 3.30699 9.93489C3.04261 9.93489 2.78554 9.90921 2.53505 9.8613C3.05716 11.4915 4.57251 12.6778 6.36804 12.7109C4.96374 13.8114 3.19448 14.4674 1.2721 14.4674C0.94092 14.4674 0.614281 14.448 0.293274 14.4101C2.10914 15.5743 4.26599 16.2536 6.58319 16.2536C14.1305 16.2536 18.2576 10.0012 18.2576 4.57895C18.2576 4.40104 18.2537 4.22408 18.2458 4.04814C19.0474 3.46962 19.7431 2.74692 20.2933 1.92406Z" fill="white"/>
</svg>
